M48
; DRILL file {KiCad 6.0.2+dfsg-1} date Пт 20 мая 2022 21:22:56
; FORMAT={-:-/ absolute / metric / decimal}
; #@! TF.CreationDate,2022-05-20T21:22:56+03:00
; #@! TF.GenerationSoftware,Kicad,Pcbnew,6.0.2+dfsg-1
; #@! TF.FileFunction,Plated,1,4,PTH
FMAT,2
METRIC
; #@! TA.AperFunction,Plated,PTH,ViaDrill
T1C0.200
; #@! TA.AperFunction,Plated,PTH,ComponentDrill
T2C0.600
; #@! TA.AperFunction,Plated,PTH,ComponentDrill
T3C0.750
; #@! TA.AperFunction,Plated,PTH,ComponentDrill
T4C1.000
%
G90
G05
T1
X13.2Y-68.6
X13.7Y-75.0
X14.1Y-53.1
X14.1Y-60.5
X14.8Y-57.1
X14.8Y-64.7
X14.8Y-72.3
X16.3Y-40.3
X17.5Y-44.0
X18.5Y-47.6
X18.7Y-62.0
X18.8Y-69.6
X18.9Y-54.4
X19.1Y-40.4
X19.3Y-34.5
X19.4Y-52.1
X20.4Y-74.7
X20.5Y-59.6
X20.6Y-67.2
X23.0Y-41.7
X24.3Y-42.8
X24.4Y-47.6
X24.4Y-59.6
X24.5Y-52.7
X24.7Y-67.2
X24.7Y-74.7
X24.8Y-42.3
X24.9Y-71.4
X25.2Y-58.1
X25.45Y-39.0
X25.6Y-75.6
X26.1Y-52.3
X26.1Y-61.7
X26.7Y-66.2
X30.7Y-61.7
X31.0Y-34.5
X31.5Y-46.2
X33.0Y-44.4
X33.0Y-49.1
X33.0Y-52.0
X33.1Y-37.2
X33.9Y-40.3
X34.1Y-75.6
X35.0Y-40.3
X36.1Y-40.3
X37.0Y-30.5
X37.25Y-70.05
X37.25Y-71.05
X37.4Y-45.2
X38.2Y-48.3
X38.2Y-56.7
X38.3Y-40.3
X39.2Y-45.2
X40.5Y-40.3
X41.6Y-40.3
X41.6Y-48.6
X42.4Y-44.4
X42.7Y-43.2
X43.3Y-60.9
X44.4Y-52.3
X44.6Y-74.4
X45.4Y-52.3
X45.6Y-67.4
X45.8Y-48.4
X46.4Y-54.2
X46.8Y-48.4
X47.2Y-41.3
X47.2Y-42.2
X47.2Y-44.4
X47.5Y-35.1
X48.0Y-39.5
X48.0Y-42.7
X48.0Y-45.2
X48.0Y-47.7
X48.2Y-54.2
X48.8Y-57.4
X49.0Y-39.5
X49.0Y-42.7
X49.0Y-45.2
X49.0Y-47.7
X49.1Y-30.1
X50.9Y-74.7
X52.2Y-45.4
X52.4Y-47.4
X53.6Y-62.0
X53.8Y-58.1
X54.0Y-66.1
X54.4Y-60.7
X55.0Y-55.0
X55.1Y-74.9
X55.25Y-58.82
X55.4Y-54.4
X55.8Y-55.0
X56.5Y-68.3
X56.9Y-49.7
X57.1Y-67.8
X57.1Y-68.8
X57.2Y-43.7
X57.2Y-62.8
X58.1Y-57.9
X58.7Y-63.7
X59.2Y-62.7
X60.2Y-62.5
X60.6Y-36.1
X60.7Y-63.5
X61.0Y-36.6
X61.2Y-32.9
X61.2Y-64.5
X61.4Y-37.1
X61.5Y-50.6
X61.65Y-69.35
X61.65Y-71.85
X61.7Y-65.0
X61.8Y-37.6
X61.8Y-57.6
X61.8Y-61.1
X62.0Y-31.1
X62.225Y-66.0
X62.6Y-38.1
X62.6Y-66.6
X63.0Y-38.6
X63.8Y-66.6
X64.5Y-33.47
X64.6Y-57.6
X64.6Y-61.1
X64.8Y-37.4
X64.8Y-66.0
X65.27Y-31.68
X65.3Y-67.8
X65.4Y-37.4
X65.4Y-42.4
X65.4Y-66.0
X65.4Y-71.2
X65.4Y-75.5
X65.7Y-28.5
X65.7Y-69.4
X65.92Y-33.24
X66.59Y-31.68
X66.7Y-70.5
X68.1Y-49.7
X68.5Y-33.5
X68.9Y-44.4
X68.91Y-73.9
X69.0Y-29.5
X69.4Y-66.6
X69.5Y-74.5
X69.8Y-57.8
X69.8Y-61.1
X70.2Y-67.5
X70.4Y-32.5
X70.4Y-73.5
X71.0Y-38.2
X71.0Y-38.9
X71.1Y-40.6
X71.2Y-75.5
X71.3Y-34.6
X72.0Y-65.0
X72.2Y-73.8
X72.3Y-75.8
X72.5Y-66.2
X72.6Y-73.4
X72.7Y-29.7
X72.82Y-68.82
X72.95Y-75.4
X73.1Y-73.8
X73.5Y-44.2
X73.5Y-45.0
X73.5Y-45.8
X73.5Y-46.6
X73.5Y-50.6
X73.5Y-51.4
X73.5Y-52.2
X73.5Y-53.0
X73.5Y-53.8
X73.6Y-39.8
X73.6Y-40.7
X73.7Y-29.7
X73.78Y-68.78
X73.8Y-63.2
X73.9Y-43.8
X73.9Y-44.6
X73.9Y-45.4
X73.9Y-46.2
X73.9Y-51.8
X73.9Y-52.6
X73.9Y-53.4
X73.9Y-54.2
X74.0Y-41.4
X74.0Y-43.0
X74.3Y-51.0
X74.4Y-47.4
X74.4Y-64.3
X75.1Y-68.6
X75.2Y-28.3
X75.2Y-73.8
X76.2Y-61.7
X76.2Y-63.0
X76.2Y-64.6
X76.4Y-35.9
X76.4Y-36.9
X76.5Y-41.0
X76.8Y-47.2
X77.2Y-60.8
X77.2Y-62.6
X77.2Y-64.2
X77.2Y-65.8
X77.2Y-67.4
X77.2Y-75.8
X77.31Y-41.61
X77.4Y-41.0
X77.4Y-50.8
X77.5Y-47.0
X77.6Y-55.4
X77.6Y-60.0
X77.6Y-76.2
X78.0Y-54.9
X78.0Y-60.8
X78.0Y-62.6
X78.0Y-63.4
X78.0Y-65.0
X78.0Y-65.8
X78.0Y-66.6
X78.0Y-67.4
X78.0Y-75.4
X78.1Y-50.6
X78.12Y-41.61
X78.4Y-53.4
X78.4Y-60.0
X78.4Y-75.0
X78.8Y-54.9
X79.1Y-67.8
X79.1Y-68.6
X79.2Y-53.4
X79.2Y-74.6
X79.6Y-53.9
X79.6Y-71.4
X79.7Y-69.0
X80.0Y-54.3
X80.0Y-74.2
X80.1Y-67.4
X80.16Y-36.73
X80.4Y-73.8
X80.8Y-60.5
X80.8Y-73.4
X80.95Y-41.0
X81.0Y-64.6
X81.0Y-65.4
X81.0Y-66.2
X81.0Y-67.0
X81.2Y-61.8
X81.2Y-71.4
X81.2Y-72.2
X81.2Y-73.0
X82.0Y-61.8
X82.0Y-62.6
X82.0Y-63.4
X82.0Y-64.2
X82.0Y-66.6
X82.0Y-68.2
X82.0Y-70.6
X82.0Y-71.4
X82.0Y-72.2
X82.0Y-73.0
X82.4Y-59.6
X82.8Y-65.0
X82.8Y-69.8
X82.8Y-70.6
X83.2Y-59.6
X83.2Y-60.5
X83.45Y-38.6
X83.79Y-68.79
X83.8Y-30.0
X83.8Y-61.4
X83.8Y-63.0
X83.8Y-72.6
X84.0Y-65.4
X84.2Y-48.6
X85.55Y-38.8
X86.15Y-37.2
X86.2Y-70.5
X86.22Y-62.88
X86.22Y-72.67
X87.18Y-72.67
X87.2Y-62.9
X87.2Y-70.5
X87.3Y-57.7
X87.9Y-50.9
X88.0Y-68.8
X88.2Y-41.1
T3
X50.4Y-59.9
X50.4Y-61.17
X50.4Y-62.44
T4
X32.7Y-65.0
X32.7Y-67.54
X46.7Y-59.925
X46.7Y-62.465
X53.66Y-29.9
X56.2Y-29.9
X58.74Y-29.9
X77.32Y-28.63
X77.32Y-31.17
T2
G00X79.38Y-30.5
M15
G01X79.38Y-29.9
M16
G05
G00X79.38Y-34.93
M15
G01X79.38Y-33.83
M16
G05
G00X88.02Y-30.5
M15
G01X88.02Y-29.9
M16
G05
G00X88.02Y-34.93
M15
G01X88.02Y-33.83
M16
G05
T0
M30
