%TF.GenerationSoftware,KiCad,Pcbnew,6.0.2+dfsg-1*%
%TF.CreationDate,2022-05-20T21:22:49+03:00*%
%TF.ProjectId,A13_test_project,4131335f-7465-4737-945f-70726f6a6563,rev?*%
%TF.SameCoordinates,Original*%
%TF.FileFunction,Soldermask,Top*%
%TF.FilePolarity,Negative*%
%FSLAX46Y46*%
G04 Gerber Fmt 4.6, Leading zero omitted, Abs format (unit mm)*
G04 Created by KiCad (PCBNEW 6.0.2+dfsg-1) date 2022-05-20 21:22:49*
%MOMM*%
%LPD*%
G01*
G04 APERTURE LIST*
G04 Aperture macros list*
%AMRoundRect*
0 Rectangle with rounded corners*
0 $1 Rounding radius*
0 $2 $3 $4 $5 $6 $7 $8 $9 X,Y pos of 4 corners*
0 Add a 4 corners polygon primitive as box body*
4,1,4,$2,$3,$4,$5,$6,$7,$8,$9,$2,$3,0*
0 Add four circle primitives for the rounded corners*
1,1,$1+$1,$2,$3*
1,1,$1+$1,$4,$5*
1,1,$1+$1,$6,$7*
1,1,$1+$1,$8,$9*
0 Add four rect primitives between the rounded corners*
20,1,$1+$1,$2,$3,$4,$5,0*
20,1,$1+$1,$4,$5,$6,$7,0*
20,1,$1+$1,$6,$7,$8,$9,0*
20,1,$1+$1,$8,$9,$2,$3,0*%
G04 Aperture macros list end*
%ADD10RoundRect,0.250000X-0.250000X-0.475000X0.250000X-0.475000X0.250000X0.475000X-0.250000X0.475000X0*%
%ADD11RoundRect,0.140000X0.170000X-0.140000X0.170000X0.140000X-0.170000X0.140000X-0.170000X-0.140000X0*%
%ADD12RoundRect,0.140000X-0.170000X0.140000X-0.170000X-0.140000X0.170000X-0.140000X0.170000X0.140000X0*%
%ADD13RoundRect,0.140000X-0.140000X-0.170000X0.140000X-0.170000X0.140000X0.170000X-0.140000X0.170000X0*%
%ADD14RoundRect,0.140000X0.140000X0.170000X-0.140000X0.170000X-0.140000X-0.170000X0.140000X-0.170000X0*%
%ADD15RoundRect,0.250000X0.475000X-0.250000X0.475000X0.250000X-0.475000X0.250000X-0.475000X-0.250000X0*%
%ADD16RoundRect,0.250000X0.250000X0.475000X-0.250000X0.475000X-0.250000X-0.475000X0.250000X-0.475000X0*%
%ADD17RoundRect,0.112500X0.187500X0.112500X-0.187500X0.112500X-0.187500X-0.112500X0.187500X-0.112500X0*%
%ADD18RoundRect,0.218750X-0.256250X0.218750X-0.256250X-0.218750X0.256250X-0.218750X0.256250X0.218750X0*%
%ADD19RoundRect,0.135000X0.135000X0.185000X-0.135000X0.185000X-0.135000X-0.185000X0.135000X-0.185000X0*%
%ADD20RoundRect,0.135000X-0.185000X0.135000X-0.185000X-0.135000X0.185000X-0.135000X0.185000X0.135000X0*%
%ADD21RoundRect,0.135000X0.185000X-0.135000X0.185000X0.135000X-0.185000X0.135000X-0.185000X-0.135000X0*%
%ADD22RoundRect,0.135000X-0.135000X-0.185000X0.135000X-0.185000X0.135000X0.185000X-0.135000X0.185000X0*%
%ADD23R,1.500000X1.050000*%
%ADD24O,1.500000X1.050000*%
%ADD25RoundRect,0.150000X0.150000X-0.825000X0.150000X0.825000X-0.150000X0.825000X-0.150000X-0.825000X0*%
%ADD26RoundRect,0.162500X-0.367500X-0.162500X0.367500X-0.162500X0.367500X0.162500X-0.367500X0.162500X0*%
%ADD27C,0.400000*%
%ADD28RoundRect,0.218750X0.256250X-0.218750X0.256250X0.218750X-0.256250X0.218750X-0.256250X-0.218750X0*%
%ADD29RoundRect,0.325000X-0.325000X-1.425000X0.325000X-1.425000X0.325000X1.425000X-0.325000X1.425000X0*%
%ADD30RoundRect,0.200000X0.250000X0.200000X-0.250000X0.200000X-0.250000X-0.200000X0.250000X-0.200000X0*%
%ADD31C,0.650000*%
%ADD32RoundRect,0.150000X0.150000X0.575000X-0.150000X0.575000X-0.150000X-0.575000X0.150000X-0.575000X0*%
%ADD33RoundRect,0.075000X0.075000X0.650000X-0.075000X0.650000X-0.075000X-0.650000X0.075000X-0.650000X0*%
%ADD34O,1.000000X2.100000*%
%ADD35O,1.000000X1.600000*%
%ADD36RoundRect,0.075000X0.987000X0.075000X-0.987000X0.075000X-0.987000X-0.075000X0.987000X-0.075000X0*%
%ADD37RoundRect,0.050000X0.050000X-0.687500X0.050000X0.687500X-0.050000X0.687500X-0.050000X-0.687500X0*%
%ADD38RoundRect,0.050000X0.687500X-0.050000X0.687500X0.050000X-0.687500X0.050000X-0.687500X-0.050000X0*%
%ADD39RoundRect,1.500000X1.500000X-1.500000X1.500000X1.500000X-1.500000X1.500000X-1.500000X-1.500000X0*%
%ADD40RoundRect,0.175000X0.175000X0.525000X-0.175000X0.525000X-0.175000X-0.525000X0.175000X-0.525000X0*%
%ADD41RoundRect,0.350000X0.450000X0.350000X-0.450000X0.350000X-0.450000X-0.350000X0.450000X-0.350000X0*%
%ADD42RoundRect,0.300000X0.300000X0.800000X-0.300000X0.800000X-0.300000X-0.800000X0.300000X-0.800000X0*%
%ADD43R,1.700000X1.700000*%
%ADD44O,1.700000X1.700000*%
%ADD45RoundRect,0.125000X0.125000X0.875000X-0.125000X0.875000X-0.125000X-0.875000X0.125000X-0.875000X0*%
%ADD46RoundRect,0.425000X0.575000X0.425000X-0.575000X0.425000X-0.575000X-0.425000X0.575000X-0.425000X0*%
%ADD47RoundRect,0.150000X0.150000X-0.512500X0.150000X0.512500X-0.150000X0.512500X-0.150000X-0.512500X0*%
%ADD48RoundRect,0.150000X-0.150000X0.825000X-0.150000X-0.825000X0.150000X-0.825000X0.150000X0.825000X0*%
%ADD49RoundRect,0.075000X0.075000X-0.625000X0.075000X0.625000X-0.075000X0.625000X-0.075000X-0.625000X0*%
%ADD50RoundRect,0.150000X-0.150000X0.512500X-0.150000X-0.512500X0.150000X-0.512500X0.150000X0.512500X0*%
G04 APERTURE END LIST*
D10*
%TO.C,C1*%
X37350000Y-43900000D03*
X39250000Y-43900000D03*
%TD*%
D11*
%TO.C,C2*%
X59200000Y-61980000D03*
X59200000Y-61020000D03*
%TD*%
D12*
%TO.C,C3*%
X56200000Y-61020000D03*
X56200000Y-61980000D03*
%TD*%
D13*
%TO.C,C4*%
X29320000Y-67500000D03*
X30280000Y-67500000D03*
%TD*%
D12*
%TO.C,C5*%
X71600000Y-30620000D03*
X71600000Y-31580000D03*
%TD*%
D14*
%TO.C,C6*%
X76480000Y-40200000D03*
X75520000Y-40200000D03*
%TD*%
D11*
%TO.C,C7*%
X67800000Y-31380000D03*
X67800000Y-30420000D03*
%TD*%
D14*
%TO.C,C8*%
X76480000Y-39200000D03*
X75520000Y-39200000D03*
%TD*%
%TO.C,C9*%
X75580000Y-37900000D03*
X74620000Y-37900000D03*
%TD*%
D12*
%TO.C,C10*%
X44200000Y-59920000D03*
X44200000Y-60880000D03*
%TD*%
D13*
%TO.C,C11*%
X77420000Y-40200000D03*
X78380000Y-40200000D03*
%TD*%
%TO.C,C12*%
X77420000Y-39200000D03*
X78380000Y-39200000D03*
%TD*%
D10*
%TO.C,C14*%
X15750000Y-69600000D03*
X17650000Y-69600000D03*
%TD*%
%TO.C,C15*%
X15750000Y-54400000D03*
X17650000Y-54400000D03*
%TD*%
%TO.C,C16*%
X15750000Y-62000000D03*
X17650000Y-62000000D03*
%TD*%
D12*
%TO.C,C17*%
X86200000Y-66000000D03*
X86200000Y-66960000D03*
%TD*%
%TO.C,C18*%
X86200000Y-67800000D03*
X86200000Y-68760000D03*
%TD*%
D14*
%TO.C,C21*%
X19480000Y-75500000D03*
X18520000Y-75500000D03*
%TD*%
%TO.C,C22*%
X17580000Y-75500000D03*
X16620000Y-75500000D03*
%TD*%
%TO.C,C23*%
X19480000Y-60300000D03*
X18520000Y-60300000D03*
%TD*%
%TO.C,C24*%
X17580000Y-60300000D03*
X16620000Y-60300000D03*
%TD*%
%TO.C,C25*%
X19480000Y-67900000D03*
X18520000Y-67900000D03*
%TD*%
%TO.C,C26*%
X17580000Y-67900000D03*
X16620000Y-67900000D03*
%TD*%
D15*
%TO.C,C27*%
X65400000Y-74350000D03*
X65400000Y-72450000D03*
%TD*%
D16*
%TO.C,C29*%
X23450000Y-74700000D03*
X21550000Y-74700000D03*
%TD*%
%TO.C,C30*%
X23350000Y-59600000D03*
X21450000Y-59600000D03*
%TD*%
%TO.C,C31*%
X23450000Y-67200000D03*
X21550000Y-67200000D03*
%TD*%
D17*
%TO.C,D1*%
X44750000Y-48600000D03*
X42650000Y-48600000D03*
%TD*%
D18*
%TO.C,D2*%
X63000000Y-28512500D03*
X63000000Y-30087500D03*
%TD*%
%TO.C,D3*%
X64600000Y-28512500D03*
X64600000Y-30087500D03*
%TD*%
D19*
%TO.C,R1*%
X46810000Y-47000000D03*
X45790000Y-47000000D03*
%TD*%
D20*
%TO.C,R2*%
X36100000Y-43390000D03*
X36100000Y-44410000D03*
%TD*%
%TO.C,R3*%
X41600000Y-43390000D03*
X41600000Y-44410000D03*
%TD*%
%TO.C,R4*%
X40500000Y-43390000D03*
X40500000Y-44410000D03*
%TD*%
%TO.C,R5*%
X35000000Y-43390000D03*
X35000000Y-44410000D03*
%TD*%
%TO.C,R6*%
X33900000Y-43390000D03*
X33900000Y-44410000D03*
%TD*%
D19*
%TO.C,R7*%
X49010000Y-44400000D03*
X47990000Y-44400000D03*
%TD*%
D20*
%TO.C,R8*%
X80950000Y-39090000D03*
X80950000Y-40110000D03*
%TD*%
%TO.C,R9*%
X80950000Y-37190000D03*
X80950000Y-38210000D03*
%TD*%
%TO.C,R10*%
X55200000Y-60990000D03*
X55200000Y-62010000D03*
%TD*%
%TO.C,R11*%
X63300000Y-31390000D03*
X63300000Y-32410000D03*
%TD*%
D21*
%TO.C,R12*%
X58200000Y-62010000D03*
X58200000Y-60990000D03*
%TD*%
D20*
%TO.C,R13*%
X57200000Y-60990000D03*
X57200000Y-62010000D03*
%TD*%
D19*
%TO.C,R14*%
X30310000Y-63925000D03*
X29290000Y-63925000D03*
%TD*%
D20*
%TO.C,R15*%
X64300000Y-31390000D03*
X64300000Y-32410000D03*
%TD*%
D19*
%TO.C,R16*%
X30310000Y-65000000D03*
X29290000Y-65000000D03*
%TD*%
%TO.C,R17*%
X47710000Y-57400000D03*
X46690000Y-57400000D03*
%TD*%
D21*
%TO.C,R18*%
X44200000Y-62810000D03*
X44200000Y-61790000D03*
%TD*%
D20*
%TO.C,R19*%
X35665000Y-56890000D03*
X35665000Y-57910000D03*
%TD*%
D22*
%TO.C,R20*%
X77390000Y-38200000D03*
X78410000Y-38200000D03*
%TD*%
D20*
%TO.C,R21*%
X34400000Y-56890000D03*
X34400000Y-57910000D03*
%TD*%
%TO.C,R52*%
X13400000Y-30890000D03*
X13400000Y-31910000D03*
%TD*%
D19*
%TO.C,R82*%
X19510000Y-74500000D03*
X18490000Y-74500000D03*
%TD*%
%TO.C,R83*%
X17610000Y-74500000D03*
X16590000Y-74500000D03*
%TD*%
%TO.C,R84*%
X19510000Y-59300000D03*
X18490000Y-59300000D03*
%TD*%
%TO.C,R85*%
X17610000Y-59300000D03*
X16590000Y-59300000D03*
%TD*%
%TO.C,R86*%
X19510000Y-66900000D03*
X18490000Y-66900000D03*
%TD*%
%TO.C,R87*%
X17610000Y-66900000D03*
X16590000Y-66900000D03*
%TD*%
D20*
%TO.C,R110*%
X87200000Y-65970000D03*
X87200000Y-66990000D03*
%TD*%
%TO.C,R111*%
X87200000Y-67770000D03*
X87200000Y-68790000D03*
%TD*%
D21*
%TO.C,R114*%
X26800000Y-72710000D03*
X26800000Y-71690000D03*
%TD*%
D23*
%TO.C,U2*%
X50400000Y-59900000D03*
D24*
X50400000Y-61170000D03*
X50400000Y-62440000D03*
%TD*%
D25*
%TO.C,U3*%
X34395000Y-55175000D03*
X35665000Y-55175000D03*
X36935000Y-55175000D03*
X38205000Y-55175000D03*
X38205000Y-50225000D03*
X36935000Y-50225000D03*
X35665000Y-50225000D03*
X34395000Y-50225000D03*
%TD*%
D26*
%TO.C,U8*%
X16100000Y-71350000D03*
X16100000Y-72300000D03*
X16100000Y-73250000D03*
X18300000Y-73250000D03*
X18300000Y-71350000D03*
%TD*%
%TO.C,U9*%
X16100000Y-56150000D03*
X16100000Y-57100000D03*
X16100000Y-58050000D03*
X18300000Y-58050000D03*
X18300000Y-56150000D03*
%TD*%
%TO.C,U10*%
X16100000Y-63750000D03*
X16100000Y-64700000D03*
X16100000Y-65650000D03*
X18300000Y-65650000D03*
X18300000Y-63750000D03*
%TD*%
D27*
%TO.C,U11*%
X83200000Y-73400000D03*
X82400000Y-73400000D03*
X81600000Y-73400000D03*
X78400000Y-73400000D03*
X77600000Y-73400000D03*
X76800000Y-73400000D03*
X83200000Y-72600000D03*
X82400000Y-72600000D03*
X81600000Y-72600000D03*
X78400000Y-72600000D03*
X77600000Y-72600000D03*
X76800000Y-72600000D03*
X83200000Y-71800000D03*
X82400000Y-71800000D03*
X81600000Y-71800000D03*
X78400000Y-71800000D03*
X77600000Y-71800000D03*
X76800000Y-71800000D03*
X83200000Y-71000000D03*
X82400000Y-71000000D03*
X81600000Y-71000000D03*
X78400000Y-71000000D03*
X77600000Y-71000000D03*
X76800000Y-71000000D03*
X83200000Y-70200000D03*
X82400000Y-70200000D03*
X81600000Y-70200000D03*
X78400000Y-70200000D03*
X77600000Y-70200000D03*
X76800000Y-70200000D03*
X83200000Y-69400000D03*
X82400000Y-69400000D03*
X81600000Y-69400000D03*
X78400000Y-69400000D03*
X77600000Y-69400000D03*
X76800000Y-69400000D03*
X83200000Y-68600000D03*
X82400000Y-68600000D03*
X81600000Y-68600000D03*
X78400000Y-68600000D03*
X77600000Y-68600000D03*
X76800000Y-68600000D03*
X83200000Y-67800000D03*
X82400000Y-67800000D03*
X81600000Y-67800000D03*
X78400000Y-67800000D03*
X77600000Y-67800000D03*
X76800000Y-67800000D03*
X83200000Y-67000000D03*
X82400000Y-67000000D03*
X81600000Y-67000000D03*
X78400000Y-67000000D03*
X77600000Y-67000000D03*
X76800000Y-67000000D03*
X83200000Y-66200000D03*
X82400000Y-66200000D03*
X81600000Y-66200000D03*
X78400000Y-66200000D03*
X77600000Y-66200000D03*
X76800000Y-66200000D03*
X83200000Y-65400000D03*
X82400000Y-65400000D03*
X81600000Y-65400000D03*
X78400000Y-65400000D03*
X77600000Y-65400000D03*
X76800000Y-65400000D03*
X83200000Y-64600000D03*
X82400000Y-64600000D03*
X81600000Y-64600000D03*
X78400000Y-64600000D03*
X77600000Y-64600000D03*
X76800000Y-64600000D03*
X83200000Y-63800000D03*
X82400000Y-63800000D03*
X81600000Y-63800000D03*
X78400000Y-63800000D03*
X77600000Y-63800000D03*
X76800000Y-63800000D03*
X83200000Y-63000000D03*
X82400000Y-63000000D03*
X81600000Y-63000000D03*
X78400000Y-63000000D03*
X77600000Y-63000000D03*
X76800000Y-63000000D03*
X83200000Y-62200000D03*
X82400000Y-62200000D03*
X81600000Y-62200000D03*
X78400000Y-62200000D03*
X77600000Y-62200000D03*
X76800000Y-62200000D03*
X83200000Y-61400000D03*
X82400000Y-61400000D03*
X81600000Y-61400000D03*
X78400000Y-61400000D03*
X77600000Y-61400000D03*
X76800000Y-61400000D03*
%TD*%
D11*
%TO.C,C32*%
X72700000Y-31480000D03*
X72700000Y-30520000D03*
%TD*%
%TO.C,C33*%
X73700000Y-31480000D03*
X73700000Y-30520000D03*
%TD*%
D13*
%TO.C,C34*%
X74620000Y-36900000D03*
X75580000Y-36900000D03*
%TD*%
%TO.C,C35*%
X74620000Y-35900000D03*
X75580000Y-35900000D03*
%TD*%
D28*
%TO.C,D11*%
X26800000Y-75587500D03*
X26800000Y-74012500D03*
%TD*%
D29*
%TO.C,L2*%
X20350000Y-71350000D03*
X22650000Y-71350000D03*
%TD*%
%TO.C,L3*%
X20450000Y-56150000D03*
X22750000Y-56150000D03*
%TD*%
%TO.C,L4*%
X20450000Y-63750000D03*
X22750000Y-63750000D03*
%TD*%
D30*
%TO.C,Y1*%
X70400000Y-30450000D03*
X69000000Y-30450000D03*
X69000000Y-31550000D03*
X70400000Y-31550000D03*
%TD*%
D19*
%TO.C,R112*%
X73810000Y-65000000D03*
X72790000Y-65000000D03*
%TD*%
D18*
%TO.C,D9*%
X13400000Y-28112500D03*
X13400000Y-29687500D03*
%TD*%
D31*
%TO.C,J2*%
X86590000Y-33850000D03*
X80810000Y-33850000D03*
D32*
X86950000Y-35295000D03*
X86150000Y-35295000D03*
D33*
X84950000Y-35295000D03*
X83950000Y-35295000D03*
X83450000Y-35295000D03*
X82450000Y-35295000D03*
D32*
X81250000Y-35295000D03*
X80450000Y-35295000D03*
D33*
X81950000Y-35295000D03*
X82950000Y-35295000D03*
X84450000Y-35295000D03*
X85450000Y-35295000D03*
D34*
X88020000Y-34380000D03*
X79380000Y-34380000D03*
D35*
X79380000Y-30200000D03*
X88020000Y-30200000D03*
%TD*%
D13*
%TO.C,C39*%
X56970000Y-63700000D03*
X57930000Y-63700000D03*
%TD*%
D19*
%TO.C,R117*%
X62810000Y-73300000D03*
X61790000Y-73300000D03*
%TD*%
D20*
%TO.C,R118*%
X53600000Y-62790000D03*
X53600000Y-63810000D03*
%TD*%
D22*
%TO.C,R119*%
X55039999Y-63700000D03*
X56059999Y-63700000D03*
%TD*%
D36*
%TO.C,U13*%
X59700000Y-76299999D03*
X59700000Y-75799999D03*
X59700000Y-75299999D03*
X59700000Y-74799999D03*
X59700000Y-74299999D03*
X59700000Y-73799999D03*
X59700000Y-73299999D03*
X59700000Y-72799999D03*
X59700000Y-72299999D03*
X59700000Y-71799999D03*
X59700000Y-71299999D03*
X59700000Y-70799999D03*
X59700000Y-70299999D03*
X59700000Y-69799999D03*
X59700000Y-69299999D03*
X59700000Y-68799999D03*
X59700000Y-68299999D03*
X59700000Y-67799999D03*
X59700000Y-67299999D03*
X59700000Y-66799999D03*
X59700000Y-66299999D03*
X59700000Y-65799999D03*
X59700000Y-65299999D03*
X59700000Y-64799999D03*
X39800000Y-64799999D03*
X39800000Y-65299999D03*
X39800000Y-65799999D03*
X39800000Y-66299999D03*
X39800000Y-66799999D03*
X39800000Y-67299999D03*
X39800000Y-67799999D03*
X39800000Y-68299999D03*
X39800000Y-68799999D03*
X39800000Y-69299999D03*
X39800000Y-69799999D03*
X39800000Y-70299999D03*
X39800000Y-70799999D03*
X39800000Y-71299999D03*
X39800000Y-71799999D03*
X39800000Y-72299999D03*
X39800000Y-72799999D03*
X39800000Y-73299999D03*
X39800000Y-73799999D03*
X39800000Y-74299999D03*
X39800000Y-74799999D03*
X39800000Y-75299999D03*
X39800000Y-75799999D03*
X39800000Y-76299999D03*
%TD*%
D21*
%TO.C,R22*%
X84950000Y-38210000D03*
X84950000Y-37190000D03*
%TD*%
%TO.C,R23*%
X81950000Y-38210000D03*
X81950000Y-37190000D03*
%TD*%
D12*
%TO.C,C40*%
X33010000Y-50120000D03*
X33010000Y-51080000D03*
%TD*%
D37*
%TO.C,U1*%
X53000000Y-56312500D03*
X53400000Y-56312500D03*
X53800000Y-56312500D03*
X54200000Y-56312500D03*
X54600000Y-56312500D03*
X55000000Y-56312500D03*
X55400000Y-56312500D03*
X55800000Y-56312500D03*
X56200000Y-56312500D03*
X56600000Y-56312500D03*
X57000000Y-56312500D03*
X57400000Y-56312500D03*
X57800000Y-56312500D03*
X58200000Y-56312500D03*
X58600000Y-56312500D03*
X59000000Y-56312500D03*
X59400000Y-56312500D03*
X59800000Y-56312500D03*
X60200000Y-56312500D03*
X60600000Y-56312500D03*
X61000000Y-56312500D03*
X61400000Y-56312500D03*
X61800000Y-56312500D03*
X62200000Y-56312500D03*
X62600000Y-56312500D03*
X63000000Y-56312500D03*
X63400000Y-56312500D03*
X63800000Y-56312500D03*
X64200000Y-56312500D03*
X64600000Y-56312500D03*
X65000000Y-56312500D03*
X65400000Y-56312500D03*
X65800000Y-56312500D03*
X66200000Y-56312500D03*
X66600000Y-56312500D03*
X67000000Y-56312500D03*
X67400000Y-56312500D03*
X67800000Y-56312500D03*
X68200000Y-56312500D03*
X68600000Y-56312500D03*
X69000000Y-56312500D03*
X69400000Y-56312500D03*
X69800000Y-56312500D03*
X70200000Y-56312500D03*
D38*
X72312500Y-54200000D03*
X72312500Y-53800000D03*
X72312500Y-53400000D03*
X72312500Y-53000000D03*
X72312500Y-52600000D03*
X72312500Y-52200000D03*
X72312500Y-51800000D03*
X72312500Y-51400000D03*
X72312500Y-51000000D03*
X72312500Y-50600000D03*
X72312500Y-50200000D03*
X72312500Y-49800000D03*
X72312500Y-49400000D03*
X72312500Y-49000000D03*
X72312500Y-48600000D03*
X72312500Y-48200000D03*
X72312500Y-47800000D03*
X72312500Y-47400000D03*
X72312500Y-47000000D03*
X72312500Y-46600000D03*
X72312500Y-46200000D03*
X72312500Y-45800000D03*
X72312500Y-45400000D03*
X72312500Y-45000000D03*
X72312500Y-44600000D03*
X72312500Y-44200000D03*
X72312500Y-43800000D03*
X72312500Y-43400000D03*
X72312500Y-43000000D03*
X72312500Y-42600000D03*
X72312500Y-42200000D03*
X72312500Y-41800000D03*
X72312500Y-41400000D03*
X72312500Y-41000000D03*
X72312500Y-40600000D03*
X72312500Y-40200000D03*
X72312500Y-39800000D03*
X72312500Y-39400000D03*
X72312500Y-39000000D03*
X72312500Y-38600000D03*
X72312500Y-38200000D03*
X72312500Y-37800000D03*
X72312500Y-37400000D03*
X72312500Y-37000000D03*
D37*
X70200000Y-34887500D03*
X69800000Y-34887500D03*
X69400000Y-34887500D03*
X69000000Y-34887500D03*
X68600000Y-34887500D03*
X68200000Y-34887500D03*
X67800000Y-34887500D03*
X67400000Y-34887500D03*
X67000000Y-34887500D03*
X66600000Y-34887500D03*
X66200000Y-34887500D03*
X65800000Y-34887500D03*
X65400000Y-34887500D03*
X65000000Y-34887500D03*
X64600000Y-34887500D03*
X64200000Y-34887500D03*
X63800000Y-34887500D03*
X63400000Y-34887500D03*
X63000000Y-34887500D03*
X62600000Y-34887500D03*
X62200000Y-34887500D03*
X61800000Y-34887500D03*
X61400000Y-34887500D03*
X61000000Y-34887500D03*
X60600000Y-34887500D03*
X60200000Y-34887500D03*
X59800000Y-34887500D03*
X59400000Y-34887500D03*
X59000000Y-34887500D03*
X58600000Y-34887500D03*
X58200000Y-34887500D03*
X57800000Y-34887500D03*
X57400000Y-34887500D03*
X57000000Y-34887500D03*
X56600000Y-34887500D03*
X56200000Y-34887500D03*
X55800000Y-34887500D03*
X55400000Y-34887500D03*
X55000000Y-34887500D03*
X54600000Y-34887500D03*
X54200000Y-34887500D03*
X53800000Y-34887500D03*
X53400000Y-34887500D03*
X53000000Y-34887500D03*
D38*
X50887500Y-37000000D03*
X50887500Y-37400000D03*
X50887500Y-37800000D03*
X50887500Y-38200000D03*
X50887500Y-38600000D03*
X50887500Y-39000000D03*
X50887500Y-39400000D03*
X50887500Y-39800000D03*
X50887500Y-40200000D03*
X50887500Y-40600000D03*
X50887500Y-41000000D03*
X50887500Y-41400000D03*
X50887500Y-41800000D03*
X50887500Y-42200000D03*
X50887500Y-42600000D03*
X50887500Y-43000000D03*
X50887500Y-43400000D03*
X50887500Y-43800000D03*
X50887500Y-44200000D03*
X50887500Y-44600000D03*
X50887500Y-45000000D03*
X50887500Y-45400000D03*
X50887500Y-45800000D03*
X50887500Y-46200000D03*
X50887500Y-46600000D03*
X50887500Y-47000000D03*
X50887500Y-47400000D03*
X50887500Y-47800000D03*
X50887500Y-48200000D03*
X50887500Y-48600000D03*
X50887500Y-49000000D03*
X50887500Y-49400000D03*
X50887500Y-49800000D03*
X50887500Y-50200000D03*
X50887500Y-50600000D03*
X50887500Y-51000000D03*
X50887500Y-51400000D03*
X50887500Y-51800000D03*
X50887500Y-52200000D03*
X50887500Y-52600000D03*
X50887500Y-53000000D03*
X50887500Y-53400000D03*
X50887500Y-53800000D03*
X50887500Y-54200000D03*
D39*
X61600000Y-45600000D03*
%TD*%
D40*
%TO.C,J1*%
X33900000Y-41700000D03*
X35000000Y-41700000D03*
X36100000Y-41700000D03*
X37200000Y-41700000D03*
X38300000Y-41700000D03*
X39400000Y-41700000D03*
X40500000Y-41700000D03*
X41600000Y-41700000D03*
X42700000Y-41700000D03*
D41*
X44100000Y-41100000D03*
D42*
X43850000Y-31500000D03*
D41*
X29250000Y-41100000D03*
D42*
X28350000Y-31500000D03*
%TD*%
D10*
%TO.C,C69*%
X23550000Y-40400000D03*
X25450000Y-40400000D03*
%TD*%
D13*
%TO.C,C61*%
X45820000Y-49100000D03*
X46780000Y-49100000D03*
%TD*%
D11*
%TO.C,C33*%
X54600000Y-59780000D03*
X54600000Y-58820000D03*
%TD*%
D16*
%TO.C,C13*%
X29250000Y-52300000D03*
X27350000Y-52300000D03*
%TD*%
D43*
%TO.C,J7*%
X77320000Y-28630000D03*
D44*
X77320000Y-31170000D03*
%TD*%
D13*
%TO.C,C37*%
X48020000Y-43400000D03*
X48980000Y-43400000D03*
%TD*%
%TO.C,C67*%
X48020000Y-40600000D03*
X48980000Y-40600000D03*
%TD*%
%TO.C,C55*%
X47220000Y-53400000D03*
X48180000Y-53400000D03*
%TD*%
D20*
%TO.C,R26*%
X84400000Y-43590000D03*
X84400000Y-44610000D03*
%TD*%
D14*
%TO.C,C62*%
X76480000Y-43000000D03*
X75520000Y-43000000D03*
%TD*%
D28*
%TO.C,D13*%
X28300000Y-75587500D03*
X28300000Y-74012500D03*
%TD*%
%TO.C,D12*%
X29800000Y-75587500D03*
X29800000Y-74012500D03*
%TD*%
D11*
%TO.C,C68*%
X23400000Y-43280000D03*
X23400000Y-42320000D03*
%TD*%
D45*
%TO.C,J4*%
X22500000Y-36175000D03*
X21700000Y-36175000D03*
X20900000Y-36175000D03*
X20100000Y-36175000D03*
X19300000Y-36175000D03*
D46*
X25350000Y-36075000D03*
X25350000Y-30625000D03*
X16450000Y-30625000D03*
X16450000Y-36075000D03*
%TD*%
D14*
%TO.C,C46*%
X87180000Y-69700000D03*
X86220000Y-69700000D03*
%TD*%
D11*
%TO.C,C19*%
X74500000Y-40680000D03*
X74500000Y-39720000D03*
%TD*%
D16*
%TO.C,C28*%
X29250000Y-61700000D03*
X27350000Y-61700000D03*
%TD*%
D21*
%TO.C,R113*%
X31300000Y-72710000D03*
X31300000Y-71690000D03*
%TD*%
D12*
%TO.C,C65*%
X65270000Y-32510000D03*
X65270000Y-33470000D03*
%TD*%
%TO.C,C56*%
X62000000Y-31920000D03*
X62000000Y-32880000D03*
%TD*%
D11*
%TO.C,C50*%
X61800000Y-59780000D03*
X61800000Y-58820000D03*
%TD*%
D28*
%TO.C,D10*%
X31300000Y-75587500D03*
X31300000Y-74012500D03*
%TD*%
D12*
%TO.C,C41*%
X73800000Y-73820000D03*
X73800000Y-74780000D03*
%TD*%
D43*
%TO.C,J6*%
X46700000Y-59925000D03*
D44*
X46700000Y-62465000D03*
%TD*%
D11*
%TO.C,C35*%
X53600000Y-59780000D03*
X53600000Y-58820000D03*
%TD*%
D21*
%TO.C,R116*%
X28300000Y-72710000D03*
X28300000Y-71690000D03*
%TD*%
D43*
%TO.C,J5*%
X32700000Y-65000000D03*
D44*
X32700000Y-67540000D03*
%TD*%
D11*
%TO.C,C59*%
X56100000Y-59780000D03*
X56100000Y-58820000D03*
%TD*%
D21*
%TO.C,R80*%
X26100000Y-56610000D03*
X26100000Y-55590000D03*
%TD*%
%TO.C,R81*%
X26100000Y-54710000D03*
X26100000Y-53690000D03*
%TD*%
D11*
%TO.C,C36*%
X57100000Y-59780000D03*
X57100000Y-58820000D03*
%TD*%
D13*
%TO.C,C63*%
X48020000Y-48400000D03*
X48980000Y-48400000D03*
%TD*%
D21*
%TO.C,R115*%
X29800000Y-72710000D03*
X29800000Y-71690000D03*
%TD*%
%TO.C,R27*%
X19800000Y-43910000D03*
X19800000Y-42890000D03*
%TD*%
D11*
%TO.C,C60*%
X58100000Y-59780000D03*
X58100000Y-58820000D03*
%TD*%
D14*
%TO.C,C52*%
X76680000Y-50800000D03*
X75720000Y-50800000D03*
%TD*%
D43*
%TO.C,J3*%
X53660000Y-29900000D03*
D44*
X56200000Y-29900000D03*
X58740000Y-29900000D03*
%TD*%
D13*
%TO.C,C54*%
X48020000Y-46000000D03*
X48980000Y-46000000D03*
%TD*%
D20*
%TO.C,R25*%
X82500000Y-43590000D03*
X82500000Y-44610000D03*
%TD*%
D14*
%TO.C,C47*%
X87180000Y-71800000D03*
X86220000Y-71800000D03*
%TD*%
D47*
%TO.C,U6*%
X19800000Y-41537500D03*
X20750000Y-41537500D03*
X21700000Y-41537500D03*
X21700000Y-39262500D03*
X20750000Y-39262500D03*
X19800000Y-39262500D03*
%TD*%
D14*
%TO.C,C66*%
X76480000Y-41800000D03*
X75520000Y-41800000D03*
%TD*%
%TO.C,C48*%
X76080000Y-47100000D03*
X75120000Y-47100000D03*
%TD*%
D48*
%TO.C,U7*%
X31205000Y-54525000D03*
X29935000Y-54525000D03*
X28665000Y-54525000D03*
X27395000Y-54525000D03*
X27395000Y-59475000D03*
X28665000Y-59475000D03*
X29935000Y-59475000D03*
X31205000Y-59475000D03*
%TD*%
D11*
%TO.C,C51*%
X64600000Y-59780000D03*
X64600000Y-58820000D03*
%TD*%
D49*
%TO.C,U4*%
X23400000Y-49200000D03*
X23900000Y-49200000D03*
X24400000Y-49200000D03*
X24900000Y-49200000D03*
X25400000Y-49200000D03*
X25400000Y-44800000D03*
X24900000Y-44800000D03*
X24400000Y-44800000D03*
X23900000Y-44800000D03*
X23400000Y-44800000D03*
%TD*%
D13*
%TO.C,C45*%
X72820000Y-67800000D03*
X73780000Y-67800000D03*
%TD*%
D12*
%TO.C,C32*%
X61650000Y-70070000D03*
X61650000Y-71030000D03*
%TD*%
D13*
%TO.C,C44*%
X72820000Y-62200000D03*
X73780000Y-62200000D03*
%TD*%
D12*
%TO.C,C64*%
X67600000Y-32520000D03*
X67600000Y-33480000D03*
%TD*%
D13*
%TO.C,C57*%
X44420000Y-51600000D03*
X45380000Y-51600000D03*
%TD*%
D14*
%TO.C,C43*%
X87180000Y-63800000D03*
X86220000Y-63800000D03*
%TD*%
D11*
%TO.C,C53*%
X59100000Y-59780000D03*
X59100000Y-58820000D03*
%TD*%
D12*
%TO.C,C34*%
X38150000Y-70070000D03*
X38150000Y-71030000D03*
%TD*%
D13*
%TO.C,C42*%
X72820000Y-71000000D03*
X73780000Y-71000000D03*
%TD*%
D50*
%TO.C,U5*%
X84400000Y-39862500D03*
X83450000Y-39862500D03*
X82500000Y-39862500D03*
X82500000Y-42137500D03*
X83450000Y-42137500D03*
X84400000Y-42137500D03*
%TD*%
D21*
%TO.C,R28*%
X21700000Y-43910000D03*
X21700000Y-42890000D03*
%TD*%
D12*
%TO.C,C58*%
X66600000Y-32520000D03*
X66600000Y-33480000D03*
%TD*%
D20*
%TO.C,R24*%
X18500000Y-38790000D03*
X18500000Y-39810000D03*
%TD*%
D11*
%TO.C,C49*%
X69800000Y-59780000D03*
X69800000Y-58820000D03*
%TD*%
M02*
