%TF.GenerationSoftware,KiCad,Pcbnew,6.0.2+dfsg-1*%
%TF.CreationDate,2022-05-20T21:22:48+03:00*%
%TF.ProjectId,A13_test_project,4131335f-7465-4737-945f-70726f6a6563,rev?*%
%TF.SameCoordinates,Original*%
%TF.FileFunction,Legend,Top*%
%TF.FilePolarity,Positive*%
%FSLAX46Y46*%
G04 Gerber Fmt 4.6, Leading zero omitted, Abs format (unit mm)*
G04 Created by KiCad (PCBNEW 6.0.2+dfsg-1) date 2022-05-20 21:22:48*
%MOMM*%
%LPD*%
G01*
G04 APERTURE LIST*
%ADD10C,0.100000*%
%ADD11C,0.120000*%
%ADD12C,0.150000*%
%ADD13C,0.050000*%
G04 APERTURE END LIST*
D10*
X63800000Y-63800000D02*
X69400000Y-63800000D01*
X69400000Y-63800000D02*
X69400000Y-66000000D01*
X69400000Y-66000000D02*
X63800000Y-66000000D01*
X63800000Y-66000000D02*
X63800000Y-63800000D01*
X76900000Y-40840000D02*
X77010000Y-41160000D01*
X76900000Y-40850000D02*
X77190000Y-40900000D01*
X68000000Y-61400000D02*
X68000000Y-63600000D01*
X61800000Y-62300000D02*
X60000000Y-61400000D01*
X62100000Y-65800000D02*
X63300000Y-65800000D01*
X63300000Y-65800000D02*
X63300000Y-68800000D01*
X63300000Y-68800000D02*
X62100000Y-68800000D01*
X62100000Y-68800000D02*
X62100000Y-65800000D01*
X64900000Y-66000000D02*
X64900000Y-63800000D01*
X63200000Y-61400000D02*
X64300000Y-61400000D01*
X64300000Y-61400000D02*
X64300000Y-63600000D01*
X64300000Y-63600000D02*
X63200000Y-63600000D01*
X63200000Y-63600000D02*
X63200000Y-61400000D01*
X60000000Y-61390000D02*
X60440000Y-61340000D01*
X64700000Y-61400000D02*
X69100000Y-61400000D01*
X69100000Y-61400000D02*
X69100000Y-63600000D01*
X69100000Y-63600000D02*
X64700000Y-63600000D01*
X64700000Y-63600000D02*
X64700000Y-61400000D01*
X60000000Y-61400000D02*
X60200000Y-61800000D01*
X66000000Y-66000000D02*
X66000000Y-63800000D01*
X77690000Y-41480000D02*
X76900000Y-40840000D01*
X68300000Y-66000000D02*
X68300000Y-63800000D01*
X63800000Y-67200000D02*
X69200000Y-67200000D01*
X69200000Y-67200000D02*
X69200000Y-68400000D01*
X69200000Y-68400000D02*
X63800000Y-68400000D01*
X63800000Y-68400000D02*
X63800000Y-67200000D01*
X62100000Y-61400000D02*
X63200000Y-61400000D01*
X63200000Y-61400000D02*
X63200000Y-63600000D01*
X63200000Y-63600000D02*
X62100000Y-63600000D01*
X62100000Y-63600000D02*
X62100000Y-61400000D01*
X66800000Y-68400000D02*
X66800000Y-67200000D01*
D11*
X61600000Y-76100000D02*
G75*
G03*
X61600000Y-76100000I-200000J0D01*
G01*
D10*
X66900000Y-63600000D02*
X66900000Y-61400000D01*
D11*
X51100000Y-56300000D02*
G75*
G03*
X51100000Y-56300000I-200000J0D01*
G01*
D10*
X67200000Y-66000000D02*
X67200000Y-63800000D01*
X53000000Y-58200000D02*
X59800000Y-58200000D01*
X59800000Y-58200000D02*
X59800000Y-64400000D01*
X59800000Y-64400000D02*
X53000000Y-64400000D01*
X53000000Y-64400000D02*
X53000000Y-58200000D01*
X61900000Y-61200000D02*
X69600000Y-61200000D01*
X69600000Y-61200000D02*
X69600000Y-69000000D01*
X69600000Y-69000000D02*
X61900000Y-69000000D01*
X61900000Y-69000000D02*
X61900000Y-61200000D01*
X65800000Y-61400000D02*
X65800000Y-63600000D01*
D11*
%TO.C,C1*%
X38175000Y-45867857D02*
X38139285Y-45903571D01*
X38032142Y-45939285D01*
X37960714Y-45939285D01*
X37853571Y-45903571D01*
X37782142Y-45832142D01*
X37746428Y-45760714D01*
X37710714Y-45617857D01*
X37710714Y-45510714D01*
X37746428Y-45367857D01*
X37782142Y-45296428D01*
X37853571Y-45225000D01*
X37960714Y-45189285D01*
X38032142Y-45189285D01*
X38139285Y-45225000D01*
X38175000Y-45260714D01*
X38889285Y-45939285D02*
X38460714Y-45939285D01*
X38675000Y-45939285D02*
X38675000Y-45189285D01*
X38603571Y-45296428D01*
X38532142Y-45367857D01*
X38460714Y-45403571D01*
%TO.C,C2*%
X69167857Y-65025000D02*
X69203571Y-65060714D01*
X69239285Y-65167857D01*
X69239285Y-65239285D01*
X69203571Y-65346428D01*
X69132142Y-65417857D01*
X69060714Y-65453571D01*
X68917857Y-65489285D01*
X68810714Y-65489285D01*
X68667857Y-65453571D01*
X68596428Y-65417857D01*
X68525000Y-65346428D01*
X68489285Y-65239285D01*
X68489285Y-65167857D01*
X68525000Y-65060714D01*
X68560714Y-65025000D01*
X68560714Y-64739285D02*
X68525000Y-64703571D01*
X68489285Y-64632142D01*
X68489285Y-64453571D01*
X68525000Y-64382142D01*
X68560714Y-64346428D01*
X68632142Y-64310714D01*
X68703571Y-64310714D01*
X68810714Y-64346428D01*
X69239285Y-64775000D01*
X69239285Y-64310714D01*
%TO.C,C3*%
X65767857Y-65125000D02*
X65803571Y-65160714D01*
X65839285Y-65267857D01*
X65839285Y-65339285D01*
X65803571Y-65446428D01*
X65732142Y-65517857D01*
X65660714Y-65553571D01*
X65517857Y-65589285D01*
X65410714Y-65589285D01*
X65267857Y-65553571D01*
X65196428Y-65517857D01*
X65125000Y-65446428D01*
X65089285Y-65339285D01*
X65089285Y-65267857D01*
X65125000Y-65160714D01*
X65160714Y-65125000D01*
X65089285Y-64875000D02*
X65089285Y-64410714D01*
X65375000Y-64660714D01*
X65375000Y-64553571D01*
X65410714Y-64482142D01*
X65446428Y-64446428D01*
X65517857Y-64410714D01*
X65696428Y-64410714D01*
X65767857Y-64446428D01*
X65803571Y-64482142D01*
X65839285Y-64553571D01*
X65839285Y-64767857D01*
X65803571Y-64839285D01*
X65767857Y-64875000D01*
%TO.C,C4*%
X29675000Y-68867857D02*
X29639285Y-68903571D01*
X29532142Y-68939285D01*
X29460714Y-68939285D01*
X29353571Y-68903571D01*
X29282142Y-68832142D01*
X29246428Y-68760714D01*
X29210714Y-68617857D01*
X29210714Y-68510714D01*
X29246428Y-68367857D01*
X29282142Y-68296428D01*
X29353571Y-68225000D01*
X29460714Y-68189285D01*
X29532142Y-68189285D01*
X29639285Y-68225000D01*
X29675000Y-68260714D01*
X30317857Y-68439285D02*
X30317857Y-68939285D01*
X30139285Y-68153571D02*
X29960714Y-68689285D01*
X30425000Y-68689285D01*
%TO.C,C5*%
X71857857Y-29110000D02*
X71893571Y-29145714D01*
X71929285Y-29252857D01*
X71929285Y-29324285D01*
X71893571Y-29431428D01*
X71822142Y-29502857D01*
X71750714Y-29538571D01*
X71607857Y-29574285D01*
X71500714Y-29574285D01*
X71357857Y-29538571D01*
X71286428Y-29502857D01*
X71215000Y-29431428D01*
X71179285Y-29324285D01*
X71179285Y-29252857D01*
X71215000Y-29145714D01*
X71250714Y-29110000D01*
X71179285Y-28431428D02*
X71179285Y-28788571D01*
X71536428Y-28824285D01*
X71500714Y-28788571D01*
X71465000Y-28717142D01*
X71465000Y-28538571D01*
X71500714Y-28467142D01*
X71536428Y-28431428D01*
X71607857Y-28395714D01*
X71786428Y-28395714D01*
X71857857Y-28431428D01*
X71893571Y-28467142D01*
X71929285Y-28538571D01*
X71929285Y-28717142D01*
X71893571Y-28788571D01*
X71857857Y-28824285D01*
%TO.C,C6*%
X78275000Y-42967857D02*
X78239285Y-43003571D01*
X78132142Y-43039285D01*
X78060714Y-43039285D01*
X77953571Y-43003571D01*
X77882142Y-42932142D01*
X77846428Y-42860714D01*
X77810714Y-42717857D01*
X77810714Y-42610714D01*
X77846428Y-42467857D01*
X77882142Y-42396428D01*
X77953571Y-42325000D01*
X78060714Y-42289285D01*
X78132142Y-42289285D01*
X78239285Y-42325000D01*
X78275000Y-42360714D01*
X78917857Y-42289285D02*
X78775000Y-42289285D01*
X78703571Y-42325000D01*
X78667857Y-42360714D01*
X78596428Y-42467857D01*
X78560714Y-42610714D01*
X78560714Y-42896428D01*
X78596428Y-42967857D01*
X78632142Y-43003571D01*
X78703571Y-43039285D01*
X78846428Y-43039285D01*
X78917857Y-43003571D01*
X78953571Y-42967857D01*
X78989285Y-42896428D01*
X78989285Y-42717857D01*
X78953571Y-42646428D01*
X78917857Y-42610714D01*
X78846428Y-42575000D01*
X78703571Y-42575000D01*
X78632142Y-42610714D01*
X78596428Y-42646428D01*
X78560714Y-42717857D01*
%TO.C,C7*%
X68077857Y-28925000D02*
X68113571Y-28960714D01*
X68149285Y-29067857D01*
X68149285Y-29139285D01*
X68113571Y-29246428D01*
X68042142Y-29317857D01*
X67970714Y-29353571D01*
X67827857Y-29389285D01*
X67720714Y-29389285D01*
X67577857Y-29353571D01*
X67506428Y-29317857D01*
X67435000Y-29246428D01*
X67399285Y-29139285D01*
X67399285Y-29067857D01*
X67435000Y-28960714D01*
X67470714Y-28925000D01*
X67399285Y-28675000D02*
X67399285Y-28175000D01*
X68149285Y-28496428D01*
%TO.C,C8*%
X78275000Y-41967857D02*
X78239285Y-42003571D01*
X78132142Y-42039285D01*
X78060714Y-42039285D01*
X77953571Y-42003571D01*
X77882142Y-41932142D01*
X77846428Y-41860714D01*
X77810714Y-41717857D01*
X77810714Y-41610714D01*
X77846428Y-41467857D01*
X77882142Y-41396428D01*
X77953571Y-41325000D01*
X78060714Y-41289285D01*
X78132142Y-41289285D01*
X78239285Y-41325000D01*
X78275000Y-41360714D01*
X78703571Y-41610714D02*
X78632142Y-41575000D01*
X78596428Y-41539285D01*
X78560714Y-41467857D01*
X78560714Y-41432142D01*
X78596428Y-41360714D01*
X78632142Y-41325000D01*
X78703571Y-41289285D01*
X78846428Y-41289285D01*
X78917857Y-41325000D01*
X78953571Y-41360714D01*
X78989285Y-41432142D01*
X78989285Y-41467857D01*
X78953571Y-41539285D01*
X78917857Y-41575000D01*
X78846428Y-41610714D01*
X78703571Y-41610714D01*
X78632142Y-41646428D01*
X78596428Y-41682142D01*
X78560714Y-41753571D01*
X78560714Y-41896428D01*
X78596428Y-41967857D01*
X78632142Y-42003571D01*
X78703571Y-42039285D01*
X78846428Y-42039285D01*
X78917857Y-42003571D01*
X78953571Y-41967857D01*
X78989285Y-41896428D01*
X78989285Y-41753571D01*
X78953571Y-41682142D01*
X78917857Y-41646428D01*
X78846428Y-41610714D01*
%TO.C,C9*%
X74975000Y-35167857D02*
X74939285Y-35203571D01*
X74832142Y-35239285D01*
X74760714Y-35239285D01*
X74653571Y-35203571D01*
X74582142Y-35132142D01*
X74546428Y-35060714D01*
X74510714Y-34917857D01*
X74510714Y-34810714D01*
X74546428Y-34667857D01*
X74582142Y-34596428D01*
X74653571Y-34525000D01*
X74760714Y-34489285D01*
X74832142Y-34489285D01*
X74939285Y-34525000D01*
X74975000Y-34560714D01*
X75332142Y-35239285D02*
X75475000Y-35239285D01*
X75546428Y-35203571D01*
X75582142Y-35167857D01*
X75653571Y-35060714D01*
X75689285Y-34917857D01*
X75689285Y-34632142D01*
X75653571Y-34560714D01*
X75617857Y-34525000D01*
X75546428Y-34489285D01*
X75403571Y-34489285D01*
X75332142Y-34525000D01*
X75296428Y-34560714D01*
X75260714Y-34632142D01*
X75260714Y-34810714D01*
X75296428Y-34882142D01*
X75332142Y-34917857D01*
X75403571Y-34953571D01*
X75546428Y-34953571D01*
X75617857Y-34917857D01*
X75653571Y-34882142D01*
X75689285Y-34810714D01*
%TO.C,C10*%
X42017857Y-60667857D02*
X41982142Y-60703571D01*
X41875000Y-60739285D01*
X41803571Y-60739285D01*
X41696428Y-60703571D01*
X41625000Y-60632142D01*
X41589285Y-60560714D01*
X41553571Y-60417857D01*
X41553571Y-60310714D01*
X41589285Y-60167857D01*
X41625000Y-60096428D01*
X41696428Y-60025000D01*
X41803571Y-59989285D01*
X41875000Y-59989285D01*
X41982142Y-60025000D01*
X42017857Y-60060714D01*
X42732142Y-60739285D02*
X42303571Y-60739285D01*
X42517857Y-60739285D02*
X42517857Y-59989285D01*
X42446428Y-60096428D01*
X42375000Y-60167857D01*
X42303571Y-60203571D01*
X43196428Y-59989285D02*
X43267857Y-59989285D01*
X43339285Y-60025000D01*
X43375000Y-60060714D01*
X43410714Y-60132142D01*
X43446428Y-60275000D01*
X43446428Y-60453571D01*
X43410714Y-60596428D01*
X43375000Y-60667857D01*
X43339285Y-60703571D01*
X43267857Y-60739285D01*
X43196428Y-60739285D01*
X43125000Y-60703571D01*
X43089285Y-60667857D01*
X43053571Y-60596428D01*
X43017857Y-60453571D01*
X43017857Y-60275000D01*
X43053571Y-60132142D01*
X43089285Y-60060714D01*
X43125000Y-60025000D01*
X43196428Y-59989285D01*
%TO.C,C11*%
X77117857Y-37267857D02*
X77082142Y-37303571D01*
X76975000Y-37339285D01*
X76903571Y-37339285D01*
X76796428Y-37303571D01*
X76725000Y-37232142D01*
X76689285Y-37160714D01*
X76653571Y-37017857D01*
X76653571Y-36910714D01*
X76689285Y-36767857D01*
X76725000Y-36696428D01*
X76796428Y-36625000D01*
X76903571Y-36589285D01*
X76975000Y-36589285D01*
X77082142Y-36625000D01*
X77117857Y-36660714D01*
X77832142Y-37339285D02*
X77403571Y-37339285D01*
X77617857Y-37339285D02*
X77617857Y-36589285D01*
X77546428Y-36696428D01*
X77475000Y-36767857D01*
X77403571Y-36803571D01*
X78546428Y-37339285D02*
X78117857Y-37339285D01*
X78332142Y-37339285D02*
X78332142Y-36589285D01*
X78260714Y-36696428D01*
X78189285Y-36767857D01*
X78117857Y-36803571D01*
%TO.C,C12*%
X77117857Y-36067857D02*
X77082142Y-36103571D01*
X76975000Y-36139285D01*
X76903571Y-36139285D01*
X76796428Y-36103571D01*
X76725000Y-36032142D01*
X76689285Y-35960714D01*
X76653571Y-35817857D01*
X76653571Y-35710714D01*
X76689285Y-35567857D01*
X76725000Y-35496428D01*
X76796428Y-35425000D01*
X76903571Y-35389285D01*
X76975000Y-35389285D01*
X77082142Y-35425000D01*
X77117857Y-35460714D01*
X77832142Y-36139285D02*
X77403571Y-36139285D01*
X77617857Y-36139285D02*
X77617857Y-35389285D01*
X77546428Y-35496428D01*
X77475000Y-35567857D01*
X77403571Y-35603571D01*
X78117857Y-35460714D02*
X78153571Y-35425000D01*
X78225000Y-35389285D01*
X78403571Y-35389285D01*
X78475000Y-35425000D01*
X78510714Y-35460714D01*
X78546428Y-35532142D01*
X78546428Y-35603571D01*
X78510714Y-35710714D01*
X78082142Y-36139285D01*
X78546428Y-36139285D01*
%TO.C,C14*%
X13217857Y-69867857D02*
X13182142Y-69903571D01*
X13075000Y-69939285D01*
X13003571Y-69939285D01*
X12896428Y-69903571D01*
X12825000Y-69832142D01*
X12789285Y-69760714D01*
X12753571Y-69617857D01*
X12753571Y-69510714D01*
X12789285Y-69367857D01*
X12825000Y-69296428D01*
X12896428Y-69225000D01*
X13003571Y-69189285D01*
X13075000Y-69189285D01*
X13182142Y-69225000D01*
X13217857Y-69260714D01*
X13932142Y-69939285D02*
X13503571Y-69939285D01*
X13717857Y-69939285D02*
X13717857Y-69189285D01*
X13646428Y-69296428D01*
X13575000Y-69367857D01*
X13503571Y-69403571D01*
X14575000Y-69439285D02*
X14575000Y-69939285D01*
X14396428Y-69153571D02*
X14217857Y-69689285D01*
X14682142Y-69689285D01*
%TO.C,C15*%
X16217857Y-53067857D02*
X16182142Y-53103571D01*
X16075000Y-53139285D01*
X16003571Y-53139285D01*
X15896428Y-53103571D01*
X15825000Y-53032142D01*
X15789285Y-52960714D01*
X15753571Y-52817857D01*
X15753571Y-52710714D01*
X15789285Y-52567857D01*
X15825000Y-52496428D01*
X15896428Y-52425000D01*
X16003571Y-52389285D01*
X16075000Y-52389285D01*
X16182142Y-52425000D01*
X16217857Y-52460714D01*
X16932142Y-53139285D02*
X16503571Y-53139285D01*
X16717857Y-53139285D02*
X16717857Y-52389285D01*
X16646428Y-52496428D01*
X16575000Y-52567857D01*
X16503571Y-52603571D01*
X17610714Y-52389285D02*
X17253571Y-52389285D01*
X17217857Y-52746428D01*
X17253571Y-52710714D01*
X17325000Y-52675000D01*
X17503571Y-52675000D01*
X17575000Y-52710714D01*
X17610714Y-52746428D01*
X17646428Y-52817857D01*
X17646428Y-52996428D01*
X17610714Y-53067857D01*
X17575000Y-53103571D01*
X17503571Y-53139285D01*
X17325000Y-53139285D01*
X17253571Y-53103571D01*
X17217857Y-53067857D01*
%TO.C,C16*%
X13217857Y-62267857D02*
X13182142Y-62303571D01*
X13075000Y-62339285D01*
X13003571Y-62339285D01*
X12896428Y-62303571D01*
X12825000Y-62232142D01*
X12789285Y-62160714D01*
X12753571Y-62017857D01*
X12753571Y-61910714D01*
X12789285Y-61767857D01*
X12825000Y-61696428D01*
X12896428Y-61625000D01*
X13003571Y-61589285D01*
X13075000Y-61589285D01*
X13182142Y-61625000D01*
X13217857Y-61660714D01*
X13932142Y-62339285D02*
X13503571Y-62339285D01*
X13717857Y-62339285D02*
X13717857Y-61589285D01*
X13646428Y-61696428D01*
X13575000Y-61767857D01*
X13503571Y-61803571D01*
X14575000Y-61589285D02*
X14432142Y-61589285D01*
X14360714Y-61625000D01*
X14325000Y-61660714D01*
X14253571Y-61767857D01*
X14217857Y-61910714D01*
X14217857Y-62196428D01*
X14253571Y-62267857D01*
X14289285Y-62303571D01*
X14360714Y-62339285D01*
X14503571Y-62339285D01*
X14575000Y-62303571D01*
X14610714Y-62267857D01*
X14646428Y-62196428D01*
X14646428Y-62017857D01*
X14610714Y-61946428D01*
X14575000Y-61910714D01*
X14503571Y-61875000D01*
X14360714Y-61875000D01*
X14289285Y-61910714D01*
X14253571Y-61946428D01*
X14217857Y-62017857D01*
%TO.C,C17*%
X88867857Y-66782142D02*
X88903571Y-66817857D01*
X88939285Y-66925000D01*
X88939285Y-66996428D01*
X88903571Y-67103571D01*
X88832142Y-67175000D01*
X88760714Y-67210714D01*
X88617857Y-67246428D01*
X88510714Y-67246428D01*
X88367857Y-67210714D01*
X88296428Y-67175000D01*
X88225000Y-67103571D01*
X88189285Y-66996428D01*
X88189285Y-66925000D01*
X88225000Y-66817857D01*
X88260714Y-66782142D01*
X88939285Y-66067857D02*
X88939285Y-66496428D01*
X88939285Y-66282142D02*
X88189285Y-66282142D01*
X88296428Y-66353571D01*
X88367857Y-66425000D01*
X88403571Y-66496428D01*
X88189285Y-65817857D02*
X88189285Y-65317857D01*
X88939285Y-65639285D01*
%TO.C,C18*%
X88867857Y-68982142D02*
X88903571Y-69017857D01*
X88939285Y-69125000D01*
X88939285Y-69196428D01*
X88903571Y-69303571D01*
X88832142Y-69375000D01*
X88760714Y-69410714D01*
X88617857Y-69446428D01*
X88510714Y-69446428D01*
X88367857Y-69410714D01*
X88296428Y-69375000D01*
X88225000Y-69303571D01*
X88189285Y-69196428D01*
X88189285Y-69125000D01*
X88225000Y-69017857D01*
X88260714Y-68982142D01*
X88939285Y-68267857D02*
X88939285Y-68696428D01*
X88939285Y-68482142D02*
X88189285Y-68482142D01*
X88296428Y-68553571D01*
X88367857Y-68625000D01*
X88403571Y-68696428D01*
X88510714Y-67839285D02*
X88475000Y-67910714D01*
X88439285Y-67946428D01*
X88367857Y-67982142D01*
X88332142Y-67982142D01*
X88260714Y-67946428D01*
X88225000Y-67910714D01*
X88189285Y-67839285D01*
X88189285Y-67696428D01*
X88225000Y-67625000D01*
X88260714Y-67589285D01*
X88332142Y-67553571D01*
X88367857Y-67553571D01*
X88439285Y-67589285D01*
X88475000Y-67625000D01*
X88510714Y-67696428D01*
X88510714Y-67839285D01*
X88546428Y-67910714D01*
X88582142Y-67946428D01*
X88653571Y-67982142D01*
X88796428Y-67982142D01*
X88867857Y-67946428D01*
X88903571Y-67910714D01*
X88939285Y-67839285D01*
X88939285Y-67696428D01*
X88903571Y-67625000D01*
X88867857Y-67589285D01*
X88796428Y-67553571D01*
X88653571Y-67553571D01*
X88582142Y-67589285D01*
X88546428Y-67625000D01*
X88510714Y-67696428D01*
%TO.C,C21*%
X14417857Y-75757857D02*
X14382142Y-75793571D01*
X14275000Y-75829285D01*
X14203571Y-75829285D01*
X14096428Y-75793571D01*
X14025000Y-75722142D01*
X13989285Y-75650714D01*
X13953571Y-75507857D01*
X13953571Y-75400714D01*
X13989285Y-75257857D01*
X14025000Y-75186428D01*
X14096428Y-75115000D01*
X14203571Y-75079285D01*
X14275000Y-75079285D01*
X14382142Y-75115000D01*
X14417857Y-75150714D01*
X14703571Y-75150714D02*
X14739285Y-75115000D01*
X14810714Y-75079285D01*
X14989285Y-75079285D01*
X15060714Y-75115000D01*
X15096428Y-75150714D01*
X15132142Y-75222142D01*
X15132142Y-75293571D01*
X15096428Y-75400714D01*
X14667857Y-75829285D01*
X15132142Y-75829285D01*
X15846428Y-75829285D02*
X15417857Y-75829285D01*
X15632142Y-75829285D02*
X15632142Y-75079285D01*
X15560714Y-75186428D01*
X15489285Y-75257857D01*
X15417857Y-75293571D01*
%TO.C,C22*%
X11817857Y-75767857D02*
X11782142Y-75803571D01*
X11675000Y-75839285D01*
X11603571Y-75839285D01*
X11496428Y-75803571D01*
X11425000Y-75732142D01*
X11389285Y-75660714D01*
X11353571Y-75517857D01*
X11353571Y-75410714D01*
X11389285Y-75267857D01*
X11425000Y-75196428D01*
X11496428Y-75125000D01*
X11603571Y-75089285D01*
X11675000Y-75089285D01*
X11782142Y-75125000D01*
X11817857Y-75160714D01*
X12103571Y-75160714D02*
X12139285Y-75125000D01*
X12210714Y-75089285D01*
X12389285Y-75089285D01*
X12460714Y-75125000D01*
X12496428Y-75160714D01*
X12532142Y-75232142D01*
X12532142Y-75303571D01*
X12496428Y-75410714D01*
X12067857Y-75839285D01*
X12532142Y-75839285D01*
X12817857Y-75160714D02*
X12853571Y-75125000D01*
X12925000Y-75089285D01*
X13103571Y-75089285D01*
X13175000Y-75125000D01*
X13210714Y-75160714D01*
X13246428Y-75232142D01*
X13246428Y-75303571D01*
X13210714Y-75410714D01*
X12782142Y-75839285D01*
X13246428Y-75839285D01*
%TO.C,C23*%
X14417857Y-60567857D02*
X14382142Y-60603571D01*
X14275000Y-60639285D01*
X14203571Y-60639285D01*
X14096428Y-60603571D01*
X14025000Y-60532142D01*
X13989285Y-60460714D01*
X13953571Y-60317857D01*
X13953571Y-60210714D01*
X13989285Y-60067857D01*
X14025000Y-59996428D01*
X14096428Y-59925000D01*
X14203571Y-59889285D01*
X14275000Y-59889285D01*
X14382142Y-59925000D01*
X14417857Y-59960714D01*
X14703571Y-59960714D02*
X14739285Y-59925000D01*
X14810714Y-59889285D01*
X14989285Y-59889285D01*
X15060714Y-59925000D01*
X15096428Y-59960714D01*
X15132142Y-60032142D01*
X15132142Y-60103571D01*
X15096428Y-60210714D01*
X14667857Y-60639285D01*
X15132142Y-60639285D01*
X15382142Y-59889285D02*
X15846428Y-59889285D01*
X15596428Y-60175000D01*
X15703571Y-60175000D01*
X15775000Y-60210714D01*
X15810714Y-60246428D01*
X15846428Y-60317857D01*
X15846428Y-60496428D01*
X15810714Y-60567857D01*
X15775000Y-60603571D01*
X15703571Y-60639285D01*
X15489285Y-60639285D01*
X15417857Y-60603571D01*
X15382142Y-60567857D01*
%TO.C,C24*%
X11817857Y-60567857D02*
X11782142Y-60603571D01*
X11675000Y-60639285D01*
X11603571Y-60639285D01*
X11496428Y-60603571D01*
X11425000Y-60532142D01*
X11389285Y-60460714D01*
X11353571Y-60317857D01*
X11353571Y-60210714D01*
X11389285Y-60067857D01*
X11425000Y-59996428D01*
X11496428Y-59925000D01*
X11603571Y-59889285D01*
X11675000Y-59889285D01*
X11782142Y-59925000D01*
X11817857Y-59960714D01*
X12103571Y-59960714D02*
X12139285Y-59925000D01*
X12210714Y-59889285D01*
X12389285Y-59889285D01*
X12460714Y-59925000D01*
X12496428Y-59960714D01*
X12532142Y-60032142D01*
X12532142Y-60103571D01*
X12496428Y-60210714D01*
X12067857Y-60639285D01*
X12532142Y-60639285D01*
X13175000Y-60139285D02*
X13175000Y-60639285D01*
X12996428Y-59853571D02*
X12817857Y-60389285D01*
X13282142Y-60389285D01*
%TO.C,C25*%
X14417857Y-68157857D02*
X14382142Y-68193571D01*
X14275000Y-68229285D01*
X14203571Y-68229285D01*
X14096428Y-68193571D01*
X14025000Y-68122142D01*
X13989285Y-68050714D01*
X13953571Y-67907857D01*
X13953571Y-67800714D01*
X13989285Y-67657857D01*
X14025000Y-67586428D01*
X14096428Y-67515000D01*
X14203571Y-67479285D01*
X14275000Y-67479285D01*
X14382142Y-67515000D01*
X14417857Y-67550714D01*
X14703571Y-67550714D02*
X14739285Y-67515000D01*
X14810714Y-67479285D01*
X14989285Y-67479285D01*
X15060714Y-67515000D01*
X15096428Y-67550714D01*
X15132142Y-67622142D01*
X15132142Y-67693571D01*
X15096428Y-67800714D01*
X14667857Y-68229285D01*
X15132142Y-68229285D01*
X15810714Y-67479285D02*
X15453571Y-67479285D01*
X15417857Y-67836428D01*
X15453571Y-67800714D01*
X15525000Y-67765000D01*
X15703571Y-67765000D01*
X15775000Y-67800714D01*
X15810714Y-67836428D01*
X15846428Y-67907857D01*
X15846428Y-68086428D01*
X15810714Y-68157857D01*
X15775000Y-68193571D01*
X15703571Y-68229285D01*
X15525000Y-68229285D01*
X15453571Y-68193571D01*
X15417857Y-68157857D01*
%TO.C,C26*%
X11817857Y-68167857D02*
X11782142Y-68203571D01*
X11675000Y-68239285D01*
X11603571Y-68239285D01*
X11496428Y-68203571D01*
X11425000Y-68132142D01*
X11389285Y-68060714D01*
X11353571Y-67917857D01*
X11353571Y-67810714D01*
X11389285Y-67667857D01*
X11425000Y-67596428D01*
X11496428Y-67525000D01*
X11603571Y-67489285D01*
X11675000Y-67489285D01*
X11782142Y-67525000D01*
X11817857Y-67560714D01*
X12103571Y-67560714D02*
X12139285Y-67525000D01*
X12210714Y-67489285D01*
X12389285Y-67489285D01*
X12460714Y-67525000D01*
X12496428Y-67560714D01*
X12532142Y-67632142D01*
X12532142Y-67703571D01*
X12496428Y-67810714D01*
X12067857Y-68239285D01*
X12532142Y-68239285D01*
X13175000Y-67489285D02*
X13032142Y-67489285D01*
X12960714Y-67525000D01*
X12925000Y-67560714D01*
X12853571Y-67667857D01*
X12817857Y-67810714D01*
X12817857Y-68096428D01*
X12853571Y-68167857D01*
X12889285Y-68203571D01*
X12960714Y-68239285D01*
X13103571Y-68239285D01*
X13175000Y-68203571D01*
X13210714Y-68167857D01*
X13246428Y-68096428D01*
X13246428Y-67917857D01*
X13210714Y-67846428D01*
X13175000Y-67810714D01*
X13103571Y-67775000D01*
X12960714Y-67775000D01*
X12889285Y-67810714D01*
X12853571Y-67846428D01*
X12817857Y-67917857D01*
%TO.C,C27*%
X67017857Y-74967857D02*
X66982142Y-75003571D01*
X66875000Y-75039285D01*
X66803571Y-75039285D01*
X66696428Y-75003571D01*
X66625000Y-74932142D01*
X66589285Y-74860714D01*
X66553571Y-74717857D01*
X66553571Y-74610714D01*
X66589285Y-74467857D01*
X66625000Y-74396428D01*
X66696428Y-74325000D01*
X66803571Y-74289285D01*
X66875000Y-74289285D01*
X66982142Y-74325000D01*
X67017857Y-74360714D01*
X67303571Y-74360714D02*
X67339285Y-74325000D01*
X67410714Y-74289285D01*
X67589285Y-74289285D01*
X67660714Y-74325000D01*
X67696428Y-74360714D01*
X67732142Y-74432142D01*
X67732142Y-74503571D01*
X67696428Y-74610714D01*
X67267857Y-75039285D01*
X67732142Y-75039285D01*
X67982142Y-74289285D02*
X68482142Y-74289285D01*
X68160714Y-75039285D01*
%TO.C,C29*%
X22017857Y-76567857D02*
X21982142Y-76603571D01*
X21875000Y-76639285D01*
X21803571Y-76639285D01*
X21696428Y-76603571D01*
X21625000Y-76532142D01*
X21589285Y-76460714D01*
X21553571Y-76317857D01*
X21553571Y-76210714D01*
X21589285Y-76067857D01*
X21625000Y-75996428D01*
X21696428Y-75925000D01*
X21803571Y-75889285D01*
X21875000Y-75889285D01*
X21982142Y-75925000D01*
X22017857Y-75960714D01*
X22303571Y-75960714D02*
X22339285Y-75925000D01*
X22410714Y-75889285D01*
X22589285Y-75889285D01*
X22660714Y-75925000D01*
X22696428Y-75960714D01*
X22732142Y-76032142D01*
X22732142Y-76103571D01*
X22696428Y-76210714D01*
X22267857Y-76639285D01*
X22732142Y-76639285D01*
X23089285Y-76639285D02*
X23232142Y-76639285D01*
X23303571Y-76603571D01*
X23339285Y-76567857D01*
X23410714Y-76460714D01*
X23446428Y-76317857D01*
X23446428Y-76032142D01*
X23410714Y-75960714D01*
X23375000Y-75925000D01*
X23303571Y-75889285D01*
X23160714Y-75889285D01*
X23089285Y-75925000D01*
X23053571Y-75960714D01*
X23017857Y-76032142D01*
X23017857Y-76210714D01*
X23053571Y-76282142D01*
X23089285Y-76317857D01*
X23160714Y-76353571D01*
X23303571Y-76353571D01*
X23375000Y-76317857D01*
X23410714Y-76282142D01*
X23446428Y-76210714D01*
%TO.C,C30*%
X24717857Y-59167857D02*
X24682142Y-59203571D01*
X24575000Y-59239285D01*
X24503571Y-59239285D01*
X24396428Y-59203571D01*
X24325000Y-59132142D01*
X24289285Y-59060714D01*
X24253571Y-58917857D01*
X24253571Y-58810714D01*
X24289285Y-58667857D01*
X24325000Y-58596428D01*
X24396428Y-58525000D01*
X24503571Y-58489285D01*
X24575000Y-58489285D01*
X24682142Y-58525000D01*
X24717857Y-58560714D01*
X24967857Y-58489285D02*
X25432142Y-58489285D01*
X25182142Y-58775000D01*
X25289285Y-58775000D01*
X25360714Y-58810714D01*
X25396428Y-58846428D01*
X25432142Y-58917857D01*
X25432142Y-59096428D01*
X25396428Y-59167857D01*
X25360714Y-59203571D01*
X25289285Y-59239285D01*
X25075000Y-59239285D01*
X25003571Y-59203571D01*
X24967857Y-59167857D01*
X25896428Y-58489285D02*
X25967857Y-58489285D01*
X26039285Y-58525000D01*
X26075000Y-58560714D01*
X26110714Y-58632142D01*
X26146428Y-58775000D01*
X26146428Y-58953571D01*
X26110714Y-59096428D01*
X26075000Y-59167857D01*
X26039285Y-59203571D01*
X25967857Y-59239285D01*
X25896428Y-59239285D01*
X25825000Y-59203571D01*
X25789285Y-59167857D01*
X25753571Y-59096428D01*
X25717857Y-58953571D01*
X25717857Y-58775000D01*
X25753571Y-58632142D01*
X25789285Y-58560714D01*
X25825000Y-58525000D01*
X25896428Y-58489285D01*
%TO.C,C31*%
X24817857Y-67467857D02*
X24782142Y-67503571D01*
X24675000Y-67539285D01*
X24603571Y-67539285D01*
X24496428Y-67503571D01*
X24425000Y-67432142D01*
X24389285Y-67360714D01*
X24353571Y-67217857D01*
X24353571Y-67110714D01*
X24389285Y-66967857D01*
X24425000Y-66896428D01*
X24496428Y-66825000D01*
X24603571Y-66789285D01*
X24675000Y-66789285D01*
X24782142Y-66825000D01*
X24817857Y-66860714D01*
X25067857Y-66789285D02*
X25532142Y-66789285D01*
X25282142Y-67075000D01*
X25389285Y-67075000D01*
X25460714Y-67110714D01*
X25496428Y-67146428D01*
X25532142Y-67217857D01*
X25532142Y-67396428D01*
X25496428Y-67467857D01*
X25460714Y-67503571D01*
X25389285Y-67539285D01*
X25175000Y-67539285D01*
X25103571Y-67503571D01*
X25067857Y-67467857D01*
X26246428Y-67539285D02*
X25817857Y-67539285D01*
X26032142Y-67539285D02*
X26032142Y-66789285D01*
X25960714Y-66896428D01*
X25889285Y-66967857D01*
X25817857Y-67003571D01*
%TO.C,D1*%
X41446428Y-48039285D02*
X41446428Y-47289285D01*
X41625000Y-47289285D01*
X41732142Y-47325000D01*
X41803571Y-47396428D01*
X41839285Y-47467857D01*
X41875000Y-47610714D01*
X41875000Y-47717857D01*
X41839285Y-47860714D01*
X41803571Y-47932142D01*
X41732142Y-48003571D01*
X41625000Y-48039285D01*
X41446428Y-48039285D01*
X42589285Y-48039285D02*
X42160714Y-48039285D01*
X42375000Y-48039285D02*
X42375000Y-47289285D01*
X42303571Y-47396428D01*
X42232142Y-47467857D01*
X42160714Y-47503571D01*
%TO.C,D2*%
X61039285Y-28453571D02*
X60289285Y-28453571D01*
X60289285Y-28275000D01*
X60325000Y-28167857D01*
X60396428Y-28096428D01*
X60467857Y-28060714D01*
X60610714Y-28025000D01*
X60717857Y-28025000D01*
X60860714Y-28060714D01*
X60932142Y-28096428D01*
X61003571Y-28167857D01*
X61039285Y-28275000D01*
X61039285Y-28453571D01*
X60360714Y-27739285D02*
X60325000Y-27703571D01*
X60289285Y-27632142D01*
X60289285Y-27453571D01*
X60325000Y-27382142D01*
X60360714Y-27346428D01*
X60432142Y-27310714D01*
X60503571Y-27310714D01*
X60610714Y-27346428D01*
X61039285Y-27775000D01*
X61039285Y-27310714D01*
%TO.C,D3*%
X62139285Y-28453571D02*
X61389285Y-28453571D01*
X61389285Y-28275000D01*
X61425000Y-28167857D01*
X61496428Y-28096428D01*
X61567857Y-28060714D01*
X61710714Y-28025000D01*
X61817857Y-28025000D01*
X61960714Y-28060714D01*
X62032142Y-28096428D01*
X62103571Y-28167857D01*
X62139285Y-28275000D01*
X62139285Y-28453571D01*
X61389285Y-27775000D02*
X61389285Y-27310714D01*
X61675000Y-27560714D01*
X61675000Y-27453571D01*
X61710714Y-27382142D01*
X61746428Y-27346428D01*
X61817857Y-27310714D01*
X61996428Y-27310714D01*
X62067857Y-27346428D01*
X62103571Y-27382142D01*
X62139285Y-27453571D01*
X62139285Y-27667857D01*
X62103571Y-27739285D01*
X62067857Y-27775000D01*
%TO.C,R1*%
X44475000Y-47339285D02*
X44225000Y-46982142D01*
X44046428Y-47339285D02*
X44046428Y-46589285D01*
X44332142Y-46589285D01*
X44403571Y-46625000D01*
X44439285Y-46660714D01*
X44475000Y-46732142D01*
X44475000Y-46839285D01*
X44439285Y-46910714D01*
X44403571Y-46946428D01*
X44332142Y-46982142D01*
X44046428Y-46982142D01*
X45189285Y-47339285D02*
X44760714Y-47339285D01*
X44975000Y-47339285D02*
X44975000Y-46589285D01*
X44903571Y-46696428D01*
X44832142Y-46767857D01*
X44760714Y-46803571D01*
%TO.C,R2*%
X36439285Y-45825000D02*
X36082142Y-46075000D01*
X36439285Y-46253571D02*
X35689285Y-46253571D01*
X35689285Y-45967857D01*
X35725000Y-45896428D01*
X35760714Y-45860714D01*
X35832142Y-45825000D01*
X35939285Y-45825000D01*
X36010714Y-45860714D01*
X36046428Y-45896428D01*
X36082142Y-45967857D01*
X36082142Y-46253571D01*
X35760714Y-45539285D02*
X35725000Y-45503571D01*
X35689285Y-45432142D01*
X35689285Y-45253571D01*
X35725000Y-45182142D01*
X35760714Y-45146428D01*
X35832142Y-45110714D01*
X35903571Y-45110714D01*
X36010714Y-45146428D01*
X36439285Y-45575000D01*
X36439285Y-45110714D01*
%TO.C,R3*%
X41939285Y-45825000D02*
X41582142Y-46075000D01*
X41939285Y-46253571D02*
X41189285Y-46253571D01*
X41189285Y-45967857D01*
X41225000Y-45896428D01*
X41260714Y-45860714D01*
X41332142Y-45825000D01*
X41439285Y-45825000D01*
X41510714Y-45860714D01*
X41546428Y-45896428D01*
X41582142Y-45967857D01*
X41582142Y-46253571D01*
X41189285Y-45575000D02*
X41189285Y-45110714D01*
X41475000Y-45360714D01*
X41475000Y-45253571D01*
X41510714Y-45182142D01*
X41546428Y-45146428D01*
X41617857Y-45110714D01*
X41796428Y-45110714D01*
X41867857Y-45146428D01*
X41903571Y-45182142D01*
X41939285Y-45253571D01*
X41939285Y-45467857D01*
X41903571Y-45539285D01*
X41867857Y-45575000D01*
%TO.C,R4*%
X40839285Y-45825000D02*
X40482142Y-46075000D01*
X40839285Y-46253571D02*
X40089285Y-46253571D01*
X40089285Y-45967857D01*
X40125000Y-45896428D01*
X40160714Y-45860714D01*
X40232142Y-45825000D01*
X40339285Y-45825000D01*
X40410714Y-45860714D01*
X40446428Y-45896428D01*
X40482142Y-45967857D01*
X40482142Y-46253571D01*
X40339285Y-45182142D02*
X40839285Y-45182142D01*
X40053571Y-45360714D02*
X40589285Y-45539285D01*
X40589285Y-45075000D01*
%TO.C,R5*%
X35339285Y-45825000D02*
X34982142Y-46075000D01*
X35339285Y-46253571D02*
X34589285Y-46253571D01*
X34589285Y-45967857D01*
X34625000Y-45896428D01*
X34660714Y-45860714D01*
X34732142Y-45825000D01*
X34839285Y-45825000D01*
X34910714Y-45860714D01*
X34946428Y-45896428D01*
X34982142Y-45967857D01*
X34982142Y-46253571D01*
X34589285Y-45146428D02*
X34589285Y-45503571D01*
X34946428Y-45539285D01*
X34910714Y-45503571D01*
X34875000Y-45432142D01*
X34875000Y-45253571D01*
X34910714Y-45182142D01*
X34946428Y-45146428D01*
X35017857Y-45110714D01*
X35196428Y-45110714D01*
X35267857Y-45146428D01*
X35303571Y-45182142D01*
X35339285Y-45253571D01*
X35339285Y-45432142D01*
X35303571Y-45503571D01*
X35267857Y-45539285D01*
%TO.C,R6*%
X34239285Y-45825000D02*
X33882142Y-46075000D01*
X34239285Y-46253571D02*
X33489285Y-46253571D01*
X33489285Y-45967857D01*
X33525000Y-45896428D01*
X33560714Y-45860714D01*
X33632142Y-45825000D01*
X33739285Y-45825000D01*
X33810714Y-45860714D01*
X33846428Y-45896428D01*
X33882142Y-45967857D01*
X33882142Y-46253571D01*
X33489285Y-45182142D02*
X33489285Y-45325000D01*
X33525000Y-45396428D01*
X33560714Y-45432142D01*
X33667857Y-45503571D01*
X33810714Y-45539285D01*
X34096428Y-45539285D01*
X34167857Y-45503571D01*
X34203571Y-45467857D01*
X34239285Y-45396428D01*
X34239285Y-45253571D01*
X34203571Y-45182142D01*
X34167857Y-45146428D01*
X34096428Y-45110714D01*
X33917857Y-45110714D01*
X33846428Y-45146428D01*
X33810714Y-45182142D01*
X33775000Y-45253571D01*
X33775000Y-45396428D01*
X33810714Y-45467857D01*
X33846428Y-45503571D01*
X33917857Y-45539285D01*
%TO.C,R7*%
X45875000Y-44739285D02*
X45625000Y-44382142D01*
X45446428Y-44739285D02*
X45446428Y-43989285D01*
X45732142Y-43989285D01*
X45803571Y-44025000D01*
X45839285Y-44060714D01*
X45875000Y-44132142D01*
X45875000Y-44239285D01*
X45839285Y-44310714D01*
X45803571Y-44346428D01*
X45732142Y-44382142D01*
X45446428Y-44382142D01*
X46125000Y-43989285D02*
X46625000Y-43989285D01*
X46303571Y-44739285D01*
%TO.C,R8*%
X81339285Y-41525000D02*
X80982142Y-41775000D01*
X81339285Y-41953571D02*
X80589285Y-41953571D01*
X80589285Y-41667857D01*
X80625000Y-41596428D01*
X80660714Y-41560714D01*
X80732142Y-41525000D01*
X80839285Y-41525000D01*
X80910714Y-41560714D01*
X80946428Y-41596428D01*
X80982142Y-41667857D01*
X80982142Y-41953571D01*
X80910714Y-41096428D02*
X80875000Y-41167857D01*
X80839285Y-41203571D01*
X80767857Y-41239285D01*
X80732142Y-41239285D01*
X80660714Y-41203571D01*
X80625000Y-41167857D01*
X80589285Y-41096428D01*
X80589285Y-40953571D01*
X80625000Y-40882142D01*
X80660714Y-40846428D01*
X80732142Y-40810714D01*
X80767857Y-40810714D01*
X80839285Y-40846428D01*
X80875000Y-40882142D01*
X80910714Y-40953571D01*
X80910714Y-41096428D01*
X80946428Y-41167857D01*
X80982142Y-41203571D01*
X81053571Y-41239285D01*
X81196428Y-41239285D01*
X81267857Y-41203571D01*
X81303571Y-41167857D01*
X81339285Y-41096428D01*
X81339285Y-40953571D01*
X81303571Y-40882142D01*
X81267857Y-40846428D01*
X81196428Y-40810714D01*
X81053571Y-40810714D01*
X80982142Y-40846428D01*
X80946428Y-40882142D01*
X80910714Y-40953571D01*
%TO.C,R9*%
X83439285Y-37825000D02*
X83082142Y-38075000D01*
X83439285Y-38253571D02*
X82689285Y-38253571D01*
X82689285Y-37967857D01*
X82725000Y-37896428D01*
X82760714Y-37860714D01*
X82832142Y-37825000D01*
X82939285Y-37825000D01*
X83010714Y-37860714D01*
X83046428Y-37896428D01*
X83082142Y-37967857D01*
X83082142Y-38253571D01*
X83439285Y-37467857D02*
X83439285Y-37325000D01*
X83403571Y-37253571D01*
X83367857Y-37217857D01*
X83260714Y-37146428D01*
X83117857Y-37110714D01*
X82832142Y-37110714D01*
X82760714Y-37146428D01*
X82725000Y-37182142D01*
X82689285Y-37253571D01*
X82689285Y-37396428D01*
X82725000Y-37467857D01*
X82760714Y-37503571D01*
X82832142Y-37539285D01*
X83010714Y-37539285D01*
X83082142Y-37503571D01*
X83117857Y-37467857D01*
X83153571Y-37396428D01*
X83153571Y-37253571D01*
X83117857Y-37182142D01*
X83082142Y-37146428D01*
X83010714Y-37110714D01*
%TO.C,R10*%
X64739285Y-65382142D02*
X64382142Y-65632142D01*
X64739285Y-65810714D02*
X63989285Y-65810714D01*
X63989285Y-65525000D01*
X64025000Y-65453571D01*
X64060714Y-65417857D01*
X64132142Y-65382142D01*
X64239285Y-65382142D01*
X64310714Y-65417857D01*
X64346428Y-65453571D01*
X64382142Y-65525000D01*
X64382142Y-65810714D01*
X64739285Y-64667857D02*
X64739285Y-65096428D01*
X64739285Y-64882142D02*
X63989285Y-64882142D01*
X64096428Y-64953571D01*
X64167857Y-65025000D01*
X64203571Y-65096428D01*
X63989285Y-64203571D02*
X63989285Y-64132142D01*
X64025000Y-64060714D01*
X64060714Y-64025000D01*
X64132142Y-63989285D01*
X64275000Y-63953571D01*
X64453571Y-63953571D01*
X64596428Y-63989285D01*
X64667857Y-64025000D01*
X64703571Y-64060714D01*
X64739285Y-64132142D01*
X64739285Y-64203571D01*
X64703571Y-64275000D01*
X64667857Y-64310714D01*
X64596428Y-64346428D01*
X64453571Y-64382142D01*
X64275000Y-64382142D01*
X64132142Y-64346428D01*
X64060714Y-64310714D01*
X64025000Y-64275000D01*
X63989285Y-64203571D01*
%TO.C,R11*%
X61039285Y-30382142D02*
X60682142Y-30632142D01*
X61039285Y-30810714D02*
X60289285Y-30810714D01*
X60289285Y-30525000D01*
X60325000Y-30453571D01*
X60360714Y-30417857D01*
X60432142Y-30382142D01*
X60539285Y-30382142D01*
X60610714Y-30417857D01*
X60646428Y-30453571D01*
X60682142Y-30525000D01*
X60682142Y-30810714D01*
X61039285Y-29667857D02*
X61039285Y-30096428D01*
X61039285Y-29882142D02*
X60289285Y-29882142D01*
X60396428Y-29953571D01*
X60467857Y-30025000D01*
X60503571Y-30096428D01*
X61039285Y-28953571D02*
X61039285Y-29382142D01*
X61039285Y-29167857D02*
X60289285Y-29167857D01*
X60396428Y-29239285D01*
X60467857Y-29310714D01*
X60503571Y-29382142D01*
%TO.C,R12*%
X68139285Y-65382142D02*
X67782142Y-65632142D01*
X68139285Y-65810714D02*
X67389285Y-65810714D01*
X67389285Y-65525000D01*
X67425000Y-65453571D01*
X67460714Y-65417857D01*
X67532142Y-65382142D01*
X67639285Y-65382142D01*
X67710714Y-65417857D01*
X67746428Y-65453571D01*
X67782142Y-65525000D01*
X67782142Y-65810714D01*
X68139285Y-64667857D02*
X68139285Y-65096428D01*
X68139285Y-64882142D02*
X67389285Y-64882142D01*
X67496428Y-64953571D01*
X67567857Y-65025000D01*
X67603571Y-65096428D01*
X67460714Y-64382142D02*
X67425000Y-64346428D01*
X67389285Y-64275000D01*
X67389285Y-64096428D01*
X67425000Y-64025000D01*
X67460714Y-63989285D01*
X67532142Y-63953571D01*
X67603571Y-63953571D01*
X67710714Y-63989285D01*
X68139285Y-64417857D01*
X68139285Y-63953571D01*
%TO.C,R13*%
X67039285Y-65382142D02*
X66682142Y-65632142D01*
X67039285Y-65810714D02*
X66289285Y-65810714D01*
X66289285Y-65525000D01*
X66325000Y-65453571D01*
X66360714Y-65417857D01*
X66432142Y-65382142D01*
X66539285Y-65382142D01*
X66610714Y-65417857D01*
X66646428Y-65453571D01*
X66682142Y-65525000D01*
X66682142Y-65810714D01*
X67039285Y-64667857D02*
X67039285Y-65096428D01*
X67039285Y-64882142D02*
X66289285Y-64882142D01*
X66396428Y-64953571D01*
X66467857Y-65025000D01*
X66503571Y-65096428D01*
X66289285Y-64417857D02*
X66289285Y-63953571D01*
X66575000Y-64203571D01*
X66575000Y-64096428D01*
X66610714Y-64025000D01*
X66646428Y-63989285D01*
X66717857Y-63953571D01*
X66896428Y-63953571D01*
X66967857Y-63989285D01*
X67003571Y-64025000D01*
X67039285Y-64096428D01*
X67039285Y-64310714D01*
X67003571Y-64382142D01*
X66967857Y-64417857D01*
%TO.C,R14*%
X27017857Y-64239285D02*
X26767857Y-63882142D01*
X26589285Y-64239285D02*
X26589285Y-63489285D01*
X26875000Y-63489285D01*
X26946428Y-63525000D01*
X26982142Y-63560714D01*
X27017857Y-63632142D01*
X27017857Y-63739285D01*
X26982142Y-63810714D01*
X26946428Y-63846428D01*
X26875000Y-63882142D01*
X26589285Y-63882142D01*
X27732142Y-64239285D02*
X27303571Y-64239285D01*
X27517857Y-64239285D02*
X27517857Y-63489285D01*
X27446428Y-63596428D01*
X27375000Y-63667857D01*
X27303571Y-63703571D01*
X28375000Y-63739285D02*
X28375000Y-64239285D01*
X28196428Y-63453571D02*
X28017857Y-63989285D01*
X28482142Y-63989285D01*
%TO.C,R15*%
X62139285Y-30382142D02*
X61782142Y-30632142D01*
X62139285Y-30810714D02*
X61389285Y-30810714D01*
X61389285Y-30525000D01*
X61425000Y-30453571D01*
X61460714Y-30417857D01*
X61532142Y-30382142D01*
X61639285Y-30382142D01*
X61710714Y-30417857D01*
X61746428Y-30453571D01*
X61782142Y-30525000D01*
X61782142Y-30810714D01*
X62139285Y-29667857D02*
X62139285Y-30096428D01*
X62139285Y-29882142D02*
X61389285Y-29882142D01*
X61496428Y-29953571D01*
X61567857Y-30025000D01*
X61603571Y-30096428D01*
X61389285Y-28989285D02*
X61389285Y-29346428D01*
X61746428Y-29382142D01*
X61710714Y-29346428D01*
X61675000Y-29275000D01*
X61675000Y-29096428D01*
X61710714Y-29025000D01*
X61746428Y-28989285D01*
X61817857Y-28953571D01*
X61996428Y-28953571D01*
X62067857Y-28989285D01*
X62103571Y-29025000D01*
X62139285Y-29096428D01*
X62139285Y-29275000D01*
X62103571Y-29346428D01*
X62067857Y-29382142D01*
%TO.C,R16*%
X27017857Y-65339285D02*
X26767857Y-64982142D01*
X26589285Y-65339285D02*
X26589285Y-64589285D01*
X26875000Y-64589285D01*
X26946428Y-64625000D01*
X26982142Y-64660714D01*
X27017857Y-64732142D01*
X27017857Y-64839285D01*
X26982142Y-64910714D01*
X26946428Y-64946428D01*
X26875000Y-64982142D01*
X26589285Y-64982142D01*
X27732142Y-65339285D02*
X27303571Y-65339285D01*
X27517857Y-65339285D02*
X27517857Y-64589285D01*
X27446428Y-64696428D01*
X27375000Y-64767857D01*
X27303571Y-64803571D01*
X28375000Y-64589285D02*
X28232142Y-64589285D01*
X28160714Y-64625000D01*
X28125000Y-64660714D01*
X28053571Y-64767857D01*
X28017857Y-64910714D01*
X28017857Y-65196428D01*
X28053571Y-65267857D01*
X28089285Y-65303571D01*
X28160714Y-65339285D01*
X28303571Y-65339285D01*
X28375000Y-65303571D01*
X28410714Y-65267857D01*
X28446428Y-65196428D01*
X28446428Y-65017857D01*
X28410714Y-64946428D01*
X28375000Y-64910714D01*
X28303571Y-64875000D01*
X28160714Y-64875000D01*
X28089285Y-64910714D01*
X28053571Y-64946428D01*
X28017857Y-65017857D01*
%TO.C,R17*%
X44617857Y-57739285D02*
X44367857Y-57382142D01*
X44189285Y-57739285D02*
X44189285Y-56989285D01*
X44475000Y-56989285D01*
X44546428Y-57025000D01*
X44582142Y-57060714D01*
X44617857Y-57132142D01*
X44617857Y-57239285D01*
X44582142Y-57310714D01*
X44546428Y-57346428D01*
X44475000Y-57382142D01*
X44189285Y-57382142D01*
X45332142Y-57739285D02*
X44903571Y-57739285D01*
X45117857Y-57739285D02*
X45117857Y-56989285D01*
X45046428Y-57096428D01*
X44975000Y-57167857D01*
X44903571Y-57203571D01*
X45582142Y-56989285D02*
X46082142Y-56989285D01*
X45760714Y-57739285D01*
%TO.C,R18*%
X41917857Y-62639285D02*
X41667857Y-62282142D01*
X41489285Y-62639285D02*
X41489285Y-61889285D01*
X41775000Y-61889285D01*
X41846428Y-61925000D01*
X41882142Y-61960714D01*
X41917857Y-62032142D01*
X41917857Y-62139285D01*
X41882142Y-62210714D01*
X41846428Y-62246428D01*
X41775000Y-62282142D01*
X41489285Y-62282142D01*
X42632142Y-62639285D02*
X42203571Y-62639285D01*
X42417857Y-62639285D02*
X42417857Y-61889285D01*
X42346428Y-61996428D01*
X42275000Y-62067857D01*
X42203571Y-62103571D01*
X43060714Y-62210714D02*
X42989285Y-62175000D01*
X42953571Y-62139285D01*
X42917857Y-62067857D01*
X42917857Y-62032142D01*
X42953571Y-61960714D01*
X42989285Y-61925000D01*
X43060714Y-61889285D01*
X43203571Y-61889285D01*
X43275000Y-61925000D01*
X43310714Y-61960714D01*
X43346428Y-62032142D01*
X43346428Y-62067857D01*
X43310714Y-62139285D01*
X43275000Y-62175000D01*
X43203571Y-62210714D01*
X43060714Y-62210714D01*
X42989285Y-62246428D01*
X42953571Y-62282142D01*
X42917857Y-62353571D01*
X42917857Y-62496428D01*
X42953571Y-62567857D01*
X42989285Y-62603571D01*
X43060714Y-62639285D01*
X43203571Y-62639285D01*
X43275000Y-62603571D01*
X43310714Y-62567857D01*
X43346428Y-62496428D01*
X43346428Y-62353571D01*
X43310714Y-62282142D01*
X43275000Y-62246428D01*
X43203571Y-62210714D01*
%TO.C,R19*%
X36039285Y-59982142D02*
X35682142Y-60232142D01*
X36039285Y-60410714D02*
X35289285Y-60410714D01*
X35289285Y-60125000D01*
X35325000Y-60053571D01*
X35360714Y-60017857D01*
X35432142Y-59982142D01*
X35539285Y-59982142D01*
X35610714Y-60017857D01*
X35646428Y-60053571D01*
X35682142Y-60125000D01*
X35682142Y-60410714D01*
X36039285Y-59267857D02*
X36039285Y-59696428D01*
X36039285Y-59482142D02*
X35289285Y-59482142D01*
X35396428Y-59553571D01*
X35467857Y-59625000D01*
X35503571Y-59696428D01*
X36039285Y-58910714D02*
X36039285Y-58767857D01*
X36003571Y-58696428D01*
X35967857Y-58660714D01*
X35860714Y-58589285D01*
X35717857Y-58553571D01*
X35432142Y-58553571D01*
X35360714Y-58589285D01*
X35325000Y-58625000D01*
X35289285Y-58696428D01*
X35289285Y-58839285D01*
X35325000Y-58910714D01*
X35360714Y-58946428D01*
X35432142Y-58982142D01*
X35610714Y-58982142D01*
X35682142Y-58946428D01*
X35717857Y-58910714D01*
X35753571Y-58839285D01*
X35753571Y-58696428D01*
X35717857Y-58625000D01*
X35682142Y-58589285D01*
X35610714Y-58553571D01*
%TO.C,R20*%
X77117857Y-35139285D02*
X76867857Y-34782142D01*
X76689285Y-35139285D02*
X76689285Y-34389285D01*
X76975000Y-34389285D01*
X77046428Y-34425000D01*
X77082142Y-34460714D01*
X77117857Y-34532142D01*
X77117857Y-34639285D01*
X77082142Y-34710714D01*
X77046428Y-34746428D01*
X76975000Y-34782142D01*
X76689285Y-34782142D01*
X77403571Y-34460714D02*
X77439285Y-34425000D01*
X77510714Y-34389285D01*
X77689285Y-34389285D01*
X77760714Y-34425000D01*
X77796428Y-34460714D01*
X77832142Y-34532142D01*
X77832142Y-34603571D01*
X77796428Y-34710714D01*
X77367857Y-35139285D01*
X77832142Y-35139285D01*
X78296428Y-34389285D02*
X78367857Y-34389285D01*
X78439285Y-34425000D01*
X78475000Y-34460714D01*
X78510714Y-34532142D01*
X78546428Y-34675000D01*
X78546428Y-34853571D01*
X78510714Y-34996428D01*
X78475000Y-35067857D01*
X78439285Y-35103571D01*
X78367857Y-35139285D01*
X78296428Y-35139285D01*
X78225000Y-35103571D01*
X78189285Y-35067857D01*
X78153571Y-34996428D01*
X78117857Y-34853571D01*
X78117857Y-34675000D01*
X78153571Y-34532142D01*
X78189285Y-34460714D01*
X78225000Y-34425000D01*
X78296428Y-34389285D01*
%TO.C,R21*%
X34739285Y-59982142D02*
X34382142Y-60232142D01*
X34739285Y-60410714D02*
X33989285Y-60410714D01*
X33989285Y-60125000D01*
X34025000Y-60053571D01*
X34060714Y-60017857D01*
X34132142Y-59982142D01*
X34239285Y-59982142D01*
X34310714Y-60017857D01*
X34346428Y-60053571D01*
X34382142Y-60125000D01*
X34382142Y-60410714D01*
X34060714Y-59696428D02*
X34025000Y-59660714D01*
X33989285Y-59589285D01*
X33989285Y-59410714D01*
X34025000Y-59339285D01*
X34060714Y-59303571D01*
X34132142Y-59267857D01*
X34203571Y-59267857D01*
X34310714Y-59303571D01*
X34739285Y-59732142D01*
X34739285Y-59267857D01*
X34739285Y-58553571D02*
X34739285Y-58982142D01*
X34739285Y-58767857D02*
X33989285Y-58767857D01*
X34096428Y-58839285D01*
X34167857Y-58910714D01*
X34203571Y-58982142D01*
%TO.C,R52*%
X12917857Y-33739285D02*
X12667857Y-33382142D01*
X12489285Y-33739285D02*
X12489285Y-32989285D01*
X12775000Y-32989285D01*
X12846428Y-33025000D01*
X12882142Y-33060714D01*
X12917857Y-33132142D01*
X12917857Y-33239285D01*
X12882142Y-33310714D01*
X12846428Y-33346428D01*
X12775000Y-33382142D01*
X12489285Y-33382142D01*
X13596428Y-32989285D02*
X13239285Y-32989285D01*
X13203571Y-33346428D01*
X13239285Y-33310714D01*
X13310714Y-33275000D01*
X13489285Y-33275000D01*
X13560714Y-33310714D01*
X13596428Y-33346428D01*
X13632142Y-33417857D01*
X13632142Y-33596428D01*
X13596428Y-33667857D01*
X13560714Y-33703571D01*
X13489285Y-33739285D01*
X13310714Y-33739285D01*
X13239285Y-33703571D01*
X13203571Y-33667857D01*
X13917857Y-33060714D02*
X13953571Y-33025000D01*
X14025000Y-32989285D01*
X14203571Y-32989285D01*
X14275000Y-33025000D01*
X14310714Y-33060714D01*
X14346428Y-33132142D01*
X14346428Y-33203571D01*
X14310714Y-33310714D01*
X13882142Y-33739285D01*
X14346428Y-33739285D01*
%TO.C,R82*%
X14417857Y-74839285D02*
X14167857Y-74482142D01*
X13989285Y-74839285D02*
X13989285Y-74089285D01*
X14275000Y-74089285D01*
X14346428Y-74125000D01*
X14382142Y-74160714D01*
X14417857Y-74232142D01*
X14417857Y-74339285D01*
X14382142Y-74410714D01*
X14346428Y-74446428D01*
X14275000Y-74482142D01*
X13989285Y-74482142D01*
X14846428Y-74410714D02*
X14775000Y-74375000D01*
X14739285Y-74339285D01*
X14703571Y-74267857D01*
X14703571Y-74232142D01*
X14739285Y-74160714D01*
X14775000Y-74125000D01*
X14846428Y-74089285D01*
X14989285Y-74089285D01*
X15060714Y-74125000D01*
X15096428Y-74160714D01*
X15132142Y-74232142D01*
X15132142Y-74267857D01*
X15096428Y-74339285D01*
X15060714Y-74375000D01*
X14989285Y-74410714D01*
X14846428Y-74410714D01*
X14775000Y-74446428D01*
X14739285Y-74482142D01*
X14703571Y-74553571D01*
X14703571Y-74696428D01*
X14739285Y-74767857D01*
X14775000Y-74803571D01*
X14846428Y-74839285D01*
X14989285Y-74839285D01*
X15060714Y-74803571D01*
X15096428Y-74767857D01*
X15132142Y-74696428D01*
X15132142Y-74553571D01*
X15096428Y-74482142D01*
X15060714Y-74446428D01*
X14989285Y-74410714D01*
X15417857Y-74160714D02*
X15453571Y-74125000D01*
X15525000Y-74089285D01*
X15703571Y-74089285D01*
X15775000Y-74125000D01*
X15810714Y-74160714D01*
X15846428Y-74232142D01*
X15846428Y-74303571D01*
X15810714Y-74410714D01*
X15382142Y-74839285D01*
X15846428Y-74839285D01*
%TO.C,R83*%
X11817857Y-74839285D02*
X11567857Y-74482142D01*
X11389285Y-74839285D02*
X11389285Y-74089285D01*
X11675000Y-74089285D01*
X11746428Y-74125000D01*
X11782142Y-74160714D01*
X11817857Y-74232142D01*
X11817857Y-74339285D01*
X11782142Y-74410714D01*
X11746428Y-74446428D01*
X11675000Y-74482142D01*
X11389285Y-74482142D01*
X12246428Y-74410714D02*
X12175000Y-74375000D01*
X12139285Y-74339285D01*
X12103571Y-74267857D01*
X12103571Y-74232142D01*
X12139285Y-74160714D01*
X12175000Y-74125000D01*
X12246428Y-74089285D01*
X12389285Y-74089285D01*
X12460714Y-74125000D01*
X12496428Y-74160714D01*
X12532142Y-74232142D01*
X12532142Y-74267857D01*
X12496428Y-74339285D01*
X12460714Y-74375000D01*
X12389285Y-74410714D01*
X12246428Y-74410714D01*
X12175000Y-74446428D01*
X12139285Y-74482142D01*
X12103571Y-74553571D01*
X12103571Y-74696428D01*
X12139285Y-74767857D01*
X12175000Y-74803571D01*
X12246428Y-74839285D01*
X12389285Y-74839285D01*
X12460714Y-74803571D01*
X12496428Y-74767857D01*
X12532142Y-74696428D01*
X12532142Y-74553571D01*
X12496428Y-74482142D01*
X12460714Y-74446428D01*
X12389285Y-74410714D01*
X12782142Y-74089285D02*
X13246428Y-74089285D01*
X12996428Y-74375000D01*
X13103571Y-74375000D01*
X13175000Y-74410714D01*
X13210714Y-74446428D01*
X13246428Y-74517857D01*
X13246428Y-74696428D01*
X13210714Y-74767857D01*
X13175000Y-74803571D01*
X13103571Y-74839285D01*
X12889285Y-74839285D01*
X12817857Y-74803571D01*
X12782142Y-74767857D01*
%TO.C,R84*%
X14417857Y-59639285D02*
X14167857Y-59282142D01*
X13989285Y-59639285D02*
X13989285Y-58889285D01*
X14275000Y-58889285D01*
X14346428Y-58925000D01*
X14382142Y-58960714D01*
X14417857Y-59032142D01*
X14417857Y-59139285D01*
X14382142Y-59210714D01*
X14346428Y-59246428D01*
X14275000Y-59282142D01*
X13989285Y-59282142D01*
X14846428Y-59210714D02*
X14775000Y-59175000D01*
X14739285Y-59139285D01*
X14703571Y-59067857D01*
X14703571Y-59032142D01*
X14739285Y-58960714D01*
X14775000Y-58925000D01*
X14846428Y-58889285D01*
X14989285Y-58889285D01*
X15060714Y-58925000D01*
X15096428Y-58960714D01*
X15132142Y-59032142D01*
X15132142Y-59067857D01*
X15096428Y-59139285D01*
X15060714Y-59175000D01*
X14989285Y-59210714D01*
X14846428Y-59210714D01*
X14775000Y-59246428D01*
X14739285Y-59282142D01*
X14703571Y-59353571D01*
X14703571Y-59496428D01*
X14739285Y-59567857D01*
X14775000Y-59603571D01*
X14846428Y-59639285D01*
X14989285Y-59639285D01*
X15060714Y-59603571D01*
X15096428Y-59567857D01*
X15132142Y-59496428D01*
X15132142Y-59353571D01*
X15096428Y-59282142D01*
X15060714Y-59246428D01*
X14989285Y-59210714D01*
X15775000Y-59139285D02*
X15775000Y-59639285D01*
X15596428Y-58853571D02*
X15417857Y-59389285D01*
X15882142Y-59389285D01*
%TO.C,R85*%
X11817857Y-59639285D02*
X11567857Y-59282142D01*
X11389285Y-59639285D02*
X11389285Y-58889285D01*
X11675000Y-58889285D01*
X11746428Y-58925000D01*
X11782142Y-58960714D01*
X11817857Y-59032142D01*
X11817857Y-59139285D01*
X11782142Y-59210714D01*
X11746428Y-59246428D01*
X11675000Y-59282142D01*
X11389285Y-59282142D01*
X12246428Y-59210714D02*
X12175000Y-59175000D01*
X12139285Y-59139285D01*
X12103571Y-59067857D01*
X12103571Y-59032142D01*
X12139285Y-58960714D01*
X12175000Y-58925000D01*
X12246428Y-58889285D01*
X12389285Y-58889285D01*
X12460714Y-58925000D01*
X12496428Y-58960714D01*
X12532142Y-59032142D01*
X12532142Y-59067857D01*
X12496428Y-59139285D01*
X12460714Y-59175000D01*
X12389285Y-59210714D01*
X12246428Y-59210714D01*
X12175000Y-59246428D01*
X12139285Y-59282142D01*
X12103571Y-59353571D01*
X12103571Y-59496428D01*
X12139285Y-59567857D01*
X12175000Y-59603571D01*
X12246428Y-59639285D01*
X12389285Y-59639285D01*
X12460714Y-59603571D01*
X12496428Y-59567857D01*
X12532142Y-59496428D01*
X12532142Y-59353571D01*
X12496428Y-59282142D01*
X12460714Y-59246428D01*
X12389285Y-59210714D01*
X13210714Y-58889285D02*
X12853571Y-58889285D01*
X12817857Y-59246428D01*
X12853571Y-59210714D01*
X12925000Y-59175000D01*
X13103571Y-59175000D01*
X13175000Y-59210714D01*
X13210714Y-59246428D01*
X13246428Y-59317857D01*
X13246428Y-59496428D01*
X13210714Y-59567857D01*
X13175000Y-59603571D01*
X13103571Y-59639285D01*
X12925000Y-59639285D01*
X12853571Y-59603571D01*
X12817857Y-59567857D01*
%TO.C,R86*%
X14417857Y-67239285D02*
X14167857Y-66882142D01*
X13989285Y-67239285D02*
X13989285Y-66489285D01*
X14275000Y-66489285D01*
X14346428Y-66525000D01*
X14382142Y-66560714D01*
X14417857Y-66632142D01*
X14417857Y-66739285D01*
X14382142Y-66810714D01*
X14346428Y-66846428D01*
X14275000Y-66882142D01*
X13989285Y-66882142D01*
X14846428Y-66810714D02*
X14775000Y-66775000D01*
X14739285Y-66739285D01*
X14703571Y-66667857D01*
X14703571Y-66632142D01*
X14739285Y-66560714D01*
X14775000Y-66525000D01*
X14846428Y-66489285D01*
X14989285Y-66489285D01*
X15060714Y-66525000D01*
X15096428Y-66560714D01*
X15132142Y-66632142D01*
X15132142Y-66667857D01*
X15096428Y-66739285D01*
X15060714Y-66775000D01*
X14989285Y-66810714D01*
X14846428Y-66810714D01*
X14775000Y-66846428D01*
X14739285Y-66882142D01*
X14703571Y-66953571D01*
X14703571Y-67096428D01*
X14739285Y-67167857D01*
X14775000Y-67203571D01*
X14846428Y-67239285D01*
X14989285Y-67239285D01*
X15060714Y-67203571D01*
X15096428Y-67167857D01*
X15132142Y-67096428D01*
X15132142Y-66953571D01*
X15096428Y-66882142D01*
X15060714Y-66846428D01*
X14989285Y-66810714D01*
X15775000Y-66489285D02*
X15632142Y-66489285D01*
X15560714Y-66525000D01*
X15525000Y-66560714D01*
X15453571Y-66667857D01*
X15417857Y-66810714D01*
X15417857Y-67096428D01*
X15453571Y-67167857D01*
X15489285Y-67203571D01*
X15560714Y-67239285D01*
X15703571Y-67239285D01*
X15775000Y-67203571D01*
X15810714Y-67167857D01*
X15846428Y-67096428D01*
X15846428Y-66917857D01*
X15810714Y-66846428D01*
X15775000Y-66810714D01*
X15703571Y-66775000D01*
X15560714Y-66775000D01*
X15489285Y-66810714D01*
X15453571Y-66846428D01*
X15417857Y-66917857D01*
%TO.C,R87*%
X11817857Y-67239285D02*
X11567857Y-66882142D01*
X11389285Y-67239285D02*
X11389285Y-66489285D01*
X11675000Y-66489285D01*
X11746428Y-66525000D01*
X11782142Y-66560714D01*
X11817857Y-66632142D01*
X11817857Y-66739285D01*
X11782142Y-66810714D01*
X11746428Y-66846428D01*
X11675000Y-66882142D01*
X11389285Y-66882142D01*
X12246428Y-66810714D02*
X12175000Y-66775000D01*
X12139285Y-66739285D01*
X12103571Y-66667857D01*
X12103571Y-66632142D01*
X12139285Y-66560714D01*
X12175000Y-66525000D01*
X12246428Y-66489285D01*
X12389285Y-66489285D01*
X12460714Y-66525000D01*
X12496428Y-66560714D01*
X12532142Y-66632142D01*
X12532142Y-66667857D01*
X12496428Y-66739285D01*
X12460714Y-66775000D01*
X12389285Y-66810714D01*
X12246428Y-66810714D01*
X12175000Y-66846428D01*
X12139285Y-66882142D01*
X12103571Y-66953571D01*
X12103571Y-67096428D01*
X12139285Y-67167857D01*
X12175000Y-67203571D01*
X12246428Y-67239285D01*
X12389285Y-67239285D01*
X12460714Y-67203571D01*
X12496428Y-67167857D01*
X12532142Y-67096428D01*
X12532142Y-66953571D01*
X12496428Y-66882142D01*
X12460714Y-66846428D01*
X12389285Y-66810714D01*
X12782142Y-66489285D02*
X13282142Y-66489285D01*
X12960714Y-67239285D01*
%TO.C,R110*%
X90139285Y-66639285D02*
X89782142Y-66889285D01*
X90139285Y-67067857D02*
X89389285Y-67067857D01*
X89389285Y-66782142D01*
X89425000Y-66710714D01*
X89460714Y-66675000D01*
X89532142Y-66639285D01*
X89639285Y-66639285D01*
X89710714Y-66675000D01*
X89746428Y-66710714D01*
X89782142Y-66782142D01*
X89782142Y-67067857D01*
X90139285Y-65925000D02*
X90139285Y-66353571D01*
X90139285Y-66139285D02*
X89389285Y-66139285D01*
X89496428Y-66210714D01*
X89567857Y-66282142D01*
X89603571Y-66353571D01*
X90139285Y-65210714D02*
X90139285Y-65639285D01*
X90139285Y-65425000D02*
X89389285Y-65425000D01*
X89496428Y-65496428D01*
X89567857Y-65567857D01*
X89603571Y-65639285D01*
X89389285Y-64746428D02*
X89389285Y-64675000D01*
X89425000Y-64603571D01*
X89460714Y-64567857D01*
X89532142Y-64532142D01*
X89675000Y-64496428D01*
X89853571Y-64496428D01*
X89996428Y-64532142D01*
X90067857Y-64567857D01*
X90103571Y-64603571D01*
X90139285Y-64675000D01*
X90139285Y-64746428D01*
X90103571Y-64817857D01*
X90067857Y-64853571D01*
X89996428Y-64889285D01*
X89853571Y-64925000D01*
X89675000Y-64925000D01*
X89532142Y-64889285D01*
X89460714Y-64853571D01*
X89425000Y-64817857D01*
X89389285Y-64746428D01*
%TO.C,R111*%
X90139285Y-69639285D02*
X89782142Y-69889285D01*
X90139285Y-70067857D02*
X89389285Y-70067857D01*
X89389285Y-69782142D01*
X89425000Y-69710714D01*
X89460714Y-69675000D01*
X89532142Y-69639285D01*
X89639285Y-69639285D01*
X89710714Y-69675000D01*
X89746428Y-69710714D01*
X89782142Y-69782142D01*
X89782142Y-70067857D01*
X90139285Y-68925000D02*
X90139285Y-69353571D01*
X90139285Y-69139285D02*
X89389285Y-69139285D01*
X89496428Y-69210714D01*
X89567857Y-69282142D01*
X89603571Y-69353571D01*
X90139285Y-68210714D02*
X90139285Y-68639285D01*
X90139285Y-68425000D02*
X89389285Y-68425000D01*
X89496428Y-68496428D01*
X89567857Y-68567857D01*
X89603571Y-68639285D01*
X90139285Y-67496428D02*
X90139285Y-67925000D01*
X90139285Y-67710714D02*
X89389285Y-67710714D01*
X89496428Y-67782142D01*
X89567857Y-67853571D01*
X89603571Y-67925000D01*
%TO.C,R114*%
X33139285Y-73139285D02*
X32782142Y-73389285D01*
X33139285Y-73567857D02*
X32389285Y-73567857D01*
X32389285Y-73282142D01*
X32425000Y-73210714D01*
X32460714Y-73175000D01*
X32532142Y-73139285D01*
X32639285Y-73139285D01*
X32710714Y-73175000D01*
X32746428Y-73210714D01*
X32782142Y-73282142D01*
X32782142Y-73567857D01*
X33139285Y-72425000D02*
X33139285Y-72853571D01*
X33139285Y-72639285D02*
X32389285Y-72639285D01*
X32496428Y-72710714D01*
X32567857Y-72782142D01*
X32603571Y-72853571D01*
X33139285Y-71710714D02*
X33139285Y-72139285D01*
X33139285Y-71925000D02*
X32389285Y-71925000D01*
X32496428Y-71996428D01*
X32567857Y-72067857D01*
X32603571Y-72139285D01*
X32639285Y-71067857D02*
X33139285Y-71067857D01*
X32353571Y-71246428D02*
X32889285Y-71425000D01*
X32889285Y-70960714D01*
D12*
%TO.C,U2*%
X49638095Y-57052380D02*
X49638095Y-57861904D01*
X49685714Y-57957142D01*
X49733333Y-58004761D01*
X49828571Y-58052380D01*
X50019047Y-58052380D01*
X50114285Y-58004761D01*
X50161904Y-57957142D01*
X50209523Y-57861904D01*
X50209523Y-57052380D01*
X50638095Y-57147619D02*
X50685714Y-57100000D01*
X50780952Y-57052380D01*
X51019047Y-57052380D01*
X51114285Y-57100000D01*
X51161904Y-57147619D01*
X51209523Y-57242857D01*
X51209523Y-57338095D01*
X51161904Y-57480952D01*
X50590476Y-58052380D01*
X51209523Y-58052380D01*
%TO.C,U3*%
X39138095Y-52952380D02*
X39138095Y-53761904D01*
X39185714Y-53857142D01*
X39233333Y-53904761D01*
X39328571Y-53952380D01*
X39519047Y-53952380D01*
X39614285Y-53904761D01*
X39661904Y-53857142D01*
X39709523Y-53761904D01*
X39709523Y-52952380D01*
X40090476Y-52952380D02*
X40709523Y-52952380D01*
X40376190Y-53333333D01*
X40519047Y-53333333D01*
X40614285Y-53380952D01*
X40661904Y-53428571D01*
X40709523Y-53523809D01*
X40709523Y-53761904D01*
X40661904Y-53857142D01*
X40614285Y-53904761D01*
X40519047Y-53952380D01*
X40233333Y-53952380D01*
X40138095Y-53904761D01*
X40090476Y-53857142D01*
D11*
%TO.C,U8*%
X12928571Y-71889285D02*
X12928571Y-72496428D01*
X12964285Y-72567857D01*
X13000000Y-72603571D01*
X13071428Y-72639285D01*
X13214285Y-72639285D01*
X13285714Y-72603571D01*
X13321428Y-72567857D01*
X13357142Y-72496428D01*
X13357142Y-71889285D01*
X13821428Y-72210714D02*
X13750000Y-72175000D01*
X13714285Y-72139285D01*
X13678571Y-72067857D01*
X13678571Y-72032142D01*
X13714285Y-71960714D01*
X13750000Y-71925000D01*
X13821428Y-71889285D01*
X13964285Y-71889285D01*
X14035714Y-71925000D01*
X14071428Y-71960714D01*
X14107142Y-72032142D01*
X14107142Y-72067857D01*
X14071428Y-72139285D01*
X14035714Y-72175000D01*
X13964285Y-72210714D01*
X13821428Y-72210714D01*
X13750000Y-72246428D01*
X13714285Y-72282142D01*
X13678571Y-72353571D01*
X13678571Y-72496428D01*
X13714285Y-72567857D01*
X13750000Y-72603571D01*
X13821428Y-72639285D01*
X13964285Y-72639285D01*
X14035714Y-72603571D01*
X14071428Y-72567857D01*
X14107142Y-72496428D01*
X14107142Y-72353571D01*
X14071428Y-72282142D01*
X14035714Y-72246428D01*
X13964285Y-72210714D01*
%TO.C,U9*%
X13228571Y-56689285D02*
X13228571Y-57296428D01*
X13264285Y-57367857D01*
X13300000Y-57403571D01*
X13371428Y-57439285D01*
X13514285Y-57439285D01*
X13585714Y-57403571D01*
X13621428Y-57367857D01*
X13657142Y-57296428D01*
X13657142Y-56689285D01*
X14050000Y-57439285D02*
X14192857Y-57439285D01*
X14264285Y-57403571D01*
X14300000Y-57367857D01*
X14371428Y-57260714D01*
X14407142Y-57117857D01*
X14407142Y-56832142D01*
X14371428Y-56760714D01*
X14335714Y-56725000D01*
X14264285Y-56689285D01*
X14121428Y-56689285D01*
X14050000Y-56725000D01*
X14014285Y-56760714D01*
X13978571Y-56832142D01*
X13978571Y-57010714D01*
X14014285Y-57082142D01*
X14050000Y-57117857D01*
X14121428Y-57153571D01*
X14264285Y-57153571D01*
X14335714Y-57117857D01*
X14371428Y-57082142D01*
X14407142Y-57010714D01*
%TO.C,U10*%
X12171428Y-64289285D02*
X12171428Y-64896428D01*
X12207142Y-64967857D01*
X12242857Y-65003571D01*
X12314285Y-65039285D01*
X12457142Y-65039285D01*
X12528571Y-65003571D01*
X12564285Y-64967857D01*
X12600000Y-64896428D01*
X12600000Y-64289285D01*
X13350000Y-65039285D02*
X12921428Y-65039285D01*
X13135714Y-65039285D02*
X13135714Y-64289285D01*
X13064285Y-64396428D01*
X12992857Y-64467857D01*
X12921428Y-64503571D01*
X13814285Y-64289285D02*
X13885714Y-64289285D01*
X13957142Y-64325000D01*
X13992857Y-64360714D01*
X14028571Y-64432142D01*
X14064285Y-64575000D01*
X14064285Y-64753571D01*
X14028571Y-64896428D01*
X13992857Y-64967857D01*
X13957142Y-65003571D01*
X13885714Y-65039285D01*
X13814285Y-65039285D01*
X13742857Y-65003571D01*
X13707142Y-64967857D01*
X13671428Y-64896428D01*
X13635714Y-64753571D01*
X13635714Y-64575000D01*
X13671428Y-64432142D01*
X13707142Y-64360714D01*
X13742857Y-64325000D01*
X13814285Y-64289285D01*
%TO.C,U11*%
X81371428Y-74489285D02*
X81371428Y-75096428D01*
X81407142Y-75167857D01*
X81442857Y-75203571D01*
X81514285Y-75239285D01*
X81657142Y-75239285D01*
X81728571Y-75203571D01*
X81764285Y-75167857D01*
X81800000Y-75096428D01*
X81800000Y-74489285D01*
X82550000Y-75239285D02*
X82121428Y-75239285D01*
X82335714Y-75239285D02*
X82335714Y-74489285D01*
X82264285Y-74596428D01*
X82192857Y-74667857D01*
X82121428Y-74703571D01*
X83264285Y-75239285D02*
X82835714Y-75239285D01*
X83050000Y-75239285D02*
X83050000Y-74489285D01*
X82978571Y-74596428D01*
X82907142Y-74667857D01*
X82835714Y-74703571D01*
%TO.C,C32*%
X72967857Y-29482142D02*
X73003571Y-29517857D01*
X73039285Y-29625000D01*
X73039285Y-29696428D01*
X73003571Y-29803571D01*
X72932142Y-29875000D01*
X72860714Y-29910714D01*
X72717857Y-29946428D01*
X72610714Y-29946428D01*
X72467857Y-29910714D01*
X72396428Y-29875000D01*
X72325000Y-29803571D01*
X72289285Y-29696428D01*
X72289285Y-29625000D01*
X72325000Y-29517857D01*
X72360714Y-29482142D01*
X72289285Y-29232142D02*
X72289285Y-28767857D01*
X72575000Y-29017857D01*
X72575000Y-28910714D01*
X72610714Y-28839285D01*
X72646428Y-28803571D01*
X72717857Y-28767857D01*
X72896428Y-28767857D01*
X72967857Y-28803571D01*
X73003571Y-28839285D01*
X73039285Y-28910714D01*
X73039285Y-29125000D01*
X73003571Y-29196428D01*
X72967857Y-29232142D01*
X72360714Y-28482142D02*
X72325000Y-28446428D01*
X72289285Y-28375000D01*
X72289285Y-28196428D01*
X72325000Y-28125000D01*
X72360714Y-28089285D01*
X72432142Y-28053571D01*
X72503571Y-28053571D01*
X72610714Y-28089285D01*
X73039285Y-28517857D01*
X73039285Y-28053571D01*
%TO.C,C33*%
X73977857Y-29482142D02*
X74013571Y-29517857D01*
X74049285Y-29625000D01*
X74049285Y-29696428D01*
X74013571Y-29803571D01*
X73942142Y-29875000D01*
X73870714Y-29910714D01*
X73727857Y-29946428D01*
X73620714Y-29946428D01*
X73477857Y-29910714D01*
X73406428Y-29875000D01*
X73335000Y-29803571D01*
X73299285Y-29696428D01*
X73299285Y-29625000D01*
X73335000Y-29517857D01*
X73370714Y-29482142D01*
X73299285Y-29232142D02*
X73299285Y-28767857D01*
X73585000Y-29017857D01*
X73585000Y-28910714D01*
X73620714Y-28839285D01*
X73656428Y-28803571D01*
X73727857Y-28767857D01*
X73906428Y-28767857D01*
X73977857Y-28803571D01*
X74013571Y-28839285D01*
X74049285Y-28910714D01*
X74049285Y-29125000D01*
X74013571Y-29196428D01*
X73977857Y-29232142D01*
X73299285Y-28517857D02*
X73299285Y-28053571D01*
X73585000Y-28303571D01*
X73585000Y-28196428D01*
X73620714Y-28125000D01*
X73656428Y-28089285D01*
X73727857Y-28053571D01*
X73906428Y-28053571D01*
X73977857Y-28089285D01*
X74013571Y-28125000D01*
X74049285Y-28196428D01*
X74049285Y-28410714D01*
X74013571Y-28482142D01*
X73977857Y-28517857D01*
%TO.C,C34*%
X74617857Y-34167857D02*
X74582142Y-34203571D01*
X74475000Y-34239285D01*
X74403571Y-34239285D01*
X74296428Y-34203571D01*
X74225000Y-34132142D01*
X74189285Y-34060714D01*
X74153571Y-33917857D01*
X74153571Y-33810714D01*
X74189285Y-33667857D01*
X74225000Y-33596428D01*
X74296428Y-33525000D01*
X74403571Y-33489285D01*
X74475000Y-33489285D01*
X74582142Y-33525000D01*
X74617857Y-33560714D01*
X74867857Y-33489285D02*
X75332142Y-33489285D01*
X75082142Y-33775000D01*
X75189285Y-33775000D01*
X75260714Y-33810714D01*
X75296428Y-33846428D01*
X75332142Y-33917857D01*
X75332142Y-34096428D01*
X75296428Y-34167857D01*
X75260714Y-34203571D01*
X75189285Y-34239285D01*
X74975000Y-34239285D01*
X74903571Y-34203571D01*
X74867857Y-34167857D01*
X75975000Y-33739285D02*
X75975000Y-34239285D01*
X75796428Y-33453571D02*
X75617857Y-33989285D01*
X76082142Y-33989285D01*
%TO.C,C35*%
X74617857Y-33067857D02*
X74582142Y-33103571D01*
X74475000Y-33139285D01*
X74403571Y-33139285D01*
X74296428Y-33103571D01*
X74225000Y-33032142D01*
X74189285Y-32960714D01*
X74153571Y-32817857D01*
X74153571Y-32710714D01*
X74189285Y-32567857D01*
X74225000Y-32496428D01*
X74296428Y-32425000D01*
X74403571Y-32389285D01*
X74475000Y-32389285D01*
X74582142Y-32425000D01*
X74617857Y-32460714D01*
X74867857Y-32389285D02*
X75332142Y-32389285D01*
X75082142Y-32675000D01*
X75189285Y-32675000D01*
X75260714Y-32710714D01*
X75296428Y-32746428D01*
X75332142Y-32817857D01*
X75332142Y-32996428D01*
X75296428Y-33067857D01*
X75260714Y-33103571D01*
X75189285Y-33139285D01*
X74975000Y-33139285D01*
X74903571Y-33103571D01*
X74867857Y-33067857D01*
X76010714Y-32389285D02*
X75653571Y-32389285D01*
X75617857Y-32746428D01*
X75653571Y-32710714D01*
X75725000Y-32675000D01*
X75903571Y-32675000D01*
X75975000Y-32710714D01*
X76010714Y-32746428D01*
X76046428Y-32817857D01*
X76046428Y-32996428D01*
X76010714Y-33067857D01*
X75975000Y-33103571D01*
X75903571Y-33139285D01*
X75725000Y-33139285D01*
X75653571Y-33103571D01*
X75617857Y-33067857D01*
%TO.C,D11*%
X33139285Y-76210714D02*
X32389285Y-76210714D01*
X32389285Y-76032142D01*
X32425000Y-75925000D01*
X32496428Y-75853571D01*
X32567857Y-75817857D01*
X32710714Y-75782142D01*
X32817857Y-75782142D01*
X32960714Y-75817857D01*
X33032142Y-75853571D01*
X33103571Y-75925000D01*
X33139285Y-76032142D01*
X33139285Y-76210714D01*
X33139285Y-75067857D02*
X33139285Y-75496428D01*
X33139285Y-75282142D02*
X32389285Y-75282142D01*
X32496428Y-75353571D01*
X32567857Y-75425000D01*
X32603571Y-75496428D01*
X33139285Y-74353571D02*
X33139285Y-74782142D01*
X33139285Y-74567857D02*
X32389285Y-74567857D01*
X32496428Y-74639285D01*
X32567857Y-74710714D01*
X32603571Y-74782142D01*
D12*
%TO.C,L2*%
X24233333Y-70452380D02*
X23757142Y-70452380D01*
X23757142Y-69452380D01*
X24519047Y-69547619D02*
X24566666Y-69500000D01*
X24661904Y-69452380D01*
X24900000Y-69452380D01*
X24995238Y-69500000D01*
X25042857Y-69547619D01*
X25090476Y-69642857D01*
X25090476Y-69738095D01*
X25042857Y-69880952D01*
X24471428Y-70452380D01*
X25090476Y-70452380D01*
%TO.C,L3*%
X21433333Y-53852380D02*
X20957142Y-53852380D01*
X20957142Y-52852380D01*
X21671428Y-52852380D02*
X22290476Y-52852380D01*
X21957142Y-53233333D01*
X22100000Y-53233333D01*
X22195238Y-53280952D01*
X22242857Y-53328571D01*
X22290476Y-53423809D01*
X22290476Y-53661904D01*
X22242857Y-53757142D01*
X22195238Y-53804761D01*
X22100000Y-53852380D01*
X21814285Y-53852380D01*
X21719047Y-53804761D01*
X21671428Y-53757142D01*
%TO.C,L4*%
X24433333Y-64152380D02*
X23957142Y-64152380D01*
X23957142Y-63152380D01*
X25195238Y-63485714D02*
X25195238Y-64152380D01*
X24957142Y-63104761D02*
X24719047Y-63819047D01*
X25338095Y-63819047D01*
%TO.C,Y1*%
X69223809Y-28476190D02*
X69223809Y-28952380D01*
X68890476Y-27952380D02*
X69223809Y-28476190D01*
X69557142Y-27952380D01*
X70414285Y-28952380D02*
X69842857Y-28952380D01*
X70128571Y-28952380D02*
X70128571Y-27952380D01*
X70033333Y-28095238D01*
X69938095Y-28190476D01*
X69842857Y-28238095D01*
D11*
%TO.C,R112*%
X72460714Y-64239285D02*
X72210714Y-63882142D01*
X72032142Y-64239285D02*
X72032142Y-63489285D01*
X72317857Y-63489285D01*
X72389285Y-63525000D01*
X72425000Y-63560714D01*
X72460714Y-63632142D01*
X72460714Y-63739285D01*
X72425000Y-63810714D01*
X72389285Y-63846428D01*
X72317857Y-63882142D01*
X72032142Y-63882142D01*
X73175000Y-64239285D02*
X72746428Y-64239285D01*
X72960714Y-64239285D02*
X72960714Y-63489285D01*
X72889285Y-63596428D01*
X72817857Y-63667857D01*
X72746428Y-63703571D01*
X73889285Y-64239285D02*
X73460714Y-64239285D01*
X73675000Y-64239285D02*
X73675000Y-63489285D01*
X73603571Y-63596428D01*
X73532142Y-63667857D01*
X73460714Y-63703571D01*
X74175000Y-63560714D02*
X74210714Y-63525000D01*
X74282142Y-63489285D01*
X74460714Y-63489285D01*
X74532142Y-63525000D01*
X74567857Y-63560714D01*
X74603571Y-63632142D01*
X74603571Y-63703571D01*
X74567857Y-63810714D01*
X74139285Y-64239285D01*
X74603571Y-64239285D01*
%TO.C,D9*%
X11076428Y-29237485D02*
X11076428Y-28487485D01*
X11255000Y-28487485D01*
X11362142Y-28523200D01*
X11433571Y-28594628D01*
X11469285Y-28666057D01*
X11505000Y-28808914D01*
X11505000Y-28916057D01*
X11469285Y-29058914D01*
X11433571Y-29130342D01*
X11362142Y-29201771D01*
X11255000Y-29237485D01*
X11076428Y-29237485D01*
X11862142Y-29237485D02*
X12005000Y-29237485D01*
X12076428Y-29201771D01*
X12112142Y-29166057D01*
X12183571Y-29058914D01*
X12219285Y-28916057D01*
X12219285Y-28630342D01*
X12183571Y-28558914D01*
X12147857Y-28523200D01*
X12076428Y-28487485D01*
X11933571Y-28487485D01*
X11862142Y-28523200D01*
X11826428Y-28558914D01*
X11790714Y-28630342D01*
X11790714Y-28808914D01*
X11826428Y-28880342D01*
X11862142Y-28916057D01*
X11933571Y-28951771D01*
X12076428Y-28951771D01*
X12147857Y-28916057D01*
X12183571Y-28880342D01*
X12219285Y-28808914D01*
D12*
%TO.C,J2*%
X88586666Y-36132380D02*
X88586666Y-36846666D01*
X88539047Y-36989523D01*
X88443809Y-37084761D01*
X88300952Y-37132380D01*
X88205714Y-37132380D01*
X89015238Y-36227619D02*
X89062857Y-36180000D01*
X89158095Y-36132380D01*
X89396190Y-36132380D01*
X89491428Y-36180000D01*
X89539047Y-36227619D01*
X89586666Y-36322857D01*
X89586666Y-36418095D01*
X89539047Y-36560952D01*
X88967619Y-37132380D01*
X89586666Y-37132380D01*
D11*
%TO.C,C39*%
X67517857Y-68067857D02*
X67482142Y-68103571D01*
X67375000Y-68139285D01*
X67303571Y-68139285D01*
X67196428Y-68103571D01*
X67125000Y-68032142D01*
X67089285Y-67960714D01*
X67053571Y-67817857D01*
X67053571Y-67710714D01*
X67089285Y-67567857D01*
X67125000Y-67496428D01*
X67196428Y-67425000D01*
X67303571Y-67389285D01*
X67375000Y-67389285D01*
X67482142Y-67425000D01*
X67517857Y-67460714D01*
X67767857Y-67389285D02*
X68232142Y-67389285D01*
X67982142Y-67675000D01*
X68089285Y-67675000D01*
X68160714Y-67710714D01*
X68196428Y-67746428D01*
X68232142Y-67817857D01*
X68232142Y-67996428D01*
X68196428Y-68067857D01*
X68160714Y-68103571D01*
X68089285Y-68139285D01*
X67875000Y-68139285D01*
X67803571Y-68103571D01*
X67767857Y-68067857D01*
X68589285Y-68139285D02*
X68732142Y-68139285D01*
X68803571Y-68103571D01*
X68839285Y-68067857D01*
X68910714Y-67960714D01*
X68946428Y-67817857D01*
X68946428Y-67532142D01*
X68910714Y-67460714D01*
X68875000Y-67425000D01*
X68803571Y-67389285D01*
X68660714Y-67389285D01*
X68589285Y-67425000D01*
X68553571Y-67460714D01*
X68517857Y-67532142D01*
X68517857Y-67710714D01*
X68553571Y-67782142D01*
X68589285Y-67817857D01*
X68660714Y-67853571D01*
X68803571Y-67853571D01*
X68875000Y-67817857D01*
X68910714Y-67782142D01*
X68946428Y-67710714D01*
%TO.C,R117*%
X61460714Y-74664285D02*
X61210714Y-74307142D01*
X61032142Y-74664285D02*
X61032142Y-73914285D01*
X61317857Y-73914285D01*
X61389285Y-73950000D01*
X61425000Y-73985714D01*
X61460714Y-74057142D01*
X61460714Y-74164285D01*
X61425000Y-74235714D01*
X61389285Y-74271428D01*
X61317857Y-74307142D01*
X61032142Y-74307142D01*
X62175000Y-74664285D02*
X61746428Y-74664285D01*
X61960714Y-74664285D02*
X61960714Y-73914285D01*
X61889285Y-74021428D01*
X61817857Y-74092857D01*
X61746428Y-74128571D01*
X62889285Y-74664285D02*
X62460714Y-74664285D01*
X62675000Y-74664285D02*
X62675000Y-73914285D01*
X62603571Y-74021428D01*
X62532142Y-74092857D01*
X62460714Y-74128571D01*
X63139285Y-73914285D02*
X63639285Y-73914285D01*
X63317857Y-74664285D01*
%TO.C,R118*%
X63039285Y-68139285D02*
X62682142Y-68389285D01*
X63039285Y-68567857D02*
X62289285Y-68567857D01*
X62289285Y-68282142D01*
X62325000Y-68210714D01*
X62360714Y-68175000D01*
X62432142Y-68139285D01*
X62539285Y-68139285D01*
X62610714Y-68175000D01*
X62646428Y-68210714D01*
X62682142Y-68282142D01*
X62682142Y-68567857D01*
X63039285Y-67425000D02*
X63039285Y-67853571D01*
X63039285Y-67639285D02*
X62289285Y-67639285D01*
X62396428Y-67710714D01*
X62467857Y-67782142D01*
X62503571Y-67853571D01*
X63039285Y-66710714D02*
X63039285Y-67139285D01*
X63039285Y-66925000D02*
X62289285Y-66925000D01*
X62396428Y-66996428D01*
X62467857Y-67067857D01*
X62503571Y-67139285D01*
X62610714Y-66282142D02*
X62575000Y-66353571D01*
X62539285Y-66389285D01*
X62467857Y-66425000D01*
X62432142Y-66425000D01*
X62360714Y-66389285D01*
X62325000Y-66353571D01*
X62289285Y-66282142D01*
X62289285Y-66139285D01*
X62325000Y-66067857D01*
X62360714Y-66032142D01*
X62432142Y-65996428D01*
X62467857Y-65996428D01*
X62539285Y-66032142D01*
X62575000Y-66067857D01*
X62610714Y-66139285D01*
X62610714Y-66282142D01*
X62646428Y-66353571D01*
X62682142Y-66389285D01*
X62753571Y-66425000D01*
X62896428Y-66425000D01*
X62967857Y-66389285D01*
X63003571Y-66353571D01*
X63039285Y-66282142D01*
X63039285Y-66139285D01*
X63003571Y-66067857D01*
X62967857Y-66032142D01*
X62896428Y-65996428D01*
X62753571Y-65996428D01*
X62682142Y-66032142D01*
X62646428Y-66067857D01*
X62610714Y-66139285D01*
%TO.C,R119*%
X64460714Y-68139285D02*
X64210714Y-67782142D01*
X64032142Y-68139285D02*
X64032142Y-67389285D01*
X64317857Y-67389285D01*
X64389285Y-67425000D01*
X64425000Y-67460714D01*
X64460714Y-67532142D01*
X64460714Y-67639285D01*
X64425000Y-67710714D01*
X64389285Y-67746428D01*
X64317857Y-67782142D01*
X64032142Y-67782142D01*
X65175000Y-68139285D02*
X64746428Y-68139285D01*
X64960714Y-68139285D02*
X64960714Y-67389285D01*
X64889285Y-67496428D01*
X64817857Y-67567857D01*
X64746428Y-67603571D01*
X65889285Y-68139285D02*
X65460714Y-68139285D01*
X65675000Y-68139285D02*
X65675000Y-67389285D01*
X65603571Y-67496428D01*
X65532142Y-67567857D01*
X65460714Y-67603571D01*
X66246428Y-68139285D02*
X66389285Y-68139285D01*
X66460714Y-68103571D01*
X66496428Y-68067857D01*
X66567857Y-67960714D01*
X66603571Y-67817857D01*
X66603571Y-67532142D01*
X66567857Y-67460714D01*
X66532142Y-67425000D01*
X66460714Y-67389285D01*
X66317857Y-67389285D01*
X66246428Y-67425000D01*
X66210714Y-67460714D01*
X66175000Y-67532142D01*
X66175000Y-67710714D01*
X66210714Y-67782142D01*
X66246428Y-67817857D01*
X66317857Y-67853571D01*
X66460714Y-67853571D01*
X66532142Y-67817857D01*
X66567857Y-67782142D01*
X66603571Y-67710714D01*
D12*
%TO.C,U13*%
X48511904Y-69502379D02*
X48511904Y-70311903D01*
X48559523Y-70407141D01*
X48607142Y-70454760D01*
X48702380Y-70502379D01*
X48892857Y-70502379D01*
X48988095Y-70454760D01*
X49035714Y-70407141D01*
X49083333Y-70311903D01*
X49083333Y-69502379D01*
X50083333Y-70502379D02*
X49511904Y-70502379D01*
X49797619Y-70502379D02*
X49797619Y-69502379D01*
X49702380Y-69645237D01*
X49607142Y-69740475D01*
X49511904Y-69788094D01*
X50416666Y-69502379D02*
X51035714Y-69502379D01*
X50702380Y-69883332D01*
X50845238Y-69883332D01*
X50940476Y-69930951D01*
X50988095Y-69978570D01*
X51035714Y-70073808D01*
X51035714Y-70311903D01*
X50988095Y-70407141D01*
X50940476Y-70454760D01*
X50845238Y-70502379D01*
X50559523Y-70502379D01*
X50464285Y-70454760D01*
X50416666Y-70407141D01*
D11*
%TO.C,R22*%
X86639285Y-38182142D02*
X86282142Y-38432142D01*
X86639285Y-38610714D02*
X85889285Y-38610714D01*
X85889285Y-38325000D01*
X85925000Y-38253571D01*
X85960714Y-38217857D01*
X86032142Y-38182142D01*
X86139285Y-38182142D01*
X86210714Y-38217857D01*
X86246428Y-38253571D01*
X86282142Y-38325000D01*
X86282142Y-38610714D01*
X85960714Y-37896428D02*
X85925000Y-37860714D01*
X85889285Y-37789285D01*
X85889285Y-37610714D01*
X85925000Y-37539285D01*
X85960714Y-37503571D01*
X86032142Y-37467857D01*
X86103571Y-37467857D01*
X86210714Y-37503571D01*
X86639285Y-37932142D01*
X86639285Y-37467857D01*
X85960714Y-37182142D02*
X85925000Y-37146428D01*
X85889285Y-37075000D01*
X85889285Y-36896428D01*
X85925000Y-36825000D01*
X85960714Y-36789285D01*
X86032142Y-36753571D01*
X86103571Y-36753571D01*
X86210714Y-36789285D01*
X86639285Y-37217857D01*
X86639285Y-36753571D01*
%TO.C,R23*%
X80239285Y-38182142D02*
X79882142Y-38432142D01*
X80239285Y-38610714D02*
X79489285Y-38610714D01*
X79489285Y-38325000D01*
X79525000Y-38253571D01*
X79560714Y-38217857D01*
X79632142Y-38182142D01*
X79739285Y-38182142D01*
X79810714Y-38217857D01*
X79846428Y-38253571D01*
X79882142Y-38325000D01*
X79882142Y-38610714D01*
X79560714Y-37896428D02*
X79525000Y-37860714D01*
X79489285Y-37789285D01*
X79489285Y-37610714D01*
X79525000Y-37539285D01*
X79560714Y-37503571D01*
X79632142Y-37467857D01*
X79703571Y-37467857D01*
X79810714Y-37503571D01*
X80239285Y-37932142D01*
X80239285Y-37467857D01*
X79489285Y-37217857D02*
X79489285Y-36753571D01*
X79775000Y-37003571D01*
X79775000Y-36896428D01*
X79810714Y-36825000D01*
X79846428Y-36789285D01*
X79917857Y-36753571D01*
X80096428Y-36753571D01*
X80167857Y-36789285D01*
X80203571Y-36825000D01*
X80239285Y-36896428D01*
X80239285Y-37110714D01*
X80203571Y-37182142D01*
X80167857Y-37217857D01*
%TO.C,C40*%
X31017857Y-49567857D02*
X30982142Y-49603571D01*
X30875000Y-49639285D01*
X30803571Y-49639285D01*
X30696428Y-49603571D01*
X30625000Y-49532142D01*
X30589285Y-49460714D01*
X30553571Y-49317857D01*
X30553571Y-49210714D01*
X30589285Y-49067857D01*
X30625000Y-48996428D01*
X30696428Y-48925000D01*
X30803571Y-48889285D01*
X30875000Y-48889285D01*
X30982142Y-48925000D01*
X31017857Y-48960714D01*
X31660714Y-49139285D02*
X31660714Y-49639285D01*
X31482142Y-48853571D02*
X31303571Y-49389285D01*
X31767857Y-49389285D01*
X32196428Y-48889285D02*
X32267857Y-48889285D01*
X32339285Y-48925000D01*
X32375000Y-48960714D01*
X32410714Y-49032142D01*
X32446428Y-49175000D01*
X32446428Y-49353571D01*
X32410714Y-49496428D01*
X32375000Y-49567857D01*
X32339285Y-49603571D01*
X32267857Y-49639285D01*
X32196428Y-49639285D01*
X32125000Y-49603571D01*
X32089285Y-49567857D01*
X32053571Y-49496428D01*
X32017857Y-49353571D01*
X32017857Y-49175000D01*
X32053571Y-49032142D01*
X32089285Y-48960714D01*
X32125000Y-48925000D01*
X32196428Y-48889285D01*
D12*
%TO.C,U1*%
X49738095Y-33852380D02*
X49738095Y-34661904D01*
X49785714Y-34757142D01*
X49833333Y-34804761D01*
X49928571Y-34852380D01*
X50119047Y-34852380D01*
X50214285Y-34804761D01*
X50261904Y-34757142D01*
X50309523Y-34661904D01*
X50309523Y-33852380D01*
X51309523Y-34852380D02*
X50738095Y-34852380D01*
X51023809Y-34852380D02*
X51023809Y-33852380D01*
X50928571Y-33995238D01*
X50833333Y-34090476D01*
X50738095Y-34138095D01*
%TO.C,J1*%
X44566666Y-28452380D02*
X44566666Y-29166666D01*
X44519047Y-29309523D01*
X44423809Y-29404761D01*
X44280952Y-29452380D01*
X44185714Y-29452380D01*
X45566666Y-29452380D02*
X44995238Y-29452380D01*
X45280952Y-29452380D02*
X45280952Y-28452380D01*
X45185714Y-28595238D01*
X45090476Y-28690476D01*
X44995238Y-28738095D01*
D11*
%TO.C,C69*%
X24017857Y-38667857D02*
X23982142Y-38703571D01*
X23875000Y-38739285D01*
X23803571Y-38739285D01*
X23696428Y-38703571D01*
X23625000Y-38632142D01*
X23589285Y-38560714D01*
X23553571Y-38417857D01*
X23553571Y-38310714D01*
X23589285Y-38167857D01*
X23625000Y-38096428D01*
X23696428Y-38025000D01*
X23803571Y-37989285D01*
X23875000Y-37989285D01*
X23982142Y-38025000D01*
X24017857Y-38060714D01*
X24660714Y-37989285D02*
X24517857Y-37989285D01*
X24446428Y-38025000D01*
X24410714Y-38060714D01*
X24339285Y-38167857D01*
X24303571Y-38310714D01*
X24303571Y-38596428D01*
X24339285Y-38667857D01*
X24375000Y-38703571D01*
X24446428Y-38739285D01*
X24589285Y-38739285D01*
X24660714Y-38703571D01*
X24696428Y-38667857D01*
X24732142Y-38596428D01*
X24732142Y-38417857D01*
X24696428Y-38346428D01*
X24660714Y-38310714D01*
X24589285Y-38275000D01*
X24446428Y-38275000D01*
X24375000Y-38310714D01*
X24339285Y-38346428D01*
X24303571Y-38417857D01*
X25089285Y-38739285D02*
X25232142Y-38739285D01*
X25303571Y-38703571D01*
X25339285Y-38667857D01*
X25410714Y-38560714D01*
X25446428Y-38417857D01*
X25446428Y-38132142D01*
X25410714Y-38060714D01*
X25375000Y-38025000D01*
X25303571Y-37989285D01*
X25160714Y-37989285D01*
X25089285Y-38025000D01*
X25053571Y-38060714D01*
X25017857Y-38132142D01*
X25017857Y-38310714D01*
X25053571Y-38382142D01*
X25089285Y-38417857D01*
X25160714Y-38453571D01*
X25303571Y-38453571D01*
X25375000Y-38417857D01*
X25410714Y-38382142D01*
X25446428Y-38310714D01*
%TO.C,C61*%
X45817857Y-50367857D02*
X45782142Y-50403571D01*
X45675000Y-50439285D01*
X45603571Y-50439285D01*
X45496428Y-50403571D01*
X45425000Y-50332142D01*
X45389285Y-50260714D01*
X45353571Y-50117857D01*
X45353571Y-50010714D01*
X45389285Y-49867857D01*
X45425000Y-49796428D01*
X45496428Y-49725000D01*
X45603571Y-49689285D01*
X45675000Y-49689285D01*
X45782142Y-49725000D01*
X45817857Y-49760714D01*
X46460714Y-49689285D02*
X46317857Y-49689285D01*
X46246428Y-49725000D01*
X46210714Y-49760714D01*
X46139285Y-49867857D01*
X46103571Y-50010714D01*
X46103571Y-50296428D01*
X46139285Y-50367857D01*
X46175000Y-50403571D01*
X46246428Y-50439285D01*
X46389285Y-50439285D01*
X46460714Y-50403571D01*
X46496428Y-50367857D01*
X46532142Y-50296428D01*
X46532142Y-50117857D01*
X46496428Y-50046428D01*
X46460714Y-50010714D01*
X46389285Y-49975000D01*
X46246428Y-49975000D01*
X46175000Y-50010714D01*
X46139285Y-50046428D01*
X46103571Y-50117857D01*
X47246428Y-50439285D02*
X46817857Y-50439285D01*
X47032142Y-50439285D02*
X47032142Y-49689285D01*
X46960714Y-49796428D01*
X46889285Y-49867857D01*
X46817857Y-49903571D01*
%TO.C,C33*%
X64067857Y-62982142D02*
X64103571Y-63017857D01*
X64139285Y-63125000D01*
X64139285Y-63196428D01*
X64103571Y-63303571D01*
X64032142Y-63375000D01*
X63960714Y-63410714D01*
X63817857Y-63446428D01*
X63710714Y-63446428D01*
X63567857Y-63410714D01*
X63496428Y-63375000D01*
X63425000Y-63303571D01*
X63389285Y-63196428D01*
X63389285Y-63125000D01*
X63425000Y-63017857D01*
X63460714Y-62982142D01*
X63389285Y-62732142D02*
X63389285Y-62267857D01*
X63675000Y-62517857D01*
X63675000Y-62410714D01*
X63710714Y-62339285D01*
X63746428Y-62303571D01*
X63817857Y-62267857D01*
X63996428Y-62267857D01*
X64067857Y-62303571D01*
X64103571Y-62339285D01*
X64139285Y-62410714D01*
X64139285Y-62625000D01*
X64103571Y-62696428D01*
X64067857Y-62732142D01*
X63389285Y-62017857D02*
X63389285Y-61553571D01*
X63675000Y-61803571D01*
X63675000Y-61696428D01*
X63710714Y-61625000D01*
X63746428Y-61589285D01*
X63817857Y-61553571D01*
X63996428Y-61553571D01*
X64067857Y-61589285D01*
X64103571Y-61625000D01*
X64139285Y-61696428D01*
X64139285Y-61910714D01*
X64103571Y-61982142D01*
X64067857Y-62017857D01*
%TO.C,C13*%
X27817857Y-50967857D02*
X27782142Y-51003571D01*
X27675000Y-51039285D01*
X27603571Y-51039285D01*
X27496428Y-51003571D01*
X27425000Y-50932142D01*
X27389285Y-50860714D01*
X27353571Y-50717857D01*
X27353571Y-50610714D01*
X27389285Y-50467857D01*
X27425000Y-50396428D01*
X27496428Y-50325000D01*
X27603571Y-50289285D01*
X27675000Y-50289285D01*
X27782142Y-50325000D01*
X27817857Y-50360714D01*
X28532142Y-51039285D02*
X28103571Y-51039285D01*
X28317857Y-51039285D02*
X28317857Y-50289285D01*
X28246428Y-50396428D01*
X28175000Y-50467857D01*
X28103571Y-50503571D01*
X28782142Y-50289285D02*
X29246428Y-50289285D01*
X28996428Y-50575000D01*
X29103571Y-50575000D01*
X29175000Y-50610714D01*
X29210714Y-50646428D01*
X29246428Y-50717857D01*
X29246428Y-50896428D01*
X29210714Y-50967857D01*
X29175000Y-51003571D01*
X29103571Y-51039285D01*
X28889285Y-51039285D01*
X28817857Y-51003571D01*
X28782142Y-50967857D01*
%TO.C,J7*%
X75739285Y-30703571D02*
X74989285Y-30703571D01*
X75525000Y-30453571D01*
X74989285Y-30203571D01*
X75739285Y-30203571D01*
X75739285Y-29846428D02*
X74989285Y-29846428D01*
X75667857Y-29060714D02*
X75703571Y-29096428D01*
X75739285Y-29203571D01*
X75739285Y-29275000D01*
X75703571Y-29382142D01*
X75632142Y-29453571D01*
X75560714Y-29489285D01*
X75417857Y-29525000D01*
X75310714Y-29525000D01*
X75167857Y-29489285D01*
X75096428Y-29453571D01*
X75025000Y-29382142D01*
X74989285Y-29275000D01*
X74989285Y-29203571D01*
X75025000Y-29096428D01*
X75060714Y-29060714D01*
%TO.C,C37*%
X45902857Y-43677857D02*
X45867142Y-43713571D01*
X45760000Y-43749285D01*
X45688571Y-43749285D01*
X45581428Y-43713571D01*
X45510000Y-43642142D01*
X45474285Y-43570714D01*
X45438571Y-43427857D01*
X45438571Y-43320714D01*
X45474285Y-43177857D01*
X45510000Y-43106428D01*
X45581428Y-43035000D01*
X45688571Y-42999285D01*
X45760000Y-42999285D01*
X45867142Y-43035000D01*
X45902857Y-43070714D01*
X46152857Y-42999285D02*
X46617142Y-42999285D01*
X46367142Y-43285000D01*
X46474285Y-43285000D01*
X46545714Y-43320714D01*
X46581428Y-43356428D01*
X46617142Y-43427857D01*
X46617142Y-43606428D01*
X46581428Y-43677857D01*
X46545714Y-43713571D01*
X46474285Y-43749285D01*
X46260000Y-43749285D01*
X46188571Y-43713571D01*
X46152857Y-43677857D01*
X46867142Y-42999285D02*
X47367142Y-42999285D01*
X47045714Y-43749285D01*
%TO.C,C67*%
X45902857Y-40877857D02*
X45867142Y-40913571D01*
X45760000Y-40949285D01*
X45688571Y-40949285D01*
X45581428Y-40913571D01*
X45510000Y-40842142D01*
X45474285Y-40770714D01*
X45438571Y-40627857D01*
X45438571Y-40520714D01*
X45474285Y-40377857D01*
X45510000Y-40306428D01*
X45581428Y-40235000D01*
X45688571Y-40199285D01*
X45760000Y-40199285D01*
X45867142Y-40235000D01*
X45902857Y-40270714D01*
X46545714Y-40199285D02*
X46402857Y-40199285D01*
X46331428Y-40235000D01*
X46295714Y-40270714D01*
X46224285Y-40377857D01*
X46188571Y-40520714D01*
X46188571Y-40806428D01*
X46224285Y-40877857D01*
X46260000Y-40913571D01*
X46331428Y-40949285D01*
X46474285Y-40949285D01*
X46545714Y-40913571D01*
X46581428Y-40877857D01*
X46617142Y-40806428D01*
X46617142Y-40627857D01*
X46581428Y-40556428D01*
X46545714Y-40520714D01*
X46474285Y-40485000D01*
X46331428Y-40485000D01*
X46260000Y-40520714D01*
X46224285Y-40556428D01*
X46188571Y-40627857D01*
X46867142Y-40199285D02*
X47367142Y-40199285D01*
X47045714Y-40949285D01*
%TO.C,C55*%
X45102857Y-53677857D02*
X45067142Y-53713571D01*
X44960000Y-53749285D01*
X44888571Y-53749285D01*
X44781428Y-53713571D01*
X44710000Y-53642142D01*
X44674285Y-53570714D01*
X44638571Y-53427857D01*
X44638571Y-53320714D01*
X44674285Y-53177857D01*
X44710000Y-53106428D01*
X44781428Y-53035000D01*
X44888571Y-52999285D01*
X44960000Y-52999285D01*
X45067142Y-53035000D01*
X45102857Y-53070714D01*
X45781428Y-52999285D02*
X45424285Y-52999285D01*
X45388571Y-53356428D01*
X45424285Y-53320714D01*
X45495714Y-53285000D01*
X45674285Y-53285000D01*
X45745714Y-53320714D01*
X45781428Y-53356428D01*
X45817142Y-53427857D01*
X45817142Y-53606428D01*
X45781428Y-53677857D01*
X45745714Y-53713571D01*
X45674285Y-53749285D01*
X45495714Y-53749285D01*
X45424285Y-53713571D01*
X45388571Y-53677857D01*
X46495714Y-52999285D02*
X46138571Y-52999285D01*
X46102857Y-53356428D01*
X46138571Y-53320714D01*
X46210000Y-53285000D01*
X46388571Y-53285000D01*
X46460000Y-53320714D01*
X46495714Y-53356428D01*
X46531428Y-53427857D01*
X46531428Y-53606428D01*
X46495714Y-53677857D01*
X46460000Y-53713571D01*
X46388571Y-53749285D01*
X46210000Y-53749285D01*
X46138571Y-53713571D01*
X46102857Y-53677857D01*
%TO.C,R26*%
X84739285Y-46682142D02*
X84382142Y-46932142D01*
X84739285Y-47110714D02*
X83989285Y-47110714D01*
X83989285Y-46825000D01*
X84025000Y-46753571D01*
X84060714Y-46717857D01*
X84132142Y-46682142D01*
X84239285Y-46682142D01*
X84310714Y-46717857D01*
X84346428Y-46753571D01*
X84382142Y-46825000D01*
X84382142Y-47110714D01*
X84060714Y-46396428D02*
X84025000Y-46360714D01*
X83989285Y-46289285D01*
X83989285Y-46110714D01*
X84025000Y-46039285D01*
X84060714Y-46003571D01*
X84132142Y-45967857D01*
X84203571Y-45967857D01*
X84310714Y-46003571D01*
X84739285Y-46432142D01*
X84739285Y-45967857D01*
X83989285Y-45325000D02*
X83989285Y-45467857D01*
X84025000Y-45539285D01*
X84060714Y-45575000D01*
X84167857Y-45646428D01*
X84310714Y-45682142D01*
X84596428Y-45682142D01*
X84667857Y-45646428D01*
X84703571Y-45610714D01*
X84739285Y-45539285D01*
X84739285Y-45396428D01*
X84703571Y-45325000D01*
X84667857Y-45289285D01*
X84596428Y-45253571D01*
X84417857Y-45253571D01*
X84346428Y-45289285D01*
X84310714Y-45325000D01*
X84275000Y-45396428D01*
X84275000Y-45539285D01*
X84310714Y-45610714D01*
X84346428Y-45646428D01*
X84417857Y-45682142D01*
%TO.C,C62*%
X75417857Y-45167857D02*
X75382142Y-45203571D01*
X75275000Y-45239285D01*
X75203571Y-45239285D01*
X75096428Y-45203571D01*
X75025000Y-45132142D01*
X74989285Y-45060714D01*
X74953571Y-44917857D01*
X74953571Y-44810714D01*
X74989285Y-44667857D01*
X75025000Y-44596428D01*
X75096428Y-44525000D01*
X75203571Y-44489285D01*
X75275000Y-44489285D01*
X75382142Y-44525000D01*
X75417857Y-44560714D01*
X76060714Y-44489285D02*
X75917857Y-44489285D01*
X75846428Y-44525000D01*
X75810714Y-44560714D01*
X75739285Y-44667857D01*
X75703571Y-44810714D01*
X75703571Y-45096428D01*
X75739285Y-45167857D01*
X75775000Y-45203571D01*
X75846428Y-45239285D01*
X75989285Y-45239285D01*
X76060714Y-45203571D01*
X76096428Y-45167857D01*
X76132142Y-45096428D01*
X76132142Y-44917857D01*
X76096428Y-44846428D01*
X76060714Y-44810714D01*
X75989285Y-44775000D01*
X75846428Y-44775000D01*
X75775000Y-44810714D01*
X75739285Y-44846428D01*
X75703571Y-44917857D01*
X76417857Y-44560714D02*
X76453571Y-44525000D01*
X76525000Y-44489285D01*
X76703571Y-44489285D01*
X76775000Y-44525000D01*
X76810714Y-44560714D01*
X76846428Y-44632142D01*
X76846428Y-44703571D01*
X76810714Y-44810714D01*
X76382142Y-45239285D01*
X76846428Y-45239285D01*
%TO.C,D13*%
X34339285Y-76210714D02*
X33589285Y-76210714D01*
X33589285Y-76032142D01*
X33625000Y-75925000D01*
X33696428Y-75853571D01*
X33767857Y-75817857D01*
X33910714Y-75782142D01*
X34017857Y-75782142D01*
X34160714Y-75817857D01*
X34232142Y-75853571D01*
X34303571Y-75925000D01*
X34339285Y-76032142D01*
X34339285Y-76210714D01*
X34339285Y-75067857D02*
X34339285Y-75496428D01*
X34339285Y-75282142D02*
X33589285Y-75282142D01*
X33696428Y-75353571D01*
X33767857Y-75425000D01*
X33803571Y-75496428D01*
X33589285Y-74817857D02*
X33589285Y-74353571D01*
X33875000Y-74603571D01*
X33875000Y-74496428D01*
X33910714Y-74425000D01*
X33946428Y-74389285D01*
X34017857Y-74353571D01*
X34196428Y-74353571D01*
X34267857Y-74389285D01*
X34303571Y-74425000D01*
X34339285Y-74496428D01*
X34339285Y-74710714D01*
X34303571Y-74782142D01*
X34267857Y-74817857D01*
%TO.C,D12*%
X35539285Y-76210714D02*
X34789285Y-76210714D01*
X34789285Y-76032142D01*
X34825000Y-75925000D01*
X34896428Y-75853571D01*
X34967857Y-75817857D01*
X35110714Y-75782142D01*
X35217857Y-75782142D01*
X35360714Y-75817857D01*
X35432142Y-75853571D01*
X35503571Y-75925000D01*
X35539285Y-76032142D01*
X35539285Y-76210714D01*
X35539285Y-75067857D02*
X35539285Y-75496428D01*
X35539285Y-75282142D02*
X34789285Y-75282142D01*
X34896428Y-75353571D01*
X34967857Y-75425000D01*
X35003571Y-75496428D01*
X34860714Y-74782142D02*
X34825000Y-74746428D01*
X34789285Y-74675000D01*
X34789285Y-74496428D01*
X34825000Y-74425000D01*
X34860714Y-74389285D01*
X34932142Y-74353571D01*
X35003571Y-74353571D01*
X35110714Y-74389285D01*
X35539285Y-74817857D01*
X35539285Y-74353571D01*
%TO.C,C68*%
X24517857Y-43167857D02*
X24482142Y-43203571D01*
X24375000Y-43239285D01*
X24303571Y-43239285D01*
X24196428Y-43203571D01*
X24125000Y-43132142D01*
X24089285Y-43060714D01*
X24053571Y-42917857D01*
X24053571Y-42810714D01*
X24089285Y-42667857D01*
X24125000Y-42596428D01*
X24196428Y-42525000D01*
X24303571Y-42489285D01*
X24375000Y-42489285D01*
X24482142Y-42525000D01*
X24517857Y-42560714D01*
X25160714Y-42489285D02*
X25017857Y-42489285D01*
X24946428Y-42525000D01*
X24910714Y-42560714D01*
X24839285Y-42667857D01*
X24803571Y-42810714D01*
X24803571Y-43096428D01*
X24839285Y-43167857D01*
X24875000Y-43203571D01*
X24946428Y-43239285D01*
X25089285Y-43239285D01*
X25160714Y-43203571D01*
X25196428Y-43167857D01*
X25232142Y-43096428D01*
X25232142Y-42917857D01*
X25196428Y-42846428D01*
X25160714Y-42810714D01*
X25089285Y-42775000D01*
X24946428Y-42775000D01*
X24875000Y-42810714D01*
X24839285Y-42846428D01*
X24803571Y-42917857D01*
X25660714Y-42810714D02*
X25589285Y-42775000D01*
X25553571Y-42739285D01*
X25517857Y-42667857D01*
X25517857Y-42632142D01*
X25553571Y-42560714D01*
X25589285Y-42525000D01*
X25660714Y-42489285D01*
X25803571Y-42489285D01*
X25875000Y-42525000D01*
X25910714Y-42560714D01*
X25946428Y-42632142D01*
X25946428Y-42667857D01*
X25910714Y-42739285D01*
X25875000Y-42775000D01*
X25803571Y-42810714D01*
X25660714Y-42810714D01*
X25589285Y-42846428D01*
X25553571Y-42882142D01*
X25517857Y-42953571D01*
X25517857Y-43096428D01*
X25553571Y-43167857D01*
X25589285Y-43203571D01*
X25660714Y-43239285D01*
X25803571Y-43239285D01*
X25875000Y-43203571D01*
X25910714Y-43167857D01*
X25946428Y-43096428D01*
X25946428Y-42953571D01*
X25910714Y-42882142D01*
X25875000Y-42846428D01*
X25803571Y-42810714D01*
D12*
%TO.C,J4*%
X15466666Y-27752380D02*
X15466666Y-28466666D01*
X15419047Y-28609523D01*
X15323809Y-28704761D01*
X15180952Y-28752380D01*
X15085714Y-28752380D01*
X16371428Y-28085714D02*
X16371428Y-28752380D01*
X16133333Y-27704761D02*
X15895238Y-28419047D01*
X16514285Y-28419047D01*
D11*
%TO.C,C46*%
X88317857Y-71067857D02*
X88282142Y-71103571D01*
X88175000Y-71139285D01*
X88103571Y-71139285D01*
X87996428Y-71103571D01*
X87925000Y-71032142D01*
X87889285Y-70960714D01*
X87853571Y-70817857D01*
X87853571Y-70710714D01*
X87889285Y-70567857D01*
X87925000Y-70496428D01*
X87996428Y-70425000D01*
X88103571Y-70389285D01*
X88175000Y-70389285D01*
X88282142Y-70425000D01*
X88317857Y-70460714D01*
X88960714Y-70639285D02*
X88960714Y-71139285D01*
X88782142Y-70353571D02*
X88603571Y-70889285D01*
X89067857Y-70889285D01*
X89675000Y-70389285D02*
X89532142Y-70389285D01*
X89460714Y-70425000D01*
X89425000Y-70460714D01*
X89353571Y-70567857D01*
X89317857Y-70710714D01*
X89317857Y-70996428D01*
X89353571Y-71067857D01*
X89389285Y-71103571D01*
X89460714Y-71139285D01*
X89603571Y-71139285D01*
X89675000Y-71103571D01*
X89710714Y-71067857D01*
X89746428Y-70996428D01*
X89746428Y-70817857D01*
X89710714Y-70746428D01*
X89675000Y-70710714D01*
X89603571Y-70675000D01*
X89460714Y-70675000D01*
X89389285Y-70710714D01*
X89353571Y-70746428D01*
X89317857Y-70817857D01*
%TO.C,C19*%
X74777857Y-42797142D02*
X74813571Y-42832857D01*
X74849285Y-42940000D01*
X74849285Y-43011428D01*
X74813571Y-43118571D01*
X74742142Y-43190000D01*
X74670714Y-43225714D01*
X74527857Y-43261428D01*
X74420714Y-43261428D01*
X74277857Y-43225714D01*
X74206428Y-43190000D01*
X74135000Y-43118571D01*
X74099285Y-43011428D01*
X74099285Y-42940000D01*
X74135000Y-42832857D01*
X74170714Y-42797142D01*
X74849285Y-42082857D02*
X74849285Y-42511428D01*
X74849285Y-42297142D02*
X74099285Y-42297142D01*
X74206428Y-42368571D01*
X74277857Y-42440000D01*
X74313571Y-42511428D01*
X74849285Y-41725714D02*
X74849285Y-41582857D01*
X74813571Y-41511428D01*
X74777857Y-41475714D01*
X74670714Y-41404285D01*
X74527857Y-41368571D01*
X74242142Y-41368571D01*
X74170714Y-41404285D01*
X74135000Y-41440000D01*
X74099285Y-41511428D01*
X74099285Y-41654285D01*
X74135000Y-41725714D01*
X74170714Y-41761428D01*
X74242142Y-41797142D01*
X74420714Y-41797142D01*
X74492142Y-41761428D01*
X74527857Y-41725714D01*
X74563571Y-41654285D01*
X74563571Y-41511428D01*
X74527857Y-41440000D01*
X74492142Y-41404285D01*
X74420714Y-41368571D01*
%TO.C,C28*%
X30717857Y-61967857D02*
X30682142Y-62003571D01*
X30575000Y-62039285D01*
X30503571Y-62039285D01*
X30396428Y-62003571D01*
X30325000Y-61932142D01*
X30289285Y-61860714D01*
X30253571Y-61717857D01*
X30253571Y-61610714D01*
X30289285Y-61467857D01*
X30325000Y-61396428D01*
X30396428Y-61325000D01*
X30503571Y-61289285D01*
X30575000Y-61289285D01*
X30682142Y-61325000D01*
X30717857Y-61360714D01*
X31003571Y-61360714D02*
X31039285Y-61325000D01*
X31110714Y-61289285D01*
X31289285Y-61289285D01*
X31360714Y-61325000D01*
X31396428Y-61360714D01*
X31432142Y-61432142D01*
X31432142Y-61503571D01*
X31396428Y-61610714D01*
X30967857Y-62039285D01*
X31432142Y-62039285D01*
X31860714Y-61610714D02*
X31789285Y-61575000D01*
X31753571Y-61539285D01*
X31717857Y-61467857D01*
X31717857Y-61432142D01*
X31753571Y-61360714D01*
X31789285Y-61325000D01*
X31860714Y-61289285D01*
X32003571Y-61289285D01*
X32075000Y-61325000D01*
X32110714Y-61360714D01*
X32146428Y-61432142D01*
X32146428Y-61467857D01*
X32110714Y-61539285D01*
X32075000Y-61575000D01*
X32003571Y-61610714D01*
X31860714Y-61610714D01*
X31789285Y-61646428D01*
X31753571Y-61682142D01*
X31717857Y-61753571D01*
X31717857Y-61896428D01*
X31753571Y-61967857D01*
X31789285Y-62003571D01*
X31860714Y-62039285D01*
X32003571Y-62039285D01*
X32075000Y-62003571D01*
X32110714Y-61967857D01*
X32146428Y-61896428D01*
X32146428Y-61753571D01*
X32110714Y-61682142D01*
X32075000Y-61646428D01*
X32003571Y-61610714D01*
%TO.C,R113*%
X36739285Y-73139285D02*
X36382142Y-73389285D01*
X36739285Y-73567857D02*
X35989285Y-73567857D01*
X35989285Y-73282142D01*
X36025000Y-73210714D01*
X36060714Y-73175000D01*
X36132142Y-73139285D01*
X36239285Y-73139285D01*
X36310714Y-73175000D01*
X36346428Y-73210714D01*
X36382142Y-73282142D01*
X36382142Y-73567857D01*
X36739285Y-72425000D02*
X36739285Y-72853571D01*
X36739285Y-72639285D02*
X35989285Y-72639285D01*
X36096428Y-72710714D01*
X36167857Y-72782142D01*
X36203571Y-72853571D01*
X36739285Y-71710714D02*
X36739285Y-72139285D01*
X36739285Y-71925000D02*
X35989285Y-71925000D01*
X36096428Y-71996428D01*
X36167857Y-72067857D01*
X36203571Y-72139285D01*
X35989285Y-71460714D02*
X35989285Y-70996428D01*
X36275000Y-71246428D01*
X36275000Y-71139285D01*
X36310714Y-71067857D01*
X36346428Y-71032142D01*
X36417857Y-70996428D01*
X36596428Y-70996428D01*
X36667857Y-71032142D01*
X36703571Y-71067857D01*
X36739285Y-71139285D01*
X36739285Y-71353571D01*
X36703571Y-71425000D01*
X36667857Y-71460714D01*
%TO.C,C65*%
X66167857Y-31382142D02*
X66203571Y-31417857D01*
X66239285Y-31525000D01*
X66239285Y-31596428D01*
X66203571Y-31703571D01*
X66132142Y-31775000D01*
X66060714Y-31810714D01*
X65917857Y-31846428D01*
X65810714Y-31846428D01*
X65667857Y-31810714D01*
X65596428Y-31775000D01*
X65525000Y-31703571D01*
X65489285Y-31596428D01*
X65489285Y-31525000D01*
X65525000Y-31417857D01*
X65560714Y-31382142D01*
X65489285Y-30739285D02*
X65489285Y-30882142D01*
X65525000Y-30953571D01*
X65560714Y-30989285D01*
X65667857Y-31060714D01*
X65810714Y-31096428D01*
X66096428Y-31096428D01*
X66167857Y-31060714D01*
X66203571Y-31025000D01*
X66239285Y-30953571D01*
X66239285Y-30810714D01*
X66203571Y-30739285D01*
X66167857Y-30703571D01*
X66096428Y-30667857D01*
X65917857Y-30667857D01*
X65846428Y-30703571D01*
X65810714Y-30739285D01*
X65775000Y-30810714D01*
X65775000Y-30953571D01*
X65810714Y-31025000D01*
X65846428Y-31060714D01*
X65917857Y-31096428D01*
X65489285Y-29989285D02*
X65489285Y-30346428D01*
X65846428Y-30382142D01*
X65810714Y-30346428D01*
X65775000Y-30275000D01*
X65775000Y-30096428D01*
X65810714Y-30025000D01*
X65846428Y-29989285D01*
X65917857Y-29953571D01*
X66096428Y-29953571D01*
X66167857Y-29989285D01*
X66203571Y-30025000D01*
X66239285Y-30096428D01*
X66239285Y-30275000D01*
X66203571Y-30346428D01*
X66167857Y-30382142D01*
%TO.C,C56*%
X59817857Y-32367857D02*
X59782142Y-32403571D01*
X59675000Y-32439285D01*
X59603571Y-32439285D01*
X59496428Y-32403571D01*
X59425000Y-32332142D01*
X59389285Y-32260714D01*
X59353571Y-32117857D01*
X59353571Y-32010714D01*
X59389285Y-31867857D01*
X59425000Y-31796428D01*
X59496428Y-31725000D01*
X59603571Y-31689285D01*
X59675000Y-31689285D01*
X59782142Y-31725000D01*
X59817857Y-31760714D01*
X60496428Y-31689285D02*
X60139285Y-31689285D01*
X60103571Y-32046428D01*
X60139285Y-32010714D01*
X60210714Y-31975000D01*
X60389285Y-31975000D01*
X60460714Y-32010714D01*
X60496428Y-32046428D01*
X60532142Y-32117857D01*
X60532142Y-32296428D01*
X60496428Y-32367857D01*
X60460714Y-32403571D01*
X60389285Y-32439285D01*
X60210714Y-32439285D01*
X60139285Y-32403571D01*
X60103571Y-32367857D01*
X61175000Y-31689285D02*
X61032142Y-31689285D01*
X60960714Y-31725000D01*
X60925000Y-31760714D01*
X60853571Y-31867857D01*
X60817857Y-32010714D01*
X60817857Y-32296428D01*
X60853571Y-32367857D01*
X60889285Y-32403571D01*
X60960714Y-32439285D01*
X61103571Y-32439285D01*
X61175000Y-32403571D01*
X61210714Y-32367857D01*
X61246428Y-32296428D01*
X61246428Y-32117857D01*
X61210714Y-32046428D01*
X61175000Y-32010714D01*
X61103571Y-31975000D01*
X60960714Y-31975000D01*
X60889285Y-32010714D01*
X60853571Y-32046428D01*
X60817857Y-32117857D01*
%TO.C,C50*%
X63167857Y-59782142D02*
X63203571Y-59817857D01*
X63239285Y-59925000D01*
X63239285Y-59996428D01*
X63203571Y-60103571D01*
X63132142Y-60175000D01*
X63060714Y-60210714D01*
X62917857Y-60246428D01*
X62810714Y-60246428D01*
X62667857Y-60210714D01*
X62596428Y-60175000D01*
X62525000Y-60103571D01*
X62489285Y-59996428D01*
X62489285Y-59925000D01*
X62525000Y-59817857D01*
X62560714Y-59782142D01*
X62489285Y-59103571D02*
X62489285Y-59460714D01*
X62846428Y-59496428D01*
X62810714Y-59460714D01*
X62775000Y-59389285D01*
X62775000Y-59210714D01*
X62810714Y-59139285D01*
X62846428Y-59103571D01*
X62917857Y-59067857D01*
X63096428Y-59067857D01*
X63167857Y-59103571D01*
X63203571Y-59139285D01*
X63239285Y-59210714D01*
X63239285Y-59389285D01*
X63203571Y-59460714D01*
X63167857Y-59496428D01*
X62489285Y-58603571D02*
X62489285Y-58532142D01*
X62525000Y-58460714D01*
X62560714Y-58425000D01*
X62632142Y-58389285D01*
X62775000Y-58353571D01*
X62953571Y-58353571D01*
X63096428Y-58389285D01*
X63167857Y-58425000D01*
X63203571Y-58460714D01*
X63239285Y-58532142D01*
X63239285Y-58603571D01*
X63203571Y-58675000D01*
X63167857Y-58710714D01*
X63096428Y-58746428D01*
X62953571Y-58782142D01*
X62775000Y-58782142D01*
X62632142Y-58746428D01*
X62560714Y-58710714D01*
X62525000Y-58675000D01*
X62489285Y-58603571D01*
%TO.C,D10*%
X36739285Y-76210714D02*
X35989285Y-76210714D01*
X35989285Y-76032142D01*
X36025000Y-75925000D01*
X36096428Y-75853571D01*
X36167857Y-75817857D01*
X36310714Y-75782142D01*
X36417857Y-75782142D01*
X36560714Y-75817857D01*
X36632142Y-75853571D01*
X36703571Y-75925000D01*
X36739285Y-76032142D01*
X36739285Y-76210714D01*
X36739285Y-75067857D02*
X36739285Y-75496428D01*
X36739285Y-75282142D02*
X35989285Y-75282142D01*
X36096428Y-75353571D01*
X36167857Y-75425000D01*
X36203571Y-75496428D01*
X35989285Y-74603571D02*
X35989285Y-74532142D01*
X36025000Y-74460714D01*
X36060714Y-74425000D01*
X36132142Y-74389285D01*
X36275000Y-74353571D01*
X36453571Y-74353571D01*
X36596428Y-74389285D01*
X36667857Y-74425000D01*
X36703571Y-74460714D01*
X36739285Y-74532142D01*
X36739285Y-74603571D01*
X36703571Y-74675000D01*
X36667857Y-74710714D01*
X36596428Y-74746428D01*
X36453571Y-74782142D01*
X36275000Y-74782142D01*
X36132142Y-74746428D01*
X36060714Y-74710714D01*
X36025000Y-74675000D01*
X35989285Y-74603571D01*
%TO.C,C41*%
X73817857Y-76067857D02*
X73782142Y-76103571D01*
X73675000Y-76139285D01*
X73603571Y-76139285D01*
X73496428Y-76103571D01*
X73425000Y-76032142D01*
X73389285Y-75960714D01*
X73353571Y-75817857D01*
X73353571Y-75710714D01*
X73389285Y-75567857D01*
X73425000Y-75496428D01*
X73496428Y-75425000D01*
X73603571Y-75389285D01*
X73675000Y-75389285D01*
X73782142Y-75425000D01*
X73817857Y-75460714D01*
X74460714Y-75639285D02*
X74460714Y-76139285D01*
X74282142Y-75353571D02*
X74103571Y-75889285D01*
X74567857Y-75889285D01*
X75246428Y-76139285D02*
X74817857Y-76139285D01*
X75032142Y-76139285D02*
X75032142Y-75389285D01*
X74960714Y-75496428D01*
X74889285Y-75567857D01*
X74817857Y-75603571D01*
%TO.C,J6*%
X42585714Y-59139285D02*
X42585714Y-58639285D01*
X42585714Y-58782142D02*
X42621428Y-58710714D01*
X42657142Y-58675000D01*
X42728571Y-58639285D01*
X42800000Y-58639285D01*
X43335714Y-59103571D02*
X43264285Y-59139285D01*
X43121428Y-59139285D01*
X43050000Y-59103571D01*
X43014285Y-59032142D01*
X43014285Y-58746428D01*
X43050000Y-58675000D01*
X43121428Y-58639285D01*
X43264285Y-58639285D01*
X43335714Y-58675000D01*
X43371428Y-58746428D01*
X43371428Y-58817857D01*
X43014285Y-58889285D01*
X43657142Y-59103571D02*
X43728571Y-59139285D01*
X43871428Y-59139285D01*
X43942857Y-59103571D01*
X43978571Y-59032142D01*
X43978571Y-58996428D01*
X43942857Y-58925000D01*
X43871428Y-58889285D01*
X43764285Y-58889285D01*
X43692857Y-58853571D01*
X43657142Y-58782142D01*
X43657142Y-58746428D01*
X43692857Y-58675000D01*
X43764285Y-58639285D01*
X43871428Y-58639285D01*
X43942857Y-58675000D01*
X44585714Y-59103571D02*
X44514285Y-59139285D01*
X44371428Y-59139285D01*
X44300000Y-59103571D01*
X44264285Y-59032142D01*
X44264285Y-58746428D01*
X44300000Y-58675000D01*
X44371428Y-58639285D01*
X44514285Y-58639285D01*
X44585714Y-58675000D01*
X44621428Y-58746428D01*
X44621428Y-58817857D01*
X44264285Y-58889285D01*
X44835714Y-58639285D02*
X45121428Y-58639285D01*
X44942857Y-58389285D02*
X44942857Y-59032142D01*
X44978571Y-59103571D01*
X45050000Y-59139285D01*
X45121428Y-59139285D01*
%TO.C,C35*%
X62967857Y-62982142D02*
X63003571Y-63017857D01*
X63039285Y-63125000D01*
X63039285Y-63196428D01*
X63003571Y-63303571D01*
X62932142Y-63375000D01*
X62860714Y-63410714D01*
X62717857Y-63446428D01*
X62610714Y-63446428D01*
X62467857Y-63410714D01*
X62396428Y-63375000D01*
X62325000Y-63303571D01*
X62289285Y-63196428D01*
X62289285Y-63125000D01*
X62325000Y-63017857D01*
X62360714Y-62982142D01*
X62289285Y-62732142D02*
X62289285Y-62267857D01*
X62575000Y-62517857D01*
X62575000Y-62410714D01*
X62610714Y-62339285D01*
X62646428Y-62303571D01*
X62717857Y-62267857D01*
X62896428Y-62267857D01*
X62967857Y-62303571D01*
X63003571Y-62339285D01*
X63039285Y-62410714D01*
X63039285Y-62625000D01*
X63003571Y-62696428D01*
X62967857Y-62732142D01*
X62289285Y-61589285D02*
X62289285Y-61946428D01*
X62646428Y-61982142D01*
X62610714Y-61946428D01*
X62575000Y-61875000D01*
X62575000Y-61696428D01*
X62610714Y-61625000D01*
X62646428Y-61589285D01*
X62717857Y-61553571D01*
X62896428Y-61553571D01*
X62967857Y-61589285D01*
X63003571Y-61625000D01*
X63039285Y-61696428D01*
X63039285Y-61875000D01*
X63003571Y-61946428D01*
X62967857Y-61982142D01*
%TO.C,R116*%
X34339285Y-73139285D02*
X33982142Y-73389285D01*
X34339285Y-73567857D02*
X33589285Y-73567857D01*
X33589285Y-73282142D01*
X33625000Y-73210714D01*
X33660714Y-73175000D01*
X33732142Y-73139285D01*
X33839285Y-73139285D01*
X33910714Y-73175000D01*
X33946428Y-73210714D01*
X33982142Y-73282142D01*
X33982142Y-73567857D01*
X34339285Y-72425000D02*
X34339285Y-72853571D01*
X34339285Y-72639285D02*
X33589285Y-72639285D01*
X33696428Y-72710714D01*
X33767857Y-72782142D01*
X33803571Y-72853571D01*
X34339285Y-71710714D02*
X34339285Y-72139285D01*
X34339285Y-71925000D02*
X33589285Y-71925000D01*
X33696428Y-71996428D01*
X33767857Y-72067857D01*
X33803571Y-72139285D01*
X33589285Y-71067857D02*
X33589285Y-71210714D01*
X33625000Y-71282142D01*
X33660714Y-71317857D01*
X33767857Y-71389285D01*
X33910714Y-71425000D01*
X34196428Y-71425000D01*
X34267857Y-71389285D01*
X34303571Y-71353571D01*
X34339285Y-71282142D01*
X34339285Y-71139285D01*
X34303571Y-71067857D01*
X34267857Y-71032142D01*
X34196428Y-70996428D01*
X34017857Y-70996428D01*
X33946428Y-71032142D01*
X33910714Y-71067857D01*
X33875000Y-71139285D01*
X33875000Y-71282142D01*
X33910714Y-71353571D01*
X33946428Y-71389285D01*
X34017857Y-71425000D01*
%TO.C,J5*%
X34639285Y-67471428D02*
X35139285Y-67471428D01*
X34639285Y-67792857D02*
X35032142Y-67792857D01*
X35103571Y-67757142D01*
X35139285Y-67685714D01*
X35139285Y-67578571D01*
X35103571Y-67507142D01*
X35067857Y-67471428D01*
X35139285Y-67114285D02*
X34389285Y-67114285D01*
X34675000Y-67114285D02*
X34639285Y-67042857D01*
X34639285Y-66900000D01*
X34675000Y-66828571D01*
X34710714Y-66792857D01*
X34782142Y-66757142D01*
X34996428Y-66757142D01*
X35067857Y-66792857D01*
X35103571Y-66828571D01*
X35139285Y-66900000D01*
X35139285Y-67042857D01*
X35103571Y-67114285D01*
X35139285Y-66328571D02*
X35103571Y-66400000D01*
X35067857Y-66435714D01*
X34996428Y-66471428D01*
X34782142Y-66471428D01*
X34710714Y-66435714D01*
X34675000Y-66400000D01*
X34639285Y-66328571D01*
X34639285Y-66221428D01*
X34675000Y-66150000D01*
X34710714Y-66114285D01*
X34782142Y-66078571D01*
X34996428Y-66078571D01*
X35067857Y-66114285D01*
X35103571Y-66150000D01*
X35139285Y-66221428D01*
X35139285Y-66328571D01*
X35139285Y-65650000D02*
X35103571Y-65721428D01*
X35067857Y-65757142D01*
X34996428Y-65792857D01*
X34782142Y-65792857D01*
X34710714Y-65757142D01*
X34675000Y-65721428D01*
X34639285Y-65650000D01*
X34639285Y-65542857D01*
X34675000Y-65471428D01*
X34710714Y-65435714D01*
X34782142Y-65400000D01*
X34996428Y-65400000D01*
X35067857Y-65435714D01*
X35103571Y-65471428D01*
X35139285Y-65542857D01*
X35139285Y-65650000D01*
X34639285Y-65185714D02*
X34639285Y-64900000D01*
X34389285Y-65078571D02*
X35032142Y-65078571D01*
X35103571Y-65042857D01*
X35139285Y-64971428D01*
X35139285Y-64900000D01*
%TO.C,C59*%
X65567857Y-62982142D02*
X65603571Y-63017857D01*
X65639285Y-63125000D01*
X65639285Y-63196428D01*
X65603571Y-63303571D01*
X65532142Y-63375000D01*
X65460714Y-63410714D01*
X65317857Y-63446428D01*
X65210714Y-63446428D01*
X65067857Y-63410714D01*
X64996428Y-63375000D01*
X64925000Y-63303571D01*
X64889285Y-63196428D01*
X64889285Y-63125000D01*
X64925000Y-63017857D01*
X64960714Y-62982142D01*
X64889285Y-62303571D02*
X64889285Y-62660714D01*
X65246428Y-62696428D01*
X65210714Y-62660714D01*
X65175000Y-62589285D01*
X65175000Y-62410714D01*
X65210714Y-62339285D01*
X65246428Y-62303571D01*
X65317857Y-62267857D01*
X65496428Y-62267857D01*
X65567857Y-62303571D01*
X65603571Y-62339285D01*
X65639285Y-62410714D01*
X65639285Y-62589285D01*
X65603571Y-62660714D01*
X65567857Y-62696428D01*
X65639285Y-61910714D02*
X65639285Y-61767857D01*
X65603571Y-61696428D01*
X65567857Y-61660714D01*
X65460714Y-61589285D01*
X65317857Y-61553571D01*
X65032142Y-61553571D01*
X64960714Y-61589285D01*
X64925000Y-61625000D01*
X64889285Y-61696428D01*
X64889285Y-61839285D01*
X64925000Y-61910714D01*
X64960714Y-61946428D01*
X65032142Y-61982142D01*
X65210714Y-61982142D01*
X65282142Y-61946428D01*
X65317857Y-61910714D01*
X65353571Y-61839285D01*
X65353571Y-61696428D01*
X65317857Y-61625000D01*
X65282142Y-61589285D01*
X65210714Y-61553571D01*
%TO.C,R80*%
X25339285Y-56682142D02*
X24982142Y-56932142D01*
X25339285Y-57110714D02*
X24589285Y-57110714D01*
X24589285Y-56825000D01*
X24625000Y-56753571D01*
X24660714Y-56717857D01*
X24732142Y-56682142D01*
X24839285Y-56682142D01*
X24910714Y-56717857D01*
X24946428Y-56753571D01*
X24982142Y-56825000D01*
X24982142Y-57110714D01*
X24910714Y-56253571D02*
X24875000Y-56325000D01*
X24839285Y-56360714D01*
X24767857Y-56396428D01*
X24732142Y-56396428D01*
X24660714Y-56360714D01*
X24625000Y-56325000D01*
X24589285Y-56253571D01*
X24589285Y-56110714D01*
X24625000Y-56039285D01*
X24660714Y-56003571D01*
X24732142Y-55967857D01*
X24767857Y-55967857D01*
X24839285Y-56003571D01*
X24875000Y-56039285D01*
X24910714Y-56110714D01*
X24910714Y-56253571D01*
X24946428Y-56325000D01*
X24982142Y-56360714D01*
X25053571Y-56396428D01*
X25196428Y-56396428D01*
X25267857Y-56360714D01*
X25303571Y-56325000D01*
X25339285Y-56253571D01*
X25339285Y-56110714D01*
X25303571Y-56039285D01*
X25267857Y-56003571D01*
X25196428Y-55967857D01*
X25053571Y-55967857D01*
X24982142Y-56003571D01*
X24946428Y-56039285D01*
X24910714Y-56110714D01*
X24589285Y-55503571D02*
X24589285Y-55432142D01*
X24625000Y-55360714D01*
X24660714Y-55325000D01*
X24732142Y-55289285D01*
X24875000Y-55253571D01*
X25053571Y-55253571D01*
X25196428Y-55289285D01*
X25267857Y-55325000D01*
X25303571Y-55360714D01*
X25339285Y-55432142D01*
X25339285Y-55503571D01*
X25303571Y-55575000D01*
X25267857Y-55610714D01*
X25196428Y-55646428D01*
X25053571Y-55682142D01*
X24875000Y-55682142D01*
X24732142Y-55646428D01*
X24660714Y-55610714D01*
X24625000Y-55575000D01*
X24589285Y-55503571D01*
%TO.C,R81*%
X25339285Y-54382142D02*
X24982142Y-54632142D01*
X25339285Y-54810714D02*
X24589285Y-54810714D01*
X24589285Y-54525000D01*
X24625000Y-54453571D01*
X24660714Y-54417857D01*
X24732142Y-54382142D01*
X24839285Y-54382142D01*
X24910714Y-54417857D01*
X24946428Y-54453571D01*
X24982142Y-54525000D01*
X24982142Y-54810714D01*
X24910714Y-53953571D02*
X24875000Y-54025000D01*
X24839285Y-54060714D01*
X24767857Y-54096428D01*
X24732142Y-54096428D01*
X24660714Y-54060714D01*
X24625000Y-54025000D01*
X24589285Y-53953571D01*
X24589285Y-53810714D01*
X24625000Y-53739285D01*
X24660714Y-53703571D01*
X24732142Y-53667857D01*
X24767857Y-53667857D01*
X24839285Y-53703571D01*
X24875000Y-53739285D01*
X24910714Y-53810714D01*
X24910714Y-53953571D01*
X24946428Y-54025000D01*
X24982142Y-54060714D01*
X25053571Y-54096428D01*
X25196428Y-54096428D01*
X25267857Y-54060714D01*
X25303571Y-54025000D01*
X25339285Y-53953571D01*
X25339285Y-53810714D01*
X25303571Y-53739285D01*
X25267857Y-53703571D01*
X25196428Y-53667857D01*
X25053571Y-53667857D01*
X24982142Y-53703571D01*
X24946428Y-53739285D01*
X24910714Y-53810714D01*
X25339285Y-52953571D02*
X25339285Y-53382142D01*
X25339285Y-53167857D02*
X24589285Y-53167857D01*
X24696428Y-53239285D01*
X24767857Y-53310714D01*
X24803571Y-53382142D01*
%TO.C,C36*%
X66667857Y-62982142D02*
X66703571Y-63017857D01*
X66739285Y-63125000D01*
X66739285Y-63196428D01*
X66703571Y-63303571D01*
X66632142Y-63375000D01*
X66560714Y-63410714D01*
X66417857Y-63446428D01*
X66310714Y-63446428D01*
X66167857Y-63410714D01*
X66096428Y-63375000D01*
X66025000Y-63303571D01*
X65989285Y-63196428D01*
X65989285Y-63125000D01*
X66025000Y-63017857D01*
X66060714Y-62982142D01*
X65989285Y-62732142D02*
X65989285Y-62267857D01*
X66275000Y-62517857D01*
X66275000Y-62410714D01*
X66310714Y-62339285D01*
X66346428Y-62303571D01*
X66417857Y-62267857D01*
X66596428Y-62267857D01*
X66667857Y-62303571D01*
X66703571Y-62339285D01*
X66739285Y-62410714D01*
X66739285Y-62625000D01*
X66703571Y-62696428D01*
X66667857Y-62732142D01*
X65989285Y-61625000D02*
X65989285Y-61767857D01*
X66025000Y-61839285D01*
X66060714Y-61875000D01*
X66167857Y-61946428D01*
X66310714Y-61982142D01*
X66596428Y-61982142D01*
X66667857Y-61946428D01*
X66703571Y-61910714D01*
X66739285Y-61839285D01*
X66739285Y-61696428D01*
X66703571Y-61625000D01*
X66667857Y-61589285D01*
X66596428Y-61553571D01*
X66417857Y-61553571D01*
X66346428Y-61589285D01*
X66310714Y-61625000D01*
X66275000Y-61696428D01*
X66275000Y-61839285D01*
X66310714Y-61910714D01*
X66346428Y-61946428D01*
X66417857Y-61982142D01*
%TO.C,C63*%
X47917857Y-49667857D02*
X47882142Y-49703571D01*
X47775000Y-49739285D01*
X47703571Y-49739285D01*
X47596428Y-49703571D01*
X47525000Y-49632142D01*
X47489285Y-49560714D01*
X47453571Y-49417857D01*
X47453571Y-49310714D01*
X47489285Y-49167857D01*
X47525000Y-49096428D01*
X47596428Y-49025000D01*
X47703571Y-48989285D01*
X47775000Y-48989285D01*
X47882142Y-49025000D01*
X47917857Y-49060714D01*
X48560714Y-48989285D02*
X48417857Y-48989285D01*
X48346428Y-49025000D01*
X48310714Y-49060714D01*
X48239285Y-49167857D01*
X48203571Y-49310714D01*
X48203571Y-49596428D01*
X48239285Y-49667857D01*
X48275000Y-49703571D01*
X48346428Y-49739285D01*
X48489285Y-49739285D01*
X48560714Y-49703571D01*
X48596428Y-49667857D01*
X48632142Y-49596428D01*
X48632142Y-49417857D01*
X48596428Y-49346428D01*
X48560714Y-49310714D01*
X48489285Y-49275000D01*
X48346428Y-49275000D01*
X48275000Y-49310714D01*
X48239285Y-49346428D01*
X48203571Y-49417857D01*
X48882142Y-48989285D02*
X49346428Y-48989285D01*
X49096428Y-49275000D01*
X49203571Y-49275000D01*
X49275000Y-49310714D01*
X49310714Y-49346428D01*
X49346428Y-49417857D01*
X49346428Y-49596428D01*
X49310714Y-49667857D01*
X49275000Y-49703571D01*
X49203571Y-49739285D01*
X48989285Y-49739285D01*
X48917857Y-49703571D01*
X48882142Y-49667857D01*
%TO.C,R115*%
X35539285Y-73139285D02*
X35182142Y-73389285D01*
X35539285Y-73567857D02*
X34789285Y-73567857D01*
X34789285Y-73282142D01*
X34825000Y-73210714D01*
X34860714Y-73175000D01*
X34932142Y-73139285D01*
X35039285Y-73139285D01*
X35110714Y-73175000D01*
X35146428Y-73210714D01*
X35182142Y-73282142D01*
X35182142Y-73567857D01*
X35539285Y-72425000D02*
X35539285Y-72853571D01*
X35539285Y-72639285D02*
X34789285Y-72639285D01*
X34896428Y-72710714D01*
X34967857Y-72782142D01*
X35003571Y-72853571D01*
X35539285Y-71710714D02*
X35539285Y-72139285D01*
X35539285Y-71925000D02*
X34789285Y-71925000D01*
X34896428Y-71996428D01*
X34967857Y-72067857D01*
X35003571Y-72139285D01*
X34789285Y-71032142D02*
X34789285Y-71389285D01*
X35146428Y-71425000D01*
X35110714Y-71389285D01*
X35075000Y-71317857D01*
X35075000Y-71139285D01*
X35110714Y-71067857D01*
X35146428Y-71032142D01*
X35217857Y-70996428D01*
X35396428Y-70996428D01*
X35467857Y-71032142D01*
X35503571Y-71067857D01*
X35539285Y-71139285D01*
X35539285Y-71317857D01*
X35503571Y-71389285D01*
X35467857Y-71425000D01*
%TO.C,R27*%
X20139285Y-46182142D02*
X19782142Y-46432142D01*
X20139285Y-46610714D02*
X19389285Y-46610714D01*
X19389285Y-46325000D01*
X19425000Y-46253571D01*
X19460714Y-46217857D01*
X19532142Y-46182142D01*
X19639285Y-46182142D01*
X19710714Y-46217857D01*
X19746428Y-46253571D01*
X19782142Y-46325000D01*
X19782142Y-46610714D01*
X19460714Y-45896428D02*
X19425000Y-45860714D01*
X19389285Y-45789285D01*
X19389285Y-45610714D01*
X19425000Y-45539285D01*
X19460714Y-45503571D01*
X19532142Y-45467857D01*
X19603571Y-45467857D01*
X19710714Y-45503571D01*
X20139285Y-45932142D01*
X20139285Y-45467857D01*
X19389285Y-45217857D02*
X19389285Y-44717857D01*
X20139285Y-45039285D01*
%TO.C,C60*%
X67767857Y-62982142D02*
X67803571Y-63017857D01*
X67839285Y-63125000D01*
X67839285Y-63196428D01*
X67803571Y-63303571D01*
X67732142Y-63375000D01*
X67660714Y-63410714D01*
X67517857Y-63446428D01*
X67410714Y-63446428D01*
X67267857Y-63410714D01*
X67196428Y-63375000D01*
X67125000Y-63303571D01*
X67089285Y-63196428D01*
X67089285Y-63125000D01*
X67125000Y-63017857D01*
X67160714Y-62982142D01*
X67089285Y-62339285D02*
X67089285Y-62482142D01*
X67125000Y-62553571D01*
X67160714Y-62589285D01*
X67267857Y-62660714D01*
X67410714Y-62696428D01*
X67696428Y-62696428D01*
X67767857Y-62660714D01*
X67803571Y-62625000D01*
X67839285Y-62553571D01*
X67839285Y-62410714D01*
X67803571Y-62339285D01*
X67767857Y-62303571D01*
X67696428Y-62267857D01*
X67517857Y-62267857D01*
X67446428Y-62303571D01*
X67410714Y-62339285D01*
X67375000Y-62410714D01*
X67375000Y-62553571D01*
X67410714Y-62625000D01*
X67446428Y-62660714D01*
X67517857Y-62696428D01*
X67089285Y-61803571D02*
X67089285Y-61732142D01*
X67125000Y-61660714D01*
X67160714Y-61625000D01*
X67232142Y-61589285D01*
X67375000Y-61553571D01*
X67553571Y-61553571D01*
X67696428Y-61589285D01*
X67767857Y-61625000D01*
X67803571Y-61660714D01*
X67839285Y-61732142D01*
X67839285Y-61803571D01*
X67803571Y-61875000D01*
X67767857Y-61910714D01*
X67696428Y-61946428D01*
X67553571Y-61982142D01*
X67375000Y-61982142D01*
X67232142Y-61946428D01*
X67160714Y-61910714D01*
X67125000Y-61875000D01*
X67089285Y-61803571D01*
%TO.C,C52*%
X75717857Y-50067857D02*
X75682142Y-50103571D01*
X75575000Y-50139285D01*
X75503571Y-50139285D01*
X75396428Y-50103571D01*
X75325000Y-50032142D01*
X75289285Y-49960714D01*
X75253571Y-49817857D01*
X75253571Y-49710714D01*
X75289285Y-49567857D01*
X75325000Y-49496428D01*
X75396428Y-49425000D01*
X75503571Y-49389285D01*
X75575000Y-49389285D01*
X75682142Y-49425000D01*
X75717857Y-49460714D01*
X76396428Y-49389285D02*
X76039285Y-49389285D01*
X76003571Y-49746428D01*
X76039285Y-49710714D01*
X76110714Y-49675000D01*
X76289285Y-49675000D01*
X76360714Y-49710714D01*
X76396428Y-49746428D01*
X76432142Y-49817857D01*
X76432142Y-49996428D01*
X76396428Y-50067857D01*
X76360714Y-50103571D01*
X76289285Y-50139285D01*
X76110714Y-50139285D01*
X76039285Y-50103571D01*
X76003571Y-50067857D01*
X76717857Y-49460714D02*
X76753571Y-49425000D01*
X76825000Y-49389285D01*
X77003571Y-49389285D01*
X77075000Y-49425000D01*
X77110714Y-49460714D01*
X77146428Y-49532142D01*
X77146428Y-49603571D01*
X77110714Y-49710714D01*
X76682142Y-50139285D01*
X77146428Y-50139285D01*
%TO.C,J3*%
X51080000Y-29489285D02*
X51080000Y-30025000D01*
X51044285Y-30132142D01*
X50972857Y-30203571D01*
X50865714Y-30239285D01*
X50794285Y-30239285D01*
X51365714Y-29489285D02*
X51830000Y-29489285D01*
X51580000Y-29775000D01*
X51687142Y-29775000D01*
X51758571Y-29810714D01*
X51794285Y-29846428D01*
X51830000Y-29917857D01*
X51830000Y-30096428D01*
X51794285Y-30167857D01*
X51758571Y-30203571D01*
X51687142Y-30239285D01*
X51472857Y-30239285D01*
X51401428Y-30203571D01*
X51365714Y-30167857D01*
X55103571Y-31589285D02*
X55103571Y-32196428D01*
X55139285Y-32267857D01*
X55175000Y-32303571D01*
X55246428Y-32339285D01*
X55389285Y-32339285D01*
X55460714Y-32303571D01*
X55496428Y-32267857D01*
X55532142Y-32196428D01*
X55532142Y-31589285D01*
X55853571Y-32125000D02*
X56210714Y-32125000D01*
X55782142Y-32339285D02*
X56032142Y-31589285D01*
X56282142Y-32339285D01*
X56960714Y-32339285D02*
X56710714Y-31982142D01*
X56532142Y-32339285D02*
X56532142Y-31589285D01*
X56817857Y-31589285D01*
X56889285Y-31625000D01*
X56925000Y-31660714D01*
X56960714Y-31732142D01*
X56960714Y-31839285D01*
X56925000Y-31910714D01*
X56889285Y-31946428D01*
X56817857Y-31982142D01*
X56532142Y-31982142D01*
X57175000Y-31589285D02*
X57603571Y-31589285D01*
X57389285Y-32339285D02*
X57389285Y-31589285D01*
%TO.C,C54*%
X45902857Y-46277857D02*
X45867142Y-46313571D01*
X45760000Y-46349285D01*
X45688571Y-46349285D01*
X45581428Y-46313571D01*
X45510000Y-46242142D01*
X45474285Y-46170714D01*
X45438571Y-46027857D01*
X45438571Y-45920714D01*
X45474285Y-45777857D01*
X45510000Y-45706428D01*
X45581428Y-45635000D01*
X45688571Y-45599285D01*
X45760000Y-45599285D01*
X45867142Y-45635000D01*
X45902857Y-45670714D01*
X46581428Y-45599285D02*
X46224285Y-45599285D01*
X46188571Y-45956428D01*
X46224285Y-45920714D01*
X46295714Y-45885000D01*
X46474285Y-45885000D01*
X46545714Y-45920714D01*
X46581428Y-45956428D01*
X46617142Y-46027857D01*
X46617142Y-46206428D01*
X46581428Y-46277857D01*
X46545714Y-46313571D01*
X46474285Y-46349285D01*
X46295714Y-46349285D01*
X46224285Y-46313571D01*
X46188571Y-46277857D01*
X47260000Y-45849285D02*
X47260000Y-46349285D01*
X47081428Y-45563571D02*
X46902857Y-46099285D01*
X47367142Y-46099285D01*
%TO.C,R25*%
X82839285Y-46682142D02*
X82482142Y-46932142D01*
X82839285Y-47110714D02*
X82089285Y-47110714D01*
X82089285Y-46825000D01*
X82125000Y-46753571D01*
X82160714Y-46717857D01*
X82232142Y-46682142D01*
X82339285Y-46682142D01*
X82410714Y-46717857D01*
X82446428Y-46753571D01*
X82482142Y-46825000D01*
X82482142Y-47110714D01*
X82160714Y-46396428D02*
X82125000Y-46360714D01*
X82089285Y-46289285D01*
X82089285Y-46110714D01*
X82125000Y-46039285D01*
X82160714Y-46003571D01*
X82232142Y-45967857D01*
X82303571Y-45967857D01*
X82410714Y-46003571D01*
X82839285Y-46432142D01*
X82839285Y-45967857D01*
X82089285Y-45289285D02*
X82089285Y-45646428D01*
X82446428Y-45682142D01*
X82410714Y-45646428D01*
X82375000Y-45575000D01*
X82375000Y-45396428D01*
X82410714Y-45325000D01*
X82446428Y-45289285D01*
X82517857Y-45253571D01*
X82696428Y-45253571D01*
X82767857Y-45289285D01*
X82803571Y-45325000D01*
X82839285Y-45396428D01*
X82839285Y-45575000D01*
X82803571Y-45646428D01*
X82767857Y-45682142D01*
%TO.C,C47*%
X88317857Y-72667857D02*
X88282142Y-72703571D01*
X88175000Y-72739285D01*
X88103571Y-72739285D01*
X87996428Y-72703571D01*
X87925000Y-72632142D01*
X87889285Y-72560714D01*
X87853571Y-72417857D01*
X87853571Y-72310714D01*
X87889285Y-72167857D01*
X87925000Y-72096428D01*
X87996428Y-72025000D01*
X88103571Y-71989285D01*
X88175000Y-71989285D01*
X88282142Y-72025000D01*
X88317857Y-72060714D01*
X88960714Y-72239285D02*
X88960714Y-72739285D01*
X88782142Y-71953571D02*
X88603571Y-72489285D01*
X89067857Y-72489285D01*
X89282142Y-71989285D02*
X89782142Y-71989285D01*
X89460714Y-72739285D01*
D12*
%TO.C,U6*%
X17338095Y-40952380D02*
X17338095Y-41761904D01*
X17385714Y-41857142D01*
X17433333Y-41904761D01*
X17528571Y-41952380D01*
X17719047Y-41952380D01*
X17814285Y-41904761D01*
X17861904Y-41857142D01*
X17909523Y-41761904D01*
X17909523Y-40952380D01*
X18814285Y-40952380D02*
X18623809Y-40952380D01*
X18528571Y-41000000D01*
X18480952Y-41047619D01*
X18385714Y-41190476D01*
X18338095Y-41380952D01*
X18338095Y-41761904D01*
X18385714Y-41857142D01*
X18433333Y-41904761D01*
X18528571Y-41952380D01*
X18719047Y-41952380D01*
X18814285Y-41904761D01*
X18861904Y-41857142D01*
X18909523Y-41761904D01*
X18909523Y-41523809D01*
X18861904Y-41428571D01*
X18814285Y-41380952D01*
X18719047Y-41333333D01*
X18528571Y-41333333D01*
X18433333Y-41380952D01*
X18385714Y-41428571D01*
X18338095Y-41523809D01*
D11*
%TO.C,C66*%
X75417857Y-44367857D02*
X75382142Y-44403571D01*
X75275000Y-44439285D01*
X75203571Y-44439285D01*
X75096428Y-44403571D01*
X75025000Y-44332142D01*
X74989285Y-44260714D01*
X74953571Y-44117857D01*
X74953571Y-44010714D01*
X74989285Y-43867857D01*
X75025000Y-43796428D01*
X75096428Y-43725000D01*
X75203571Y-43689285D01*
X75275000Y-43689285D01*
X75382142Y-43725000D01*
X75417857Y-43760714D01*
X76060714Y-43689285D02*
X75917857Y-43689285D01*
X75846428Y-43725000D01*
X75810714Y-43760714D01*
X75739285Y-43867857D01*
X75703571Y-44010714D01*
X75703571Y-44296428D01*
X75739285Y-44367857D01*
X75775000Y-44403571D01*
X75846428Y-44439285D01*
X75989285Y-44439285D01*
X76060714Y-44403571D01*
X76096428Y-44367857D01*
X76132142Y-44296428D01*
X76132142Y-44117857D01*
X76096428Y-44046428D01*
X76060714Y-44010714D01*
X75989285Y-43975000D01*
X75846428Y-43975000D01*
X75775000Y-44010714D01*
X75739285Y-44046428D01*
X75703571Y-44117857D01*
X76775000Y-43689285D02*
X76632142Y-43689285D01*
X76560714Y-43725000D01*
X76525000Y-43760714D01*
X76453571Y-43867857D01*
X76417857Y-44010714D01*
X76417857Y-44296428D01*
X76453571Y-44367857D01*
X76489285Y-44403571D01*
X76560714Y-44439285D01*
X76703571Y-44439285D01*
X76775000Y-44403571D01*
X76810714Y-44367857D01*
X76846428Y-44296428D01*
X76846428Y-44117857D01*
X76810714Y-44046428D01*
X76775000Y-44010714D01*
X76703571Y-43975000D01*
X76560714Y-43975000D01*
X76489285Y-44010714D01*
X76453571Y-44046428D01*
X76417857Y-44117857D01*
%TO.C,C48*%
X75117857Y-48567857D02*
X75082142Y-48603571D01*
X74975000Y-48639285D01*
X74903571Y-48639285D01*
X74796428Y-48603571D01*
X74725000Y-48532142D01*
X74689285Y-48460714D01*
X74653571Y-48317857D01*
X74653571Y-48210714D01*
X74689285Y-48067857D01*
X74725000Y-47996428D01*
X74796428Y-47925000D01*
X74903571Y-47889285D01*
X74975000Y-47889285D01*
X75082142Y-47925000D01*
X75117857Y-47960714D01*
X75760714Y-48139285D02*
X75760714Y-48639285D01*
X75582142Y-47853571D02*
X75403571Y-48389285D01*
X75867857Y-48389285D01*
X76260714Y-48210714D02*
X76189285Y-48175000D01*
X76153571Y-48139285D01*
X76117857Y-48067857D01*
X76117857Y-48032142D01*
X76153571Y-47960714D01*
X76189285Y-47925000D01*
X76260714Y-47889285D01*
X76403571Y-47889285D01*
X76475000Y-47925000D01*
X76510714Y-47960714D01*
X76546428Y-48032142D01*
X76546428Y-48067857D01*
X76510714Y-48139285D01*
X76475000Y-48175000D01*
X76403571Y-48210714D01*
X76260714Y-48210714D01*
X76189285Y-48246428D01*
X76153571Y-48282142D01*
X76117857Y-48353571D01*
X76117857Y-48496428D01*
X76153571Y-48567857D01*
X76189285Y-48603571D01*
X76260714Y-48639285D01*
X76403571Y-48639285D01*
X76475000Y-48603571D01*
X76510714Y-48567857D01*
X76546428Y-48496428D01*
X76546428Y-48353571D01*
X76510714Y-48282142D01*
X76475000Y-48246428D01*
X76403571Y-48210714D01*
D12*
%TO.C,U7*%
X31938095Y-58752380D02*
X31938095Y-59561904D01*
X31985714Y-59657142D01*
X32033333Y-59704761D01*
X32128571Y-59752380D01*
X32319047Y-59752380D01*
X32414285Y-59704761D01*
X32461904Y-59657142D01*
X32509523Y-59561904D01*
X32509523Y-58752380D01*
X32890476Y-58752380D02*
X33557142Y-58752380D01*
X33128571Y-59752380D01*
D11*
%TO.C,C51*%
X65967857Y-59782142D02*
X66003571Y-59817857D01*
X66039285Y-59925000D01*
X66039285Y-59996428D01*
X66003571Y-60103571D01*
X65932142Y-60175000D01*
X65860714Y-60210714D01*
X65717857Y-60246428D01*
X65610714Y-60246428D01*
X65467857Y-60210714D01*
X65396428Y-60175000D01*
X65325000Y-60103571D01*
X65289285Y-59996428D01*
X65289285Y-59925000D01*
X65325000Y-59817857D01*
X65360714Y-59782142D01*
X65289285Y-59103571D02*
X65289285Y-59460714D01*
X65646428Y-59496428D01*
X65610714Y-59460714D01*
X65575000Y-59389285D01*
X65575000Y-59210714D01*
X65610714Y-59139285D01*
X65646428Y-59103571D01*
X65717857Y-59067857D01*
X65896428Y-59067857D01*
X65967857Y-59103571D01*
X66003571Y-59139285D01*
X66039285Y-59210714D01*
X66039285Y-59389285D01*
X66003571Y-59460714D01*
X65967857Y-59496428D01*
X66039285Y-58353571D02*
X66039285Y-58782142D01*
X66039285Y-58567857D02*
X65289285Y-58567857D01*
X65396428Y-58639285D01*
X65467857Y-58710714D01*
X65503571Y-58782142D01*
D12*
%TO.C,U4*%
X20738095Y-48652380D02*
X20738095Y-49461904D01*
X20785714Y-49557142D01*
X20833333Y-49604761D01*
X20928571Y-49652380D01*
X21119047Y-49652380D01*
X21214285Y-49604761D01*
X21261904Y-49557142D01*
X21309523Y-49461904D01*
X21309523Y-48652380D01*
X22214285Y-48985714D02*
X22214285Y-49652380D01*
X21976190Y-48604761D02*
X21738095Y-49319047D01*
X22357142Y-49319047D01*
D11*
%TO.C,C45*%
X72817857Y-67067857D02*
X72782142Y-67103571D01*
X72675000Y-67139285D01*
X72603571Y-67139285D01*
X72496428Y-67103571D01*
X72425000Y-67032142D01*
X72389285Y-66960714D01*
X72353571Y-66817857D01*
X72353571Y-66710714D01*
X72389285Y-66567857D01*
X72425000Y-66496428D01*
X72496428Y-66425000D01*
X72603571Y-66389285D01*
X72675000Y-66389285D01*
X72782142Y-66425000D01*
X72817857Y-66460714D01*
X73460714Y-66639285D02*
X73460714Y-67139285D01*
X73282142Y-66353571D02*
X73103571Y-66889285D01*
X73567857Y-66889285D01*
X74210714Y-66389285D02*
X73853571Y-66389285D01*
X73817857Y-66746428D01*
X73853571Y-66710714D01*
X73925000Y-66675000D01*
X74103571Y-66675000D01*
X74175000Y-66710714D01*
X74210714Y-66746428D01*
X74246428Y-66817857D01*
X74246428Y-66996428D01*
X74210714Y-67067857D01*
X74175000Y-67103571D01*
X74103571Y-67139285D01*
X73925000Y-67139285D01*
X73853571Y-67103571D01*
X73817857Y-67067857D01*
%TO.C,C32*%
X62717857Y-70767857D02*
X62682142Y-70803571D01*
X62575000Y-70839285D01*
X62503571Y-70839285D01*
X62396428Y-70803571D01*
X62325000Y-70732142D01*
X62289285Y-70660714D01*
X62253571Y-70517857D01*
X62253571Y-70410714D01*
X62289285Y-70267857D01*
X62325000Y-70196428D01*
X62396428Y-70125000D01*
X62503571Y-70089285D01*
X62575000Y-70089285D01*
X62682142Y-70125000D01*
X62717857Y-70160714D01*
X62967857Y-70089285D02*
X63432142Y-70089285D01*
X63182142Y-70375000D01*
X63289285Y-70375000D01*
X63360714Y-70410714D01*
X63396428Y-70446428D01*
X63432142Y-70517857D01*
X63432142Y-70696428D01*
X63396428Y-70767857D01*
X63360714Y-70803571D01*
X63289285Y-70839285D01*
X63075000Y-70839285D01*
X63003571Y-70803571D01*
X62967857Y-70767857D01*
X63717857Y-70160714D02*
X63753571Y-70125000D01*
X63825000Y-70089285D01*
X64003571Y-70089285D01*
X64075000Y-70125000D01*
X64110714Y-70160714D01*
X64146428Y-70232142D01*
X64146428Y-70303571D01*
X64110714Y-70410714D01*
X63682142Y-70839285D01*
X64146428Y-70839285D01*
%TO.C,C44*%
X72817857Y-61467857D02*
X72782142Y-61503571D01*
X72675000Y-61539285D01*
X72603571Y-61539285D01*
X72496428Y-61503571D01*
X72425000Y-61432142D01*
X72389285Y-61360714D01*
X72353571Y-61217857D01*
X72353571Y-61110714D01*
X72389285Y-60967857D01*
X72425000Y-60896428D01*
X72496428Y-60825000D01*
X72603571Y-60789285D01*
X72675000Y-60789285D01*
X72782142Y-60825000D01*
X72817857Y-60860714D01*
X73460714Y-61039285D02*
X73460714Y-61539285D01*
X73282142Y-60753571D02*
X73103571Y-61289285D01*
X73567857Y-61289285D01*
X74175000Y-61039285D02*
X74175000Y-61539285D01*
X73996428Y-60753571D02*
X73817857Y-61289285D01*
X74282142Y-61289285D01*
%TO.C,C64*%
X68717857Y-33767857D02*
X68682142Y-33803571D01*
X68575000Y-33839285D01*
X68503571Y-33839285D01*
X68396428Y-33803571D01*
X68325000Y-33732142D01*
X68289285Y-33660714D01*
X68253571Y-33517857D01*
X68253571Y-33410714D01*
X68289285Y-33267857D01*
X68325000Y-33196428D01*
X68396428Y-33125000D01*
X68503571Y-33089285D01*
X68575000Y-33089285D01*
X68682142Y-33125000D01*
X68717857Y-33160714D01*
X69360714Y-33089285D02*
X69217857Y-33089285D01*
X69146428Y-33125000D01*
X69110714Y-33160714D01*
X69039285Y-33267857D01*
X69003571Y-33410714D01*
X69003571Y-33696428D01*
X69039285Y-33767857D01*
X69075000Y-33803571D01*
X69146428Y-33839285D01*
X69289285Y-33839285D01*
X69360714Y-33803571D01*
X69396428Y-33767857D01*
X69432142Y-33696428D01*
X69432142Y-33517857D01*
X69396428Y-33446428D01*
X69360714Y-33410714D01*
X69289285Y-33375000D01*
X69146428Y-33375000D01*
X69075000Y-33410714D01*
X69039285Y-33446428D01*
X69003571Y-33517857D01*
X70075000Y-33339285D02*
X70075000Y-33839285D01*
X69896428Y-33053571D02*
X69717857Y-33589285D01*
X70182142Y-33589285D01*
%TO.C,C57*%
X42217857Y-51867857D02*
X42182142Y-51903571D01*
X42075000Y-51939285D01*
X42003571Y-51939285D01*
X41896428Y-51903571D01*
X41825000Y-51832142D01*
X41789285Y-51760714D01*
X41753571Y-51617857D01*
X41753571Y-51510714D01*
X41789285Y-51367857D01*
X41825000Y-51296428D01*
X41896428Y-51225000D01*
X42003571Y-51189285D01*
X42075000Y-51189285D01*
X42182142Y-51225000D01*
X42217857Y-51260714D01*
X42896428Y-51189285D02*
X42539285Y-51189285D01*
X42503571Y-51546428D01*
X42539285Y-51510714D01*
X42610714Y-51475000D01*
X42789285Y-51475000D01*
X42860714Y-51510714D01*
X42896428Y-51546428D01*
X42932142Y-51617857D01*
X42932142Y-51796428D01*
X42896428Y-51867857D01*
X42860714Y-51903571D01*
X42789285Y-51939285D01*
X42610714Y-51939285D01*
X42539285Y-51903571D01*
X42503571Y-51867857D01*
X43182142Y-51189285D02*
X43682142Y-51189285D01*
X43360714Y-51939285D01*
%TO.C,C43*%
X88332857Y-64057857D02*
X88297142Y-64093571D01*
X88190000Y-64129285D01*
X88118571Y-64129285D01*
X88011428Y-64093571D01*
X87940000Y-64022142D01*
X87904285Y-63950714D01*
X87868571Y-63807857D01*
X87868571Y-63700714D01*
X87904285Y-63557857D01*
X87940000Y-63486428D01*
X88011428Y-63415000D01*
X88118571Y-63379285D01*
X88190000Y-63379285D01*
X88297142Y-63415000D01*
X88332857Y-63450714D01*
X88975714Y-63629285D02*
X88975714Y-64129285D01*
X88797142Y-63343571D02*
X88618571Y-63879285D01*
X89082857Y-63879285D01*
X89297142Y-63379285D02*
X89761428Y-63379285D01*
X89511428Y-63665000D01*
X89618571Y-63665000D01*
X89690000Y-63700714D01*
X89725714Y-63736428D01*
X89761428Y-63807857D01*
X89761428Y-63986428D01*
X89725714Y-64057857D01*
X89690000Y-64093571D01*
X89618571Y-64129285D01*
X89404285Y-64129285D01*
X89332857Y-64093571D01*
X89297142Y-64057857D01*
%TO.C,C53*%
X68867857Y-62982142D02*
X68903571Y-63017857D01*
X68939285Y-63125000D01*
X68939285Y-63196428D01*
X68903571Y-63303571D01*
X68832142Y-63375000D01*
X68760714Y-63410714D01*
X68617857Y-63446428D01*
X68510714Y-63446428D01*
X68367857Y-63410714D01*
X68296428Y-63375000D01*
X68225000Y-63303571D01*
X68189285Y-63196428D01*
X68189285Y-63125000D01*
X68225000Y-63017857D01*
X68260714Y-62982142D01*
X68189285Y-62303571D02*
X68189285Y-62660714D01*
X68546428Y-62696428D01*
X68510714Y-62660714D01*
X68475000Y-62589285D01*
X68475000Y-62410714D01*
X68510714Y-62339285D01*
X68546428Y-62303571D01*
X68617857Y-62267857D01*
X68796428Y-62267857D01*
X68867857Y-62303571D01*
X68903571Y-62339285D01*
X68939285Y-62410714D01*
X68939285Y-62589285D01*
X68903571Y-62660714D01*
X68867857Y-62696428D01*
X68189285Y-62017857D02*
X68189285Y-61553571D01*
X68475000Y-61803571D01*
X68475000Y-61696428D01*
X68510714Y-61625000D01*
X68546428Y-61589285D01*
X68617857Y-61553571D01*
X68796428Y-61553571D01*
X68867857Y-61589285D01*
X68903571Y-61625000D01*
X68939285Y-61696428D01*
X68939285Y-61910714D01*
X68903571Y-61982142D01*
X68867857Y-62017857D01*
%TO.C,C34*%
X38407857Y-68917142D02*
X38443571Y-68952857D01*
X38479285Y-69060000D01*
X38479285Y-69131428D01*
X38443571Y-69238571D01*
X38372142Y-69310000D01*
X38300714Y-69345714D01*
X38157857Y-69381428D01*
X38050714Y-69381428D01*
X37907857Y-69345714D01*
X37836428Y-69310000D01*
X37765000Y-69238571D01*
X37729285Y-69131428D01*
X37729285Y-69060000D01*
X37765000Y-68952857D01*
X37800714Y-68917142D01*
X37729285Y-68667142D02*
X37729285Y-68202857D01*
X38015000Y-68452857D01*
X38015000Y-68345714D01*
X38050714Y-68274285D01*
X38086428Y-68238571D01*
X38157857Y-68202857D01*
X38336428Y-68202857D01*
X38407857Y-68238571D01*
X38443571Y-68274285D01*
X38479285Y-68345714D01*
X38479285Y-68560000D01*
X38443571Y-68631428D01*
X38407857Y-68667142D01*
X37979285Y-67560000D02*
X38479285Y-67560000D01*
X37693571Y-67738571D02*
X38229285Y-67917142D01*
X38229285Y-67452857D01*
%TO.C,C42*%
X72817857Y-70267857D02*
X72782142Y-70303571D01*
X72675000Y-70339285D01*
X72603571Y-70339285D01*
X72496428Y-70303571D01*
X72425000Y-70232142D01*
X72389285Y-70160714D01*
X72353571Y-70017857D01*
X72353571Y-69910714D01*
X72389285Y-69767857D01*
X72425000Y-69696428D01*
X72496428Y-69625000D01*
X72603571Y-69589285D01*
X72675000Y-69589285D01*
X72782142Y-69625000D01*
X72817857Y-69660714D01*
X73460714Y-69839285D02*
X73460714Y-70339285D01*
X73282142Y-69553571D02*
X73103571Y-70089285D01*
X73567857Y-70089285D01*
X73817857Y-69660714D02*
X73853571Y-69625000D01*
X73925000Y-69589285D01*
X74103571Y-69589285D01*
X74175000Y-69625000D01*
X74210714Y-69660714D01*
X74246428Y-69732142D01*
X74246428Y-69803571D01*
X74210714Y-69910714D01*
X73782142Y-70339285D01*
X74246428Y-70339285D01*
D12*
%TO.C,U5*%
X85438095Y-40652380D02*
X85438095Y-41461904D01*
X85485714Y-41557142D01*
X85533333Y-41604761D01*
X85628571Y-41652380D01*
X85819047Y-41652380D01*
X85914285Y-41604761D01*
X85961904Y-41557142D01*
X86009523Y-41461904D01*
X86009523Y-40652380D01*
X86961904Y-40652380D02*
X86485714Y-40652380D01*
X86438095Y-41128571D01*
X86485714Y-41080952D01*
X86580952Y-41033333D01*
X86819047Y-41033333D01*
X86914285Y-41080952D01*
X86961904Y-41128571D01*
X87009523Y-41223809D01*
X87009523Y-41461904D01*
X86961904Y-41557142D01*
X86914285Y-41604761D01*
X86819047Y-41652380D01*
X86580952Y-41652380D01*
X86485714Y-41604761D01*
X86438095Y-41557142D01*
D11*
%TO.C,R28*%
X22039285Y-46082142D02*
X21682142Y-46332142D01*
X22039285Y-46510714D02*
X21289285Y-46510714D01*
X21289285Y-46225000D01*
X21325000Y-46153571D01*
X21360714Y-46117857D01*
X21432142Y-46082142D01*
X21539285Y-46082142D01*
X21610714Y-46117857D01*
X21646428Y-46153571D01*
X21682142Y-46225000D01*
X21682142Y-46510714D01*
X21360714Y-45796428D02*
X21325000Y-45760714D01*
X21289285Y-45689285D01*
X21289285Y-45510714D01*
X21325000Y-45439285D01*
X21360714Y-45403571D01*
X21432142Y-45367857D01*
X21503571Y-45367857D01*
X21610714Y-45403571D01*
X22039285Y-45832142D01*
X22039285Y-45367857D01*
X21610714Y-44939285D02*
X21575000Y-45010714D01*
X21539285Y-45046428D01*
X21467857Y-45082142D01*
X21432142Y-45082142D01*
X21360714Y-45046428D01*
X21325000Y-45010714D01*
X21289285Y-44939285D01*
X21289285Y-44796428D01*
X21325000Y-44725000D01*
X21360714Y-44689285D01*
X21432142Y-44653571D01*
X21467857Y-44653571D01*
X21539285Y-44689285D01*
X21575000Y-44725000D01*
X21610714Y-44796428D01*
X21610714Y-44939285D01*
X21646428Y-45010714D01*
X21682142Y-45046428D01*
X21753571Y-45082142D01*
X21896428Y-45082142D01*
X21967857Y-45046428D01*
X22003571Y-45010714D01*
X22039285Y-44939285D01*
X22039285Y-44796428D01*
X22003571Y-44725000D01*
X21967857Y-44689285D01*
X21896428Y-44653571D01*
X21753571Y-44653571D01*
X21682142Y-44689285D01*
X21646428Y-44725000D01*
X21610714Y-44796428D01*
%TO.C,C58*%
X67067857Y-31367142D02*
X67103571Y-31402857D01*
X67139285Y-31510000D01*
X67139285Y-31581428D01*
X67103571Y-31688571D01*
X67032142Y-31760000D01*
X66960714Y-31795714D01*
X66817857Y-31831428D01*
X66710714Y-31831428D01*
X66567857Y-31795714D01*
X66496428Y-31760000D01*
X66425000Y-31688571D01*
X66389285Y-31581428D01*
X66389285Y-31510000D01*
X66425000Y-31402857D01*
X66460714Y-31367142D01*
X66389285Y-30688571D02*
X66389285Y-31045714D01*
X66746428Y-31081428D01*
X66710714Y-31045714D01*
X66675000Y-30974285D01*
X66675000Y-30795714D01*
X66710714Y-30724285D01*
X66746428Y-30688571D01*
X66817857Y-30652857D01*
X66996428Y-30652857D01*
X67067857Y-30688571D01*
X67103571Y-30724285D01*
X67139285Y-30795714D01*
X67139285Y-30974285D01*
X67103571Y-31045714D01*
X67067857Y-31081428D01*
X66710714Y-30224285D02*
X66675000Y-30295714D01*
X66639285Y-30331428D01*
X66567857Y-30367142D01*
X66532142Y-30367142D01*
X66460714Y-30331428D01*
X66425000Y-30295714D01*
X66389285Y-30224285D01*
X66389285Y-30081428D01*
X66425000Y-30010000D01*
X66460714Y-29974285D01*
X66532142Y-29938571D01*
X66567857Y-29938571D01*
X66639285Y-29974285D01*
X66675000Y-30010000D01*
X66710714Y-30081428D01*
X66710714Y-30224285D01*
X66746428Y-30295714D01*
X66782142Y-30331428D01*
X66853571Y-30367142D01*
X66996428Y-30367142D01*
X67067857Y-30331428D01*
X67103571Y-30295714D01*
X67139285Y-30224285D01*
X67139285Y-30081428D01*
X67103571Y-30010000D01*
X67067857Y-29974285D01*
X66996428Y-29938571D01*
X66853571Y-29938571D01*
X66782142Y-29974285D01*
X66746428Y-30010000D01*
X66710714Y-30081428D01*
%TO.C,R24*%
X16317857Y-39639285D02*
X16067857Y-39282142D01*
X15889285Y-39639285D02*
X15889285Y-38889285D01*
X16175000Y-38889285D01*
X16246428Y-38925000D01*
X16282142Y-38960714D01*
X16317857Y-39032142D01*
X16317857Y-39139285D01*
X16282142Y-39210714D01*
X16246428Y-39246428D01*
X16175000Y-39282142D01*
X15889285Y-39282142D01*
X16603571Y-38960714D02*
X16639285Y-38925000D01*
X16710714Y-38889285D01*
X16889285Y-38889285D01*
X16960714Y-38925000D01*
X16996428Y-38960714D01*
X17032142Y-39032142D01*
X17032142Y-39103571D01*
X16996428Y-39210714D01*
X16567857Y-39639285D01*
X17032142Y-39639285D01*
X17675000Y-39139285D02*
X17675000Y-39639285D01*
X17496428Y-38853571D02*
X17317857Y-39389285D01*
X17782142Y-39389285D01*
%TO.C,C49*%
X71267857Y-59782142D02*
X71303571Y-59817857D01*
X71339285Y-59925000D01*
X71339285Y-59996428D01*
X71303571Y-60103571D01*
X71232142Y-60175000D01*
X71160714Y-60210714D01*
X71017857Y-60246428D01*
X70910714Y-60246428D01*
X70767857Y-60210714D01*
X70696428Y-60175000D01*
X70625000Y-60103571D01*
X70589285Y-59996428D01*
X70589285Y-59925000D01*
X70625000Y-59817857D01*
X70660714Y-59782142D01*
X70839285Y-59139285D02*
X71339285Y-59139285D01*
X70553571Y-59317857D02*
X71089285Y-59496428D01*
X71089285Y-59032142D01*
X71339285Y-58710714D02*
X71339285Y-58567857D01*
X71303571Y-58496428D01*
X71267857Y-58460714D01*
X71160714Y-58389285D01*
X71017857Y-58353571D01*
X70732142Y-58353571D01*
X70660714Y-58389285D01*
X70625000Y-58425000D01*
X70589285Y-58496428D01*
X70589285Y-58639285D01*
X70625000Y-58710714D01*
X70660714Y-58746428D01*
X70732142Y-58782142D01*
X70910714Y-58782142D01*
X70982142Y-58746428D01*
X71017857Y-58710714D01*
X71053571Y-58639285D01*
X71053571Y-58496428D01*
X71017857Y-58425000D01*
X70982142Y-58389285D01*
X70910714Y-58353571D01*
D13*
%TO.C,C1*%
X36600000Y-44880000D02*
X36600000Y-42920000D01*
X40000000Y-42920000D02*
X40000000Y-44880000D01*
X36600000Y-42920000D02*
X40000000Y-42920000D01*
X40000000Y-44880000D02*
X36600000Y-44880000D01*
%TO.C,C2*%
X59660000Y-60590000D02*
X59660000Y-62410000D01*
X59660000Y-62410000D02*
X58740000Y-62410000D01*
X58740000Y-60590000D02*
X59660000Y-60590000D01*
X58740000Y-62410000D02*
X58740000Y-60590000D01*
%TO.C,C3*%
X55740000Y-62410000D02*
X55740000Y-60590000D01*
X56660000Y-60590000D02*
X56660000Y-62410000D01*
X56660000Y-62410000D02*
X55740000Y-62410000D01*
X55740000Y-60590000D02*
X56660000Y-60590000D01*
%TO.C,C4*%
X28890000Y-67960000D02*
X28890000Y-67040000D01*
X28890000Y-67040000D02*
X30710000Y-67040000D01*
X30710000Y-67040000D02*
X30710000Y-67960000D01*
X30710000Y-67960000D02*
X28890000Y-67960000D01*
%TO.C,C5*%
X72060000Y-32010000D02*
X71140000Y-32010000D01*
X71140000Y-32010000D02*
X71140000Y-30190000D01*
X72060000Y-30190000D02*
X72060000Y-32010000D01*
X71140000Y-30190000D02*
X72060000Y-30190000D01*
%TO.C,C6*%
X76910000Y-40660000D02*
X75090000Y-40660000D01*
X76910000Y-39740000D02*
X76910000Y-40660000D01*
X75090000Y-40660000D02*
X75090000Y-39740000D01*
X75090000Y-39740000D02*
X76910000Y-39740000D01*
%TO.C,C7*%
X68260000Y-29990000D02*
X68260000Y-31810000D01*
X67340000Y-29990000D02*
X68260000Y-29990000D01*
X68260000Y-31810000D02*
X67340000Y-31810000D01*
X67340000Y-31810000D02*
X67340000Y-29990000D01*
%TO.C,C8*%
X76910000Y-38740000D02*
X76910000Y-39660000D01*
X75090000Y-39660000D02*
X75090000Y-38740000D01*
X75090000Y-38740000D02*
X76910000Y-38740000D01*
X76910000Y-39660000D02*
X75090000Y-39660000D01*
%TO.C,C9*%
X76010000Y-38360000D02*
X74190000Y-38360000D01*
X74190000Y-37440000D02*
X76010000Y-37440000D01*
X74190000Y-38360000D02*
X74190000Y-37440000D01*
X76010000Y-37440000D02*
X76010000Y-38360000D01*
%TO.C,C10*%
X43740000Y-61310000D02*
X43740000Y-59490000D01*
X43740000Y-59490000D02*
X44660000Y-59490000D01*
X44660000Y-61310000D02*
X43740000Y-61310000D01*
X44660000Y-59490000D02*
X44660000Y-61310000D01*
%TO.C,C11*%
X78810000Y-40660000D02*
X76990000Y-40660000D01*
X76990000Y-39740000D02*
X78810000Y-39740000D01*
X78810000Y-39740000D02*
X78810000Y-40660000D01*
X76990000Y-40660000D02*
X76990000Y-39740000D01*
%TO.C,C12*%
X78810000Y-39660000D02*
X76990000Y-39660000D01*
X76990000Y-38740000D02*
X78810000Y-38740000D01*
X78810000Y-38740000D02*
X78810000Y-39660000D01*
X76990000Y-39660000D02*
X76990000Y-38740000D01*
%TO.C,C14*%
X15000000Y-70580000D02*
X15000000Y-68620000D01*
X18400000Y-68620000D02*
X18400000Y-70580000D01*
X15000000Y-68620000D02*
X18400000Y-68620000D01*
X18400000Y-70580000D02*
X15000000Y-70580000D01*
%TO.C,C15*%
X15000000Y-55380000D02*
X15000000Y-53420000D01*
X15000000Y-53420000D02*
X18400000Y-53420000D01*
X18400000Y-55380000D02*
X15000000Y-55380000D01*
X18400000Y-53420000D02*
X18400000Y-55380000D01*
%TO.C,C16*%
X15000000Y-61020000D02*
X18400000Y-61020000D01*
X18400000Y-61020000D02*
X18400000Y-62980000D01*
X18400000Y-62980000D02*
X15000000Y-62980000D01*
X15000000Y-62980000D02*
X15000000Y-61020000D01*
%TO.C,C17*%
X85740000Y-67390000D02*
X85740000Y-65570000D01*
X86660000Y-65570000D02*
X86660000Y-67390000D01*
X85740000Y-65570000D02*
X86660000Y-65570000D01*
X86660000Y-67390000D02*
X85740000Y-67390000D01*
%TO.C,C18*%
X86660000Y-69190000D02*
X85740000Y-69190000D01*
X85740000Y-69190000D02*
X85740000Y-67370000D01*
X86660000Y-67370000D02*
X86660000Y-69190000D01*
X85740000Y-67370000D02*
X86660000Y-67370000D01*
%TO.C,C21*%
X19910000Y-75960000D02*
X18090000Y-75960000D01*
X19910000Y-75040000D02*
X19910000Y-75960000D01*
X18090000Y-75960000D02*
X18090000Y-75040000D01*
X18090000Y-75040000D02*
X19910000Y-75040000D01*
%TO.C,C22*%
X16190000Y-75960000D02*
X16190000Y-75040000D01*
X18010000Y-75960000D02*
X16190000Y-75960000D01*
X16190000Y-75040000D02*
X18010000Y-75040000D01*
X18010000Y-75040000D02*
X18010000Y-75960000D01*
%TO.C,C23*%
X18090000Y-60760000D02*
X18090000Y-59840000D01*
X19910000Y-60760000D02*
X18090000Y-60760000D01*
X18090000Y-59840000D02*
X19910000Y-59840000D01*
X19910000Y-59840000D02*
X19910000Y-60760000D01*
%TO.C,C24*%
X18010000Y-59840000D02*
X18010000Y-60760000D01*
X16190000Y-60760000D02*
X16190000Y-59840000D01*
X16190000Y-59840000D02*
X18010000Y-59840000D01*
X18010000Y-60760000D02*
X16190000Y-60760000D01*
%TO.C,C25*%
X19910000Y-68360000D02*
X18090000Y-68360000D01*
X19910000Y-67440000D02*
X19910000Y-68360000D01*
X18090000Y-67440000D02*
X19910000Y-67440000D01*
X18090000Y-68360000D02*
X18090000Y-67440000D01*
%TO.C,C26*%
X16190000Y-68360000D02*
X16190000Y-67440000D01*
X16190000Y-67440000D02*
X18010000Y-67440000D01*
X18010000Y-68360000D02*
X16190000Y-68360000D01*
X18010000Y-67440000D02*
X18010000Y-68360000D01*
%TO.C,C27*%
X64420000Y-75100000D02*
X64420000Y-71700000D01*
X64420000Y-71700000D02*
X66380000Y-71700000D01*
X66380000Y-75100000D02*
X64420000Y-75100000D01*
X66380000Y-71700000D02*
X66380000Y-75100000D01*
%TO.C,C29*%
X20800000Y-73720000D02*
X24200000Y-73720000D01*
X24200000Y-73720000D02*
X24200000Y-75680000D01*
X24200000Y-75680000D02*
X20800000Y-75680000D01*
X20800000Y-75680000D02*
X20800000Y-73720000D01*
%TO.C,C30*%
X24100000Y-58620000D02*
X24100000Y-60580000D01*
X20700000Y-58620000D02*
X24100000Y-58620000D01*
X24100000Y-60580000D02*
X20700000Y-60580000D01*
X20700000Y-60580000D02*
X20700000Y-58620000D01*
%TO.C,C31*%
X24200000Y-68180000D02*
X20800000Y-68180000D01*
X20800000Y-66220000D02*
X24200000Y-66220000D01*
X24200000Y-66220000D02*
X24200000Y-68180000D01*
X20800000Y-68180000D02*
X20800000Y-66220000D01*
D11*
%TO.C,D1*%
X44900000Y-47900000D02*
X44900000Y-48200000D01*
D10*
X44000000Y-48600000D02*
X44200000Y-48600000D01*
D11*
X44600000Y-49000000D02*
X44600000Y-49300000D01*
X42800000Y-49300000D02*
X42800000Y-49000000D01*
D10*
X44000000Y-48600000D02*
X43500000Y-48950000D01*
X43500000Y-48950000D02*
X43500000Y-48250000D01*
D11*
X42800000Y-48200000D02*
X42800000Y-47900000D01*
D10*
X44000000Y-48950000D02*
X44000000Y-48250000D01*
X43500000Y-48250000D02*
X44000000Y-48600000D01*
D11*
X44600000Y-49300000D02*
X42800000Y-49300000D01*
X42800000Y-47900000D02*
X44600000Y-47900000D01*
X44600000Y-47900000D02*
X44600000Y-48200000D01*
X44900000Y-49000000D02*
X44900000Y-49300000D01*
D10*
X43500000Y-48600000D02*
X43250000Y-48600000D01*
D13*
%TO.C,D2*%
X63730000Y-27820000D02*
X63730000Y-30780000D01*
D10*
X63735000Y-27615000D02*
X62265000Y-27615000D01*
D13*
X62270000Y-30780000D02*
X62270000Y-27820000D01*
X63730000Y-30780000D02*
X62270000Y-30780000D01*
X62270000Y-27820000D02*
X63730000Y-27820000D01*
%TO.C,D3*%
X65330000Y-30780000D02*
X63870000Y-30780000D01*
D10*
X65335000Y-27615000D02*
X63865000Y-27615000D01*
D13*
X65330000Y-27820000D02*
X65330000Y-30780000D01*
X63870000Y-30780000D02*
X63870000Y-27820000D01*
X63870000Y-27820000D02*
X65330000Y-27820000D01*
%TO.C,R1*%
X45370000Y-46530000D02*
X47230000Y-46530000D01*
X45370000Y-47470000D02*
X45370000Y-46530000D01*
X47230000Y-47470000D02*
X45370000Y-47470000D01*
X47230000Y-46530000D02*
X47230000Y-47470000D01*
%TO.C,R2*%
X35630000Y-42970000D02*
X36570000Y-42970000D01*
X36570000Y-42970000D02*
X36570000Y-44830000D01*
X35630000Y-44830000D02*
X35630000Y-42970000D01*
X36570000Y-44830000D02*
X35630000Y-44830000D01*
%TO.C,R3*%
X41130000Y-42970000D02*
X42070000Y-42970000D01*
X42070000Y-44830000D02*
X41130000Y-44830000D01*
X42070000Y-42970000D02*
X42070000Y-44830000D01*
X41130000Y-44830000D02*
X41130000Y-42970000D01*
%TO.C,R4*%
X40030000Y-42970000D02*
X40970000Y-42970000D01*
X40970000Y-44830000D02*
X40030000Y-44830000D01*
X40970000Y-42970000D02*
X40970000Y-44830000D01*
X40030000Y-44830000D02*
X40030000Y-42970000D01*
%TO.C,R5*%
X34530000Y-44830000D02*
X34530000Y-42970000D01*
X35470000Y-44830000D02*
X34530000Y-44830000D01*
X35470000Y-42970000D02*
X35470000Y-44830000D01*
X34530000Y-42970000D02*
X35470000Y-42970000D01*
%TO.C,R6*%
X33430000Y-44830000D02*
X33430000Y-42970000D01*
X34370000Y-44830000D02*
X33430000Y-44830000D01*
X33430000Y-42970000D02*
X34370000Y-42970000D01*
X34370000Y-42970000D02*
X34370000Y-44830000D01*
%TO.C,R7*%
X47570000Y-43930000D02*
X49430000Y-43930000D01*
X49430000Y-43930000D02*
X49430000Y-44870000D01*
X47570000Y-44870000D02*
X47570000Y-43930000D01*
X49430000Y-44870000D02*
X47570000Y-44870000D01*
%TO.C,R8*%
X80480000Y-38670000D02*
X81420000Y-38670000D01*
X81420000Y-38670000D02*
X81420000Y-40530000D01*
X81420000Y-40530000D02*
X80480000Y-40530000D01*
X80480000Y-40530000D02*
X80480000Y-38670000D01*
%TO.C,R9*%
X80480000Y-36770000D02*
X81420000Y-36770000D01*
X80480000Y-38630000D02*
X80480000Y-36770000D01*
X81420000Y-36770000D02*
X81420000Y-38630000D01*
X81420000Y-38630000D02*
X80480000Y-38630000D01*
%TO.C,R10*%
X55670000Y-62430000D02*
X54730000Y-62430000D01*
X54730000Y-62430000D02*
X54730000Y-60570000D01*
X54730000Y-60570000D02*
X55670000Y-60570000D01*
X55670000Y-60570000D02*
X55670000Y-62430000D01*
%TO.C,R11*%
X62830000Y-30970000D02*
X63770000Y-30970000D01*
X63770000Y-32830000D02*
X62830000Y-32830000D01*
X63770000Y-30970000D02*
X63770000Y-32830000D01*
X62830000Y-32830000D02*
X62830000Y-30970000D01*
%TO.C,R12*%
X58670000Y-62430000D02*
X57730000Y-62430000D01*
X58670000Y-60570000D02*
X58670000Y-62430000D01*
X57730000Y-60570000D02*
X58670000Y-60570000D01*
X57730000Y-62430000D02*
X57730000Y-60570000D01*
%TO.C,R13*%
X57670000Y-62430000D02*
X56730000Y-62430000D01*
X57670000Y-60570000D02*
X57670000Y-62430000D01*
X56730000Y-62430000D02*
X56730000Y-60570000D01*
X56730000Y-60570000D02*
X57670000Y-60570000D01*
%TO.C,R14*%
X30730000Y-64395000D02*
X28870000Y-64395000D01*
X28870000Y-64395000D02*
X28870000Y-63455000D01*
X28870000Y-63455000D02*
X30730000Y-63455000D01*
X30730000Y-63455000D02*
X30730000Y-64395000D01*
%TO.C,R15*%
X64770000Y-32830000D02*
X63830000Y-32830000D01*
X64770000Y-30970000D02*
X64770000Y-32830000D01*
X63830000Y-32830000D02*
X63830000Y-30970000D01*
X63830000Y-30970000D02*
X64770000Y-30970000D01*
%TO.C,R16*%
X30730000Y-64530000D02*
X30730000Y-65470000D01*
X30730000Y-65470000D02*
X28870000Y-65470000D01*
X28870000Y-65470000D02*
X28870000Y-64530000D01*
X28870000Y-64530000D02*
X30730000Y-64530000D01*
%TO.C,R17*%
X46270000Y-57870000D02*
X46270000Y-56930000D01*
X46270000Y-56930000D02*
X48130000Y-56930000D01*
X48130000Y-57870000D02*
X46270000Y-57870000D01*
X48130000Y-56930000D02*
X48130000Y-57870000D01*
%TO.C,R18*%
X43730000Y-61370000D02*
X44670000Y-61370000D01*
X44670000Y-63230000D02*
X43730000Y-63230000D01*
X43730000Y-63230000D02*
X43730000Y-61370000D01*
X44670000Y-61370000D02*
X44670000Y-63230000D01*
%TO.C,R19*%
X36135000Y-58330000D02*
X35195000Y-58330000D01*
X36135000Y-56470000D02*
X36135000Y-58330000D01*
X35195000Y-56470000D02*
X36135000Y-56470000D01*
X35195000Y-58330000D02*
X35195000Y-56470000D01*
%TO.C,R20*%
X76970000Y-38670000D02*
X76970000Y-37730000D01*
X76970000Y-37730000D02*
X78830000Y-37730000D01*
X78830000Y-37730000D02*
X78830000Y-38670000D01*
X78830000Y-38670000D02*
X76970000Y-38670000D01*
%TO.C,R21*%
X34870000Y-56470000D02*
X34870000Y-58330000D01*
X34870000Y-58330000D02*
X33930000Y-58330000D01*
X33930000Y-56470000D02*
X34870000Y-56470000D01*
X33930000Y-58330000D02*
X33930000Y-56470000D01*
%TO.C,R52*%
X13870000Y-30470000D02*
X13870000Y-32330000D01*
X12930000Y-30470000D02*
X13870000Y-30470000D01*
X12930000Y-32330000D02*
X12930000Y-30470000D01*
X13870000Y-32330000D02*
X12930000Y-32330000D01*
%TO.C,R82*%
X18070000Y-74030000D02*
X19930000Y-74030000D01*
X18070000Y-74970000D02*
X18070000Y-74030000D01*
X19930000Y-74970000D02*
X18070000Y-74970000D01*
X19930000Y-74030000D02*
X19930000Y-74970000D01*
%TO.C,R83*%
X18030000Y-74030000D02*
X18030000Y-74970000D01*
X16170000Y-74030000D02*
X18030000Y-74030000D01*
X18030000Y-74970000D02*
X16170000Y-74970000D01*
X16170000Y-74970000D02*
X16170000Y-74030000D01*
%TO.C,R84*%
X19930000Y-58830000D02*
X19930000Y-59770000D01*
X18070000Y-58830000D02*
X19930000Y-58830000D01*
X18070000Y-59770000D02*
X18070000Y-58830000D01*
X19930000Y-59770000D02*
X18070000Y-59770000D01*
%TO.C,R85*%
X16170000Y-59770000D02*
X16170000Y-58830000D01*
X18030000Y-58830000D02*
X18030000Y-59770000D01*
X18030000Y-59770000D02*
X16170000Y-59770000D01*
X16170000Y-58830000D02*
X18030000Y-58830000D01*
%TO.C,R86*%
X18070000Y-66430000D02*
X19930000Y-66430000D01*
X19930000Y-67370000D02*
X18070000Y-67370000D01*
X19930000Y-66430000D02*
X19930000Y-67370000D01*
X18070000Y-67370000D02*
X18070000Y-66430000D01*
%TO.C,R87*%
X16170000Y-66430000D02*
X18030000Y-66430000D01*
X16170000Y-67370000D02*
X16170000Y-66430000D01*
X18030000Y-66430000D02*
X18030000Y-67370000D01*
X18030000Y-67370000D02*
X16170000Y-67370000D01*
%TO.C,R110*%
X86730000Y-65550000D02*
X87670000Y-65550000D01*
X87670000Y-67410000D02*
X86730000Y-67410000D01*
X87670000Y-65550000D02*
X87670000Y-67410000D01*
X86730000Y-67410000D02*
X86730000Y-65550000D01*
%TO.C,R111*%
X87670000Y-67350000D02*
X87670000Y-69210000D01*
X86730000Y-67350000D02*
X87670000Y-67350000D01*
X87670000Y-69210000D02*
X86730000Y-69210000D01*
X86730000Y-69210000D02*
X86730000Y-67350000D01*
%TO.C,R114*%
X26330000Y-71270000D02*
X27270000Y-71270000D01*
X27270000Y-73130000D02*
X26330000Y-73130000D01*
X26330000Y-73130000D02*
X26330000Y-71270000D01*
X27270000Y-71270000D02*
X27270000Y-73130000D01*
D11*
%TO.C,U2*%
X48550000Y-59370000D02*
X48550000Y-62970000D01*
X48561522Y-63008478D02*
G75*
G03*
X53000000Y-61170000I1838478J1838478D01*
G01*
X53000001Y-61170000D02*
G75*
G03*
X48561522Y-59331522I-2600001J0D01*
G01*
D10*
%TO.C,U3*%
X34000000Y-51400000D02*
X38600000Y-51400000D01*
X33800000Y-53800000D02*
X33800000Y-51600000D01*
X38600000Y-54000000D02*
X34000000Y-54000000D01*
X38800000Y-51600000D02*
X38800000Y-53800000D01*
X33800000Y-53800000D02*
G75*
G03*
X34000000Y-54000000I200001J1D01*
G01*
X38800000Y-51600000D02*
G75*
G03*
X38600000Y-51400000I-200001J-1D01*
G01*
X38600000Y-54000000D02*
G75*
G03*
X38800000Y-53800000I-1J200001D01*
G01*
X34000000Y-51400000D02*
G75*
G03*
X33800000Y-51600000I1J-200001D01*
G01*
D11*
X34600000Y-53500000D02*
G75*
G03*
X34600000Y-53500000I-200000J0D01*
G01*
%TO.C,U8*%
X16400000Y-73800000D02*
X18000000Y-73800000D01*
X16400000Y-70800000D02*
X18000000Y-70800000D01*
%TO.C,U9*%
X16400000Y-55600000D02*
X18000000Y-55600000D01*
X16400000Y-58600000D02*
X18000000Y-58600000D01*
%TO.C,U10*%
X16400000Y-63200000D02*
X18000000Y-63200000D01*
X16400000Y-66200000D02*
X18000000Y-66200000D01*
%TO.C,U11*%
X75400000Y-74000000D02*
X84600000Y-74000000D01*
D10*
X85000000Y-74400000D02*
X85000000Y-73400000D01*
D11*
X75400000Y-60800000D02*
X75400000Y-74000000D01*
X84600000Y-74000000D02*
X84600000Y-60800000D01*
D10*
X84000000Y-74400000D02*
X85000000Y-74400000D01*
D11*
X84600000Y-60800000D02*
X75400000Y-60800000D01*
D13*
%TO.C,C32*%
X73160000Y-30090000D02*
X73160000Y-31910000D01*
X72240000Y-30090000D02*
X73160000Y-30090000D01*
X72240000Y-31910000D02*
X72240000Y-30090000D01*
X73160000Y-31910000D02*
X72240000Y-31910000D01*
%TO.C,C33*%
X74160000Y-30090000D02*
X74160000Y-31910000D01*
X74160000Y-31910000D02*
X73240000Y-31910000D01*
X73240000Y-30090000D02*
X74160000Y-30090000D01*
X73240000Y-31910000D02*
X73240000Y-30090000D01*
%TO.C,C34*%
X76010000Y-37360000D02*
X74190000Y-37360000D01*
X76010000Y-36440000D02*
X76010000Y-37360000D01*
X74190000Y-36440000D02*
X76010000Y-36440000D01*
X74190000Y-37360000D02*
X74190000Y-36440000D01*
%TO.C,C35*%
X76010000Y-35440000D02*
X76010000Y-36360000D01*
X74190000Y-36360000D02*
X74190000Y-35440000D01*
X74190000Y-35440000D02*
X76010000Y-35440000D01*
X76010000Y-36360000D02*
X74190000Y-36360000D01*
%TO.C,D11*%
X27530000Y-76280000D02*
X26070000Y-76280000D01*
D10*
X26065000Y-76485000D02*
X27535000Y-76485000D01*
D13*
X27530000Y-73320000D02*
X27530000Y-76280000D01*
X26070000Y-76280000D02*
X26070000Y-73320000D01*
X26070000Y-73320000D02*
X27530000Y-73320000D01*
%TO.C,L2*%
X23500000Y-69350000D02*
X19500000Y-69350000D01*
X19500000Y-69350000D02*
X19500000Y-73350000D01*
X19500000Y-73350000D02*
X23500000Y-73350000D01*
X23500000Y-73350000D02*
X23500000Y-69350000D01*
%TO.C,L3*%
X19600000Y-58150000D02*
X23600000Y-58150000D01*
X19600000Y-54150000D02*
X19600000Y-58150000D01*
X23600000Y-58150000D02*
X23600000Y-54150000D01*
X23600000Y-54150000D02*
X19600000Y-54150000D01*
%TO.C,L4*%
X23600000Y-65750000D02*
X23600000Y-61750000D01*
X23600000Y-61750000D02*
X19600000Y-61750000D01*
X19600000Y-65750000D02*
X23600000Y-65750000D01*
X19600000Y-61750000D02*
X19600000Y-65750000D01*
D10*
%TO.C,Y1*%
X68300000Y-29900000D02*
X68300000Y-32100000D01*
X68500000Y-32300000D02*
X70900000Y-32300000D01*
X71100000Y-32100000D02*
X71100000Y-29900000D01*
X70900000Y-29700000D02*
X68500000Y-29700000D01*
X70900000Y-32300000D02*
G75*
G03*
X71100000Y-32100000I-1J200001D01*
G01*
X68300000Y-32100000D02*
G75*
G03*
X68500000Y-32300000I200001J1D01*
G01*
X71100000Y-29900000D02*
G75*
G03*
X70900000Y-29700000I-200001J-1D01*
G01*
X68500000Y-29700000D02*
G75*
G03*
X68300000Y-29900000I1J-200001D01*
G01*
D13*
%TO.C,R112*%
X72370000Y-64530000D02*
X74230000Y-64530000D01*
X72370000Y-65470000D02*
X72370000Y-64530000D01*
X74230000Y-64530000D02*
X74230000Y-65470000D01*
X74230000Y-65470000D02*
X72370000Y-65470000D01*
%TO.C,D9*%
X12670000Y-27420000D02*
X14130000Y-27420000D01*
D10*
X14135000Y-27215000D02*
X12665000Y-27215000D01*
D13*
X12670000Y-30380000D02*
X12670000Y-27420000D01*
X14130000Y-30380000D02*
X12670000Y-30380000D01*
X14130000Y-27420000D02*
X14130000Y-30380000D01*
D11*
%TO.C,J2*%
X79000000Y-33150000D02*
X79000000Y-31150000D01*
X79000000Y-29250000D02*
X79000000Y-27350000D01*
X88400000Y-33150000D02*
X88400000Y-31150000D01*
X88400000Y-27350000D02*
X79000000Y-27350000D01*
X88400000Y-29250000D02*
X88400000Y-27350000D01*
D13*
%TO.C,C39*%
X56540000Y-63240000D02*
X58360000Y-63240000D01*
X58360000Y-64160000D02*
X56540000Y-64160000D01*
X56540000Y-64160000D02*
X56540000Y-63240000D01*
X58360000Y-63240000D02*
X58360000Y-64160000D01*
%TO.C,R117*%
X61370000Y-73770000D02*
X61370000Y-72830000D01*
X63230000Y-73770000D02*
X61370000Y-73770000D01*
X61370000Y-72830000D02*
X63230000Y-72830000D01*
X63230000Y-72830000D02*
X63230000Y-73770000D01*
%TO.C,R118*%
X54070000Y-64230000D02*
X53130000Y-64230000D01*
X53130000Y-62370000D02*
X54070000Y-62370000D01*
X54070000Y-62370000D02*
X54070000Y-64230000D01*
X53130000Y-64230000D02*
X53130000Y-62370000D01*
%TO.C,R119*%
X56479999Y-64170000D02*
X54619999Y-64170000D01*
X54619999Y-63230000D02*
X56479999Y-63230000D01*
X56479999Y-63230000D02*
X56479999Y-64170000D01*
X54619999Y-64170000D02*
X54619999Y-63230000D01*
D11*
%TO.C,U13*%
X58950000Y-76549999D02*
X40550000Y-76549999D01*
X58950000Y-64549999D02*
X40550000Y-64549999D01*
D13*
%TO.C,R22*%
X85420000Y-38630000D02*
X84480000Y-38630000D01*
X85420000Y-36770000D02*
X85420000Y-38630000D01*
X84480000Y-36770000D02*
X85420000Y-36770000D01*
X84480000Y-38630000D02*
X84480000Y-36770000D01*
%TO.C,R23*%
X82420000Y-38630000D02*
X81480000Y-38630000D01*
X82420000Y-36770000D02*
X82420000Y-38630000D01*
X81480000Y-38630000D02*
X81480000Y-36770000D01*
X81480000Y-36770000D02*
X82420000Y-36770000D01*
%TO.C,C40*%
X32550000Y-51510000D02*
X32550000Y-49690000D01*
X33470000Y-49690000D02*
X33470000Y-51510000D01*
X32550000Y-49690000D02*
X33470000Y-49690000D01*
X33470000Y-51510000D02*
X32550000Y-51510000D01*
D11*
%TO.C,U1*%
X71710000Y-55710000D02*
X70560000Y-55710000D01*
X51490000Y-36640000D02*
X51490000Y-35490000D01*
X51490000Y-35490000D02*
X52640000Y-35490000D01*
X51490000Y-55710000D02*
X52640000Y-55710000D01*
X51490000Y-54560000D02*
X51490000Y-55710000D01*
X71710000Y-36640000D02*
X71710000Y-35490000D01*
X71710000Y-35490000D02*
X70560000Y-35490000D01*
X71710000Y-54560000D02*
X71710000Y-55710000D01*
%TO.C,J1*%
X33000000Y-41600000D02*
X30800000Y-41600000D01*
X28725000Y-27100000D02*
X28725000Y-29800000D01*
X43475000Y-39700000D02*
X43475000Y-33400000D01*
X43475000Y-27100000D02*
X28725000Y-27100000D01*
X28725000Y-33200000D02*
X28725000Y-39900000D01*
X43475000Y-29900000D02*
X43475000Y-27100000D01*
D13*
%TO.C,C69*%
X26200000Y-41380000D02*
X22800000Y-41380000D01*
X26200000Y-39420000D02*
X26200000Y-41380000D01*
X22800000Y-39420000D02*
X26200000Y-39420000D01*
X22800000Y-41380000D02*
X22800000Y-39420000D01*
%TO.C,C61*%
X47210000Y-49560000D02*
X45390000Y-49560000D01*
X45390000Y-48640000D02*
X47210000Y-48640000D01*
X45390000Y-49560000D02*
X45390000Y-48640000D01*
X47210000Y-48640000D02*
X47210000Y-49560000D01*
%TO.C,C33*%
X54140000Y-58390000D02*
X55060000Y-58390000D01*
X55060000Y-58390000D02*
X55060000Y-60210000D01*
X55060000Y-60210000D02*
X54140000Y-60210000D01*
X54140000Y-60210000D02*
X54140000Y-58390000D01*
%TO.C,C13*%
X30000000Y-53280000D02*
X26600000Y-53280000D01*
X26600000Y-53280000D02*
X26600000Y-51320000D01*
X30000000Y-51320000D02*
X30000000Y-53280000D01*
X26600000Y-51320000D02*
X30000000Y-51320000D01*
D11*
%TO.C,J7*%
X76050000Y-32440000D02*
X76050000Y-27360000D01*
X76050000Y-27360000D02*
X78590000Y-27360000D01*
X78590000Y-32440000D02*
X76050000Y-32440000D01*
X78590000Y-27360000D02*
X78590000Y-32440000D01*
D13*
%TO.C,C37*%
X47590000Y-43860000D02*
X47590000Y-42940000D01*
X47590000Y-42940000D02*
X49410000Y-42940000D01*
X49410000Y-43860000D02*
X47590000Y-43860000D01*
X49410000Y-42940000D02*
X49410000Y-43860000D01*
%TO.C,C67*%
X47590000Y-40140000D02*
X49410000Y-40140000D01*
X47590000Y-41060000D02*
X47590000Y-40140000D01*
X49410000Y-41060000D02*
X47590000Y-41060000D01*
X49410000Y-40140000D02*
X49410000Y-41060000D01*
%TO.C,C55*%
X48610000Y-52940000D02*
X48610000Y-53860000D01*
X46790000Y-53860000D02*
X46790000Y-52940000D01*
X46790000Y-52940000D02*
X48610000Y-52940000D01*
X48610000Y-53860000D02*
X46790000Y-53860000D01*
%TO.C,R26*%
X84870000Y-43170000D02*
X84870000Y-45030000D01*
X84870000Y-45030000D02*
X83930000Y-45030000D01*
X83930000Y-45030000D02*
X83930000Y-43170000D01*
X83930000Y-43170000D02*
X84870000Y-43170000D01*
%TO.C,C62*%
X75090000Y-42540000D02*
X76910000Y-42540000D01*
X75090000Y-43460000D02*
X75090000Y-42540000D01*
X76910000Y-42540000D02*
X76910000Y-43460000D01*
X76910000Y-43460000D02*
X75090000Y-43460000D01*
%TO.C,D13*%
X29030000Y-76280000D02*
X27570000Y-76280000D01*
X27570000Y-76280000D02*
X27570000Y-73320000D01*
X27570000Y-73320000D02*
X29030000Y-73320000D01*
X29030000Y-73320000D02*
X29030000Y-76280000D01*
D10*
X27565000Y-76485000D02*
X29035000Y-76485000D01*
D13*
%TO.C,D12*%
X29070000Y-76280000D02*
X29070000Y-73320000D01*
D10*
X29065000Y-76485000D02*
X30535000Y-76485000D01*
D13*
X30530000Y-73320000D02*
X30530000Y-76280000D01*
X29070000Y-73320000D02*
X30530000Y-73320000D01*
X30530000Y-76280000D02*
X29070000Y-76280000D01*
%TO.C,C68*%
X23860000Y-43710000D02*
X22940000Y-43710000D01*
X22940000Y-43710000D02*
X22940000Y-41890000D01*
X22940000Y-41890000D02*
X23860000Y-41890000D01*
X23860000Y-41890000D02*
X23860000Y-43710000D01*
D11*
%TO.C,J4*%
X18790000Y-36885000D02*
X17710000Y-36885000D01*
X24090000Y-36885000D02*
X23010000Y-36885000D01*
X24810000Y-31735000D02*
X24810000Y-34965000D01*
X16990000Y-31735000D02*
X16990000Y-34965000D01*
X16990000Y-27565000D02*
X16990000Y-29515000D01*
X24810000Y-27565000D02*
X24810000Y-29515000D01*
X16990000Y-27565000D02*
X24810000Y-27565000D01*
D13*
%TO.C,C46*%
X87610000Y-69240000D02*
X87610000Y-70160000D01*
X85790000Y-70160000D02*
X85790000Y-69240000D01*
X85790000Y-69240000D02*
X87610000Y-69240000D01*
X87610000Y-70160000D02*
X85790000Y-70160000D01*
%TO.C,C19*%
X74960000Y-39290000D02*
X74960000Y-41110000D01*
X74040000Y-39290000D02*
X74960000Y-39290000D01*
X74040000Y-41110000D02*
X74040000Y-39290000D01*
X74960000Y-41110000D02*
X74040000Y-41110000D01*
%TO.C,C28*%
X30000000Y-60720000D02*
X30000000Y-62680000D01*
X30000000Y-62680000D02*
X26600000Y-62680000D01*
X26600000Y-62680000D02*
X26600000Y-60720000D01*
X26600000Y-60720000D02*
X30000000Y-60720000D01*
%TO.C,R113*%
X30830000Y-73130000D02*
X30830000Y-71270000D01*
X31770000Y-73130000D02*
X30830000Y-73130000D01*
X31770000Y-71270000D02*
X31770000Y-73130000D01*
X30830000Y-71270000D02*
X31770000Y-71270000D01*
%TO.C,C65*%
X65730000Y-32080000D02*
X65730000Y-33900000D01*
X64810000Y-33900000D02*
X64810000Y-32080000D01*
X64810000Y-32080000D02*
X65730000Y-32080000D01*
X65730000Y-33900000D02*
X64810000Y-33900000D01*
%TO.C,C56*%
X61540000Y-33310000D02*
X61540000Y-31490000D01*
X61540000Y-31490000D02*
X62460000Y-31490000D01*
X62460000Y-31490000D02*
X62460000Y-33310000D01*
X62460000Y-33310000D02*
X61540000Y-33310000D01*
%TO.C,C50*%
X62260000Y-60210000D02*
X61340000Y-60210000D01*
X61340000Y-60210000D02*
X61340000Y-58390000D01*
X61340000Y-58390000D02*
X62260000Y-58390000D01*
X62260000Y-58390000D02*
X62260000Y-60210000D01*
D10*
%TO.C,D10*%
X30565000Y-76485000D02*
X32035000Y-76485000D01*
D13*
X30570000Y-73320000D02*
X32030000Y-73320000D01*
X30570000Y-76280000D02*
X30570000Y-73320000D01*
X32030000Y-76280000D02*
X30570000Y-76280000D01*
X32030000Y-73320000D02*
X32030000Y-76280000D01*
%TO.C,C41*%
X73340000Y-73390000D02*
X74260000Y-73390000D01*
X73340000Y-75210000D02*
X73340000Y-73390000D01*
X74260000Y-75210000D02*
X73340000Y-75210000D01*
X74260000Y-73390000D02*
X74260000Y-75210000D01*
D11*
%TO.C,J6*%
X45430000Y-63735000D02*
X45430000Y-58655000D01*
X45430000Y-58655000D02*
X47970000Y-58655000D01*
X47970000Y-58655000D02*
X47970000Y-63735000D01*
X47970000Y-63735000D02*
X45430000Y-63735000D01*
D13*
%TO.C,C35*%
X54060000Y-58390000D02*
X54060000Y-60210000D01*
X53140000Y-58390000D02*
X54060000Y-58390000D01*
X54060000Y-60210000D02*
X53140000Y-60210000D01*
X53140000Y-60210000D02*
X53140000Y-58390000D01*
%TO.C,R116*%
X28770000Y-71270000D02*
X28770000Y-73130000D01*
X27830000Y-71270000D02*
X28770000Y-71270000D01*
X28770000Y-73130000D02*
X27830000Y-73130000D01*
X27830000Y-73130000D02*
X27830000Y-71270000D01*
D11*
%TO.C,J5*%
X33970000Y-63730000D02*
X33970000Y-68810000D01*
X33970000Y-68810000D02*
X31430000Y-68810000D01*
X31430000Y-68810000D02*
X31430000Y-63730000D01*
X31430000Y-63730000D02*
X33970000Y-63730000D01*
D13*
%TO.C,C59*%
X55640000Y-58390000D02*
X56560000Y-58390000D01*
X56560000Y-58390000D02*
X56560000Y-60210000D01*
X55640000Y-60210000D02*
X55640000Y-58390000D01*
X56560000Y-60210000D02*
X55640000Y-60210000D01*
%TO.C,R80*%
X25630000Y-57030000D02*
X25630000Y-55170000D01*
X26570000Y-57030000D02*
X25630000Y-57030000D01*
X25630000Y-55170000D02*
X26570000Y-55170000D01*
X26570000Y-55170000D02*
X26570000Y-57030000D01*
%TO.C,R81*%
X26570000Y-55130000D02*
X25630000Y-55130000D01*
X25630000Y-53270000D02*
X26570000Y-53270000D01*
X26570000Y-53270000D02*
X26570000Y-55130000D01*
X25630000Y-55130000D02*
X25630000Y-53270000D01*
%TO.C,C36*%
X57560000Y-60210000D02*
X56640000Y-60210000D01*
X56640000Y-60210000D02*
X56640000Y-58390000D01*
X57560000Y-58390000D02*
X57560000Y-60210000D01*
X56640000Y-58390000D02*
X57560000Y-58390000D01*
%TO.C,C63*%
X47590000Y-47940000D02*
X49410000Y-47940000D01*
X47590000Y-48860000D02*
X47590000Y-47940000D01*
X49410000Y-47940000D02*
X49410000Y-48860000D01*
X49410000Y-48860000D02*
X47590000Y-48860000D01*
%TO.C,R115*%
X30270000Y-71270000D02*
X30270000Y-73130000D01*
X29330000Y-73130000D02*
X29330000Y-71270000D01*
X29330000Y-71270000D02*
X30270000Y-71270000D01*
X30270000Y-73130000D02*
X29330000Y-73130000D01*
%TO.C,R27*%
X20270000Y-42470000D02*
X20270000Y-44330000D01*
X19330000Y-44330000D02*
X19330000Y-42470000D01*
X20270000Y-44330000D02*
X19330000Y-44330000D01*
X19330000Y-42470000D02*
X20270000Y-42470000D01*
%TO.C,C60*%
X57640000Y-60210000D02*
X57640000Y-58390000D01*
X58560000Y-60210000D02*
X57640000Y-60210000D01*
X57640000Y-58390000D02*
X58560000Y-58390000D01*
X58560000Y-58390000D02*
X58560000Y-60210000D01*
%TO.C,C52*%
X75290000Y-51260000D02*
X75290000Y-50340000D01*
X75290000Y-50340000D02*
X77110000Y-50340000D01*
X77110000Y-50340000D02*
X77110000Y-51260000D01*
X77110000Y-51260000D02*
X75290000Y-51260000D01*
D11*
%TO.C,J3*%
X60010000Y-31170000D02*
X52390000Y-31170000D01*
X60010000Y-28630000D02*
X60010000Y-31170000D01*
X52390000Y-28630000D02*
X60010000Y-28630000D01*
X52390000Y-31170000D02*
X52390000Y-28630000D01*
D13*
%TO.C,C54*%
X49410000Y-46460000D02*
X47590000Y-46460000D01*
X49410000Y-45540000D02*
X49410000Y-46460000D01*
X47590000Y-46460000D02*
X47590000Y-45540000D01*
X47590000Y-45540000D02*
X49410000Y-45540000D01*
%TO.C,R25*%
X82970000Y-45030000D02*
X82030000Y-45030000D01*
X82030000Y-43170000D02*
X82970000Y-43170000D01*
X82030000Y-45030000D02*
X82030000Y-43170000D01*
X82970000Y-43170000D02*
X82970000Y-45030000D01*
%TO.C,C47*%
X87610000Y-72260000D02*
X85790000Y-72260000D01*
X87610000Y-71340000D02*
X87610000Y-72260000D01*
X85790000Y-71340000D02*
X87610000Y-71340000D01*
X85790000Y-72260000D02*
X85790000Y-71340000D01*
D11*
%TO.C,U6*%
X22310000Y-40400000D02*
X22310000Y-39600000D01*
X22310000Y-40400000D02*
X22310000Y-41200000D01*
X19190000Y-41200000D02*
X19190000Y-39600000D01*
D13*
%TO.C,C66*%
X76910000Y-41340000D02*
X76910000Y-42260000D01*
X76910000Y-42260000D02*
X75090000Y-42260000D01*
X75090000Y-42260000D02*
X75090000Y-41340000D01*
X75090000Y-41340000D02*
X76910000Y-41340000D01*
%TO.C,C48*%
X74690000Y-46640000D02*
X76510000Y-46640000D01*
X76510000Y-46640000D02*
X76510000Y-47560000D01*
X76510000Y-47560000D02*
X74690000Y-47560000D01*
X74690000Y-47560000D02*
X74690000Y-46640000D01*
D10*
%TO.C,U7*%
X27000000Y-55700000D02*
X31600000Y-55700000D01*
X31600000Y-58300000D02*
X27000000Y-58300000D01*
X26800000Y-58100000D02*
X26800000Y-55900000D01*
X31800000Y-55900000D02*
X31800000Y-58100000D01*
X26800000Y-58100000D02*
G75*
G03*
X27000000Y-58300000I200001J1D01*
G01*
X27000000Y-55700000D02*
G75*
G03*
X26800000Y-55900000I1J-200001D01*
G01*
X31600000Y-58300000D02*
G75*
G03*
X31800000Y-58100000I-1J200001D01*
G01*
X31800000Y-55900000D02*
G75*
G03*
X31600000Y-55700000I-200001J-1D01*
G01*
D11*
X31400000Y-56200000D02*
G75*
G03*
X31400000Y-56200000I-200000J0D01*
G01*
D13*
%TO.C,C51*%
X64140000Y-58390000D02*
X65060000Y-58390000D01*
X65060000Y-60210000D02*
X64140000Y-60210000D01*
X65060000Y-58390000D02*
X65060000Y-60210000D01*
X64140000Y-60210000D02*
X64140000Y-58390000D01*
D12*
%TO.C,U4*%
X22725000Y-45325000D02*
X23025000Y-45325000D01*
X22725000Y-48675000D02*
X22725000Y-45325000D01*
X26075000Y-45325000D02*
X25775000Y-45325000D01*
X22725000Y-48675000D02*
X22950000Y-48675000D01*
X26075000Y-48675000D02*
X25775000Y-48675000D01*
X26075000Y-48675000D02*
X26075000Y-45325000D01*
D13*
%TO.C,C45*%
X74210000Y-68260000D02*
X72390000Y-68260000D01*
X74210000Y-67340000D02*
X74210000Y-68260000D01*
X72390000Y-68260000D02*
X72390000Y-67340000D01*
X72390000Y-67340000D02*
X74210000Y-67340000D01*
%TO.C,C32*%
X61190000Y-71460000D02*
X61190000Y-69640000D01*
X61190000Y-69640000D02*
X62110000Y-69640000D01*
X62110000Y-71460000D02*
X61190000Y-71460000D01*
X62110000Y-69640000D02*
X62110000Y-71460000D01*
%TO.C,C44*%
X74210000Y-62660000D02*
X72390000Y-62660000D01*
X74210000Y-61740000D02*
X74210000Y-62660000D01*
X72390000Y-62660000D02*
X72390000Y-61740000D01*
X72390000Y-61740000D02*
X74210000Y-61740000D01*
%TO.C,C64*%
X68060000Y-32090000D02*
X68060000Y-33910000D01*
X67140000Y-32090000D02*
X68060000Y-32090000D01*
X68060000Y-33910000D02*
X67140000Y-33910000D01*
X67140000Y-33910000D02*
X67140000Y-32090000D01*
%TO.C,C57*%
X45810000Y-51140000D02*
X45810000Y-52060000D01*
X45810000Y-52060000D02*
X43990000Y-52060000D01*
X43990000Y-51140000D02*
X45810000Y-51140000D01*
X43990000Y-52060000D02*
X43990000Y-51140000D01*
%TO.C,C43*%
X85790000Y-63340000D02*
X87610000Y-63340000D01*
X85790000Y-64260000D02*
X85790000Y-63340000D01*
X87610000Y-64260000D02*
X85790000Y-64260000D01*
X87610000Y-63340000D02*
X87610000Y-64260000D01*
%TO.C,C53*%
X58640000Y-60210000D02*
X58640000Y-58390000D01*
X58640000Y-58390000D02*
X59560000Y-58390000D01*
X59560000Y-60210000D02*
X58640000Y-60210000D01*
X59560000Y-58390000D02*
X59560000Y-60210000D01*
%TO.C,C34*%
X37690000Y-71460000D02*
X37690000Y-69640000D01*
X38610000Y-69640000D02*
X38610000Y-71460000D01*
X38610000Y-71460000D02*
X37690000Y-71460000D01*
X37690000Y-69640000D02*
X38610000Y-69640000D01*
%TO.C,C42*%
X72390000Y-71460000D02*
X72390000Y-70540000D01*
X74210000Y-71460000D02*
X72390000Y-71460000D01*
X72390000Y-70540000D02*
X74210000Y-70540000D01*
X74210000Y-70540000D02*
X74210000Y-71460000D01*
D11*
%TO.C,U5*%
X85010000Y-40200000D02*
X85010000Y-41800000D01*
X81890000Y-41000000D02*
X81890000Y-41800000D01*
X81890000Y-41000000D02*
X81890000Y-40200000D01*
D13*
%TO.C,R28*%
X21230000Y-42470000D02*
X22170000Y-42470000D01*
X22170000Y-42470000D02*
X22170000Y-44330000D01*
X22170000Y-44330000D02*
X21230000Y-44330000D01*
X21230000Y-44330000D02*
X21230000Y-42470000D01*
%TO.C,C58*%
X67060000Y-33910000D02*
X66140000Y-33910000D01*
X66140000Y-33910000D02*
X66140000Y-32090000D01*
X66140000Y-32090000D02*
X67060000Y-32090000D01*
X67060000Y-32090000D02*
X67060000Y-33910000D01*
%TO.C,R24*%
X18030000Y-40230000D02*
X18030000Y-38370000D01*
X18970000Y-40230000D02*
X18030000Y-40230000D01*
X18030000Y-38370000D02*
X18970000Y-38370000D01*
X18970000Y-38370000D02*
X18970000Y-40230000D01*
%TO.C,C49*%
X69340000Y-58390000D02*
X70260000Y-58390000D01*
X69340000Y-60210000D02*
X69340000Y-58390000D01*
X70260000Y-60210000D02*
X69340000Y-60210000D01*
X70260000Y-58390000D02*
X70260000Y-60210000D01*
%TD*%
M02*
